<svg xmlns="http://www.w3.org/2000/svg" viewBox="0 0 220 220" width="220" height="220">
  <defs>
    <!-- Translucent amber, deeper toward the outside where the edge pinned. -->
    <radialGradient id="tone" cx="50%" cy="50%" r="50%">
      <stop offset="0%" stop-color="#d6a86a"/>
      <stop offset="70%" stop-color="#c69355"/>
      <stop offset="88%" stop-color="#b8823f"/>
      <stop offset="100%" stop-color="#a97331"/>
    </radialGradient>

    <!-- softened, so the slits read as breaks in the drying rim, not drawn lines -->
    <filter id="soften"><feGaussianBlur stdDeviation="0.75"/></filter>
    <mask id="ring-mask">
      <rect width="220" height="220" fill="#fff"/>
      <g filter="url(#soften)"><path d="M 46.0 138.7 L 45.2 136.7 L 44.5 134.7 L 43.8 132.6 L 43.2 130.6 L 42.6 128.5 L 42.1 126.4 L 41.7 124.3 L 41.3 122.2 L 41.0 120.1 L 40.7 117.9 L 40.5 115.8 L 40.4 113.7 L 40.3 111.5 L 40.3 109.4 L 40.4 107.2 L 40.5 105.1 L 40.7 102.9 L 41.0 100.8 L 41.4 98.7 L 41.8 96.6 L 42.3 94.5 L 42.9 92.5 L 43.5 90.4 L 44.2 88.4 L 44.9 86.4 L 45.7 84.4" stroke="#000" stroke-width="2.2" fill="none" stroke-linecap="round"/><path d="M 181.0 92.6 L 181.7 94.5 L 182.2 96.4 L 182.7 98.3 L 183.1 100.3 L 183.5 102.2 L 183.8 104.2 L 184.0 106.2 L 184.2 108.2 L 184.3 110.2 L 184.4 112.2 L 184.4 114.2 L 184.3 116.2 L 184.2 118.2 L 184.0 120.2 L 183.8 122.2 L 183.4 124.2 L 183.1 126.2 L 182.6 128.1 L 182.1 130.1 L 181.5 132.0 L 180.8 133.9 L 180.1 135.8 L 179.3 137.6 L 178.4 139.4 L 177.5 141.2 L 176.5 142.9" stroke="#000" stroke-width="2" fill="none" stroke-linecap="round"/><path d="M 147.5 168.4 L 146.8 168.9 L 146.1 169.3 L 145.3 169.7 L 144.6 170.1 L 143.8 170.5 L 143.0 170.9 L 142.3 171.3 L 141.5 171.6 L 140.7 172.0 L 139.9 172.3 L 139.1 172.7 L 138.4 173.0 L 137.6 173.3 L 136.8 173.6 L 136.0 173.8 L 135.2 174.1 L 134.3 174.4 L 133.5 174.6 L 132.7 174.8 L 131.9 175.1 L 131.1 175.3 L 130.3 175.5 L 129.4 175.7 L 128.6 175.9 L 127.8 176.0 L 127.0 176.2" stroke="#000" stroke-width="1.2" fill="none" stroke-linecap="round"/></g>
    </mask>

    <!-- the wicking edge of a dried liquid is never smooth -->
    <filter id="wick" x="-12%" y="-12%" width="124%" height="124%">
      <feTurbulence type="fractalNoise" baseFrequency="0.06" numOctaves="4" seed="4" result="n"/>
      <feDisplacementMap in="SourceGraphic" in2="n" scale="2.6" xChannelSelector="R" yChannelSelector="G"/>
    </filter>

    <!-- granular blotching within the rim -->
    <filter id="mottle" x="-12%" y="-12%" width="124%" height="124%">
      <feTurbulence type="fractalNoise" baseFrequency="0.12" numOctaves="3" seed="37" result="n"/>
      <feColorMatrix type="saturate" values="0" in="n" result="g"/>
      <feComponentTransfer in="g" result="a"><feFuncA type="linear" slope="0.45"/></feComponentTransfer>
      <feComposite in="a" in2="SourceGraphic" operator="in"/>
    </filter>
  </defs>

  <!-- the faintest film the cup sat in -->
  <circle cx="110" cy="110" r="64" fill="#d9b177" opacity="0.05"/>

  <g mask="url(#ring-mask)" filter="url(#wick)">
    <path d="M 187.2 110.0 C 187.0 111.3, 187.1 112.5, 187.0 113.8 C 187.0 115.0, 186.9 116.3, 186.7 117.6 C 186.6 118.8, 186.4 120.1, 186.2 121.3 C 186.0 122.6, 185.8 123.8, 185.6 125.0 C 185.3 126.3, 185.0 127.5, 184.7 128.7 C 184.4 129.9, 184.0 131.1, 183.6 132.3 C 183.2 133.5, 182.8 134.7, 182.3 135.9 C 181.8 137.0, 181.3 138.2, 180.7 139.3 C 180.2 140.4, 179.6 141.5, 179.0 142.6 C 178.4 143.7, 177.7 144.8, 177.1 145.8 C 176.4 146.9, 175.7 147.9, 175.0 149.0 C 174.4 150.0, 173.7 151.1, 173.0 152.1 C 172.3 153.1, 171.7 154.2, 171.0 155.2 C 170.3 156.3, 169.7 157.4, 168.9 158.4 C 168.2 159.4, 167.5 160.4, 166.6 161.3 C 165.8 162.2, 164.8 163.1, 163.9 163.9 C 162.9 164.7, 161.8 165.3, 160.8 166.0 C 159.8 166.7, 158.7 167.4, 157.6 168.0 C 156.6 168.7, 155.5 169.3, 154.5 170.0 C 153.4 170.6, 152.4 171.3, 151.4 171.9 C 150.3 172.5, 149.3 173.2, 148.2 173.8 C 147.1 174.3, 146.1 174.9, 145.0 175.5 C 143.9 176.0, 142.8 176.5, 141.7 177.0 C 140.6 177.5, 139.4 177.9, 138.3 178.3 C 137.2 178.8, 136.0 179.2, 134.9 179.5 C 133.7 179.9, 132.5 180.2, 131.4 180.5 C 130.2 180.8, 129.0 181.0, 127.8 181.2 C 126.7 181.5, 125.5 181.7, 124.3 181.8 C 123.1 182.0, 121.9 182.1, 120.7 182.2 C 119.5 182.3, 118.3 182.4, 117.1 182.4 C 115.9 182.5, 114.7 182.5, 113.6 182.5 C 112.4 182.5, 111.2 182.5, 110.0 182.4 C 108.8 182.4, 107.6 182.3, 106.5 182.2 C 105.3 182.1, 104.1 182.0, 102.9 181.8 C 101.8 181.7, 100.6 181.6, 99.4 181.4 C 98.2 181.2, 97.1 181.0, 95.9 180.7 C 94.8 180.5, 93.6 180.3, 92.5 180.0 C 91.3 179.7, 90.2 179.4, 89.1 179.0 C 87.9 178.7, 86.8 178.3, 85.7 177.9 C 84.6 177.6, 83.5 177.1, 82.4 176.7 C 81.2 176.3, 80.1 175.9, 79.0 175.5 C 77.9 175.1, 76.8 174.7, 75.6 174.3 C 74.5 173.9, 73.3 173.5, 72.2 173.1 C 71.1 172.6, 69.9 172.2, 68.8 171.7 C 67.7 171.1, 66.6 170.5, 65.7 169.8 C 64.7 169.1, 63.7 168.3, 62.9 167.4 C 62.0 166.6, 61.2 165.7, 60.3 164.8 C 59.5 163.9, 58.8 162.9, 58.0 162.0 C 57.2 161.1, 56.4 160.2, 55.7 159.3 C 54.9 158.3, 54.1 157.4, 53.4 156.5 C 52.6 155.5, 51.9 154.6, 51.2 153.6 C 50.5 152.6, 49.8 151.6, 49.2 150.6 C 48.6 149.6, 48.0 148.6, 47.4 147.5 C 46.8 146.5, 46.3 145.4, 45.8 144.3 C 45.2 143.3, 44.7 142.2, 44.3 141.1 C 43.8 140.0, 43.3 138.9, 42.9 137.8 C 42.5 136.7, 42.1 135.6, 41.7 134.4 C 41.3 133.3, 40.9 132.2, 40.6 131.1 C 40.2 129.9, 39.9 128.8, 39.6 127.6 C 39.2 126.5, 39.0 125.3, 38.7 124.2 C 38.4 123.0, 38.2 121.9, 38.0 120.7 C 37.7 119.5, 37.5 118.3, 37.4 117.2 C 37.2 116.0, 37.1 114.8, 37.0 113.6 C 36.9 112.4, 36.8 111.2, 36.8 110.0 C 36.7 108.8, 36.7 107.6, 36.7 106.4 C 36.7 105.2, 36.8 104.0, 36.9 102.8 C 37.0 101.6, 37.1 100.4, 37.2 99.2 C 37.3 98.0, 37.5 96.8, 37.7 95.6 C 37.9 94.4, 38.2 93.2, 38.4 92.1 C 38.7 90.9, 39.0 89.7, 39.3 88.5 C 39.6 87.4, 40.0 86.2, 40.3 85.1 C 40.7 83.9, 41.1 82.8, 41.6 81.7 C 42.0 80.5, 42.5 79.4, 43.0 78.3 C 43.5 77.2, 44.0 76.1, 44.5 75.0 C 45.1 73.9, 45.7 72.9, 46.3 71.8 C 46.9 70.8, 47.5 69.7, 48.2 68.7 C 48.9 67.7, 49.6 66.7, 50.3 65.7 C 51.0 64.7, 51.7 63.8, 52.5 62.8 C 53.3 61.9, 54.1 61.0, 54.9 60.1 C 55.7 59.2, 56.6 58.3, 57.5 57.5 C 58.4 56.6, 59.3 55.8, 60.2 55.0 C 61.1 54.3, 62.1 53.5, 63.1 52.8 C 64.0 52.1, 65.0 51.4, 66.1 50.7 C 67.1 50.1, 68.1 49.5, 69.2 48.9 C 70.2 48.3, 71.3 47.7, 72.4 47.2 C 73.4 46.7, 74.5 46.2, 75.6 45.7 C 76.7 45.2, 77.8 44.7, 78.9 44.3 C 80.0 43.9, 81.2 43.5, 82.3 43.1 C 83.4 42.7, 84.5 42.3, 85.7 42.0 C 86.8 41.6, 87.9 41.3, 89.1 41.0 C 90.2 40.7, 91.4 40.5, 92.5 40.2 C 93.7 40.0, 94.8 39.8, 96.0 39.6 C 97.2 39.4, 98.3 39.2, 99.5 39.1 C 100.7 39.0, 101.8 38.9, 103.0 38.8 C 104.2 38.8, 105.3 38.7, 106.5 38.7 C 107.7 38.7, 108.8 38.8, 110.0 38.8 C 111.2 38.9, 112.3 39.0, 113.5 39.1 C 114.6 39.2, 115.8 39.3, 117.0 39.4 C 118.1 39.5, 119.3 39.6, 120.4 39.8 C 121.6 39.9, 122.7 40.0, 123.9 40.1 C 125.1 40.2, 126.2 40.3, 127.4 40.4 C 128.6 40.5, 129.8 40.6, 131.0 40.7 C 132.2 40.8, 133.4 40.9, 134.7 41.1 C 135.9 41.3, 137.1 41.5, 138.3 41.8 C 139.4 42.1, 140.6 42.5, 141.7 42.9 C 142.8 43.4, 143.9 44.0, 145.0 44.6 C 146.0 45.2, 147.0 45.9, 148.0 46.6 C 149.0 47.3, 149.9 48.1, 150.8 48.9 C 151.8 49.7, 152.7 50.5, 153.6 51.3 C 154.5 52.1, 155.4 52.8, 156.3 53.6 C 157.2 54.4, 158.1 55.2, 159.0 56.0 C 159.9 56.8, 160.8 57.5, 161.7 58.3 C 162.5 59.1, 163.4 59.9, 164.3 60.8 C 165.2 61.6, 166.1 62.4, 166.9 63.3 C 167.8 64.1, 168.6 65.0, 169.5 65.9 C 170.3 66.8, 171.1 67.7, 171.9 68.6 C 172.7 69.6, 173.5 70.5, 174.2 71.5 C 175.0 72.5, 175.7 73.5, 176.5 74.5 C 177.2 75.5, 177.9 76.5, 178.5 77.6 C 179.2 78.6, 179.8 79.7, 180.5 80.8 C 181.1 81.9, 181.7 83.0, 182.2 84.2 C 182.8 85.3, 183.3 86.5, 183.8 87.6 C 184.2 88.8, 184.7 90.0, 185.1 91.2 C 185.5 92.4, 185.9 93.6, 186.2 94.8 C 186.5 96.1, 186.8 97.3, 187.0 98.6 C 187.3 99.8, 187.4 101.1, 187.6 102.4 C 187.7 103.6, 188.0 104.9, 187.9 106.2 C 187.8 107.4, 187.3 108.7, 187.2 110.0 Z M 178.7 106.6 C 178.4 105.5, 178.3 104.4, 178.1 103.3 C 177.9 102.2, 177.6 101.1, 177.3 100.0 C 177.0 98.9, 176.6 97.9, 176.2 96.8 C 175.8 95.8, 175.3 94.8, 174.8 93.8 C 174.3 92.8, 173.7 91.8, 173.1 90.9 C 172.5 89.9, 171.8 89.0, 171.0 88.2 C 170.3 87.3, 169.5 86.5, 168.6 85.7 C 167.8 84.9, 166.9 84.2, 166.0 83.5 C 165.1 82.8, 164.2 82.2, 163.2 81.6 C 162.2 81.0, 161.3 80.4, 160.3 79.9 C 159.3 79.3, 158.3 78.8, 157.4 78.3 C 156.4 77.9, 155.5 77.4, 154.6 77.0 C 153.6 76.5, 152.7 76.1, 151.9 75.6 C 151.0 75.2, 150.2 74.8, 149.4 74.3 C 148.6 73.9, 147.8 73.4, 147.1 72.9 C 146.4 72.4, 145.7 71.9, 145.0 71.4 C 144.3 70.8, 143.7 70.3, 143.1 69.7 C 142.5 69.1, 141.9 68.5, 141.3 67.9 C 140.7 67.2, 140.1 66.5, 139.5 65.9 C 138.9 65.2, 138.3 64.5, 137.7 63.7 C 137.1 63.0, 136.5 62.3, 135.9 61.6 C 135.3 60.8, 134.6 60.1, 133.9 59.4 C 133.3 58.6, 132.6 57.9, 131.9 57.2 C 131.1 56.5, 130.4 55.8, 129.6 55.2 C 128.8 54.5, 128.0 53.9, 127.2 53.3 C 126.4 52.7, 125.5 52.1, 124.6 51.6 C 123.7 51.1, 122.8 50.6, 121.9 50.2 C 121.0 49.7, 120.0 49.3, 119.0 49.0 C 118.1 48.7, 117.1 48.4, 116.1 48.1 C 115.1 47.9, 114.1 47.7, 113.1 47.5 C 112.1 47.4, 111.0 47.2, 110.0 47.2 C 109.0 47.1, 107.9 47.1, 106.9 47.1 C 105.9 47.1, 104.8 47.1, 103.8 47.2 C 102.8 47.2, 101.7 47.3, 100.7 47.5 C 99.7 47.6, 98.7 47.8, 97.7 47.9 C 96.6 48.1, 95.6 48.3, 94.6 48.6 C 93.6 48.8, 92.6 49.1, 91.6 49.3 C 90.6 49.6, 89.6 49.9, 88.6 50.3 C 87.6 50.6, 86.7 50.9, 85.7 51.3 C 84.7 51.6, 83.7 52.0, 82.8 52.4 C 81.8 52.8, 80.8 53.2, 79.9 53.6 C 78.9 54.1, 78.0 54.5, 77.0 55.0 C 76.1 55.4, 75.1 55.9, 74.2 56.4 C 73.2 56.9, 72.3 57.4, 71.4 57.9 C 70.5 58.5, 69.5 59.0, 68.6 59.6 C 67.8 60.2, 66.9 60.8, 66.0 61.5 C 65.1 62.1, 64.3 62.8, 63.5 63.5 C 62.7 64.2, 61.9 65.0, 61.2 65.7 C 60.4 66.5, 59.7 67.4, 59.1 68.2 C 58.4 69.1, 57.8 70.0, 57.3 70.9 C 56.8 71.8, 56.3 72.8, 55.8 73.8 C 55.4 74.8, 55.0 75.8, 54.7 76.8 C 54.3 77.8, 54.0 78.9, 53.7 79.9 C 53.4 80.9, 53.2 82.0, 52.9 83.0 C 52.7 84.0, 52.4 85.0, 52.2 86.0 C 51.9 87.1, 51.7 88.0, 51.4 89.0 C 51.1 90.0, 50.8 91.0, 50.4 91.9 C 50.1 92.9, 49.7 93.8, 49.3 94.8 C 48.9 95.8, 48.5 96.7, 48.1 97.7 C 47.7 98.7, 47.3 99.6, 46.9 100.6 C 46.5 101.6, 46.2 102.7, 45.8 103.7 C 45.5 104.7, 45.2 105.8, 44.9 106.8 C 44.7 107.9, 44.5 108.9, 44.3 110.0 C 44.2 111.1, 44.1 112.2, 44.0 113.2 C 44.0 114.3, 44.0 115.4, 44.0 116.5 C 44.0 117.6, 44.1 118.7, 44.2 119.8 C 44.4 120.8, 44.5 121.9, 44.7 123.0 C 44.9 124.1, 45.1 125.1, 45.4 126.2 C 45.6 127.2, 45.9 128.3, 46.2 129.3 C 46.6 130.4, 46.9 131.4, 47.3 132.4 C 47.7 133.5, 48.1 134.5, 48.6 135.4 C 49.1 136.4, 49.6 137.4, 50.2 138.3 C 50.8 139.2, 51.4 140.1, 52.1 141.0 C 52.7 141.8, 53.4 142.7, 54.2 143.5 C 54.9 144.3, 55.6 145.1, 56.3 145.9 C 57.0 146.7, 57.7 147.5, 58.4 148.3 C 59.1 149.1, 59.7 149.9, 60.3 150.8 C 60.9 151.6, 61.5 152.5, 62.2 153.4 C 62.8 154.2, 63.4 155.1, 64.1 155.9 C 64.7 156.8, 65.4 157.6, 66.2 158.4 C 66.9 159.2, 67.7 159.9, 68.5 160.6 C 69.3 161.3, 70.1 162.0, 71.0 162.6 C 71.8 163.3, 72.7 163.9, 73.6 164.4 C 74.5 165.0, 75.4 165.6, 76.4 166.1 C 77.3 166.6, 78.2 167.1, 79.2 167.6 C 80.2 168.1, 81.1 168.6, 82.1 169.0 C 83.1 169.4, 84.1 169.9, 85.1 170.2 C 86.0 170.6, 87.1 171.0, 88.1 171.3 C 89.1 171.6, 90.1 171.9, 91.2 172.1 C 92.2 172.3, 93.3 172.5, 94.3 172.6 C 95.4 172.7, 96.4 172.8, 97.5 172.8 C 98.6 172.9, 99.6 172.8, 100.7 172.8 C 101.7 172.7, 102.8 172.6, 103.8 172.5 C 104.9 172.4, 105.9 172.3, 106.9 172.2 C 108.0 172.1, 109.0 172.0, 110.0 171.9 C 111.0 171.9, 112.0 171.9, 113.0 171.9 C 114.1 171.9, 115.1 171.9, 116.1 172.0 C 117.1 172.1, 118.2 172.2, 119.2 172.2 C 120.3 172.3, 121.4 172.4, 122.4 172.5 C 123.5 172.5, 124.6 172.6, 125.7 172.6 C 126.8 172.5, 127.8 172.5, 128.9 172.4 C 130.0 172.3, 131.1 172.2, 132.2 172.0 C 133.2 171.8, 134.3 171.5, 135.4 171.2 C 136.4 171.0, 137.5 170.6, 138.5 170.2 C 139.5 169.9, 140.5 169.4, 141.5 169.0 C 142.5 168.5, 143.5 168.0, 144.5 167.5 C 145.4 167.0, 146.4 166.4, 147.3 165.9 C 148.3 165.3, 149.2 164.7, 150.1 164.0 C 151.0 163.4, 151.9 162.7, 152.7 162.1 C 153.6 161.4, 154.5 160.7, 155.3 160.0 C 156.2 159.3, 157.0 158.6, 157.8 157.8 C 158.7 157.1, 159.5 156.3, 160.3 155.6 C 161.1 154.8, 161.9 154.0, 162.6 153.2 C 163.4 152.4, 164.2 151.6, 164.9 150.7 C 165.7 149.9, 166.4 149.0, 167.1 148.1 C 167.8 147.3, 168.4 146.3, 169.1 145.4 C 169.7 144.5, 170.4 143.6, 171.0 142.6 C 171.6 141.6, 172.1 140.6, 172.7 139.6 C 173.2 138.7, 173.7 137.6, 174.2 136.6 C 174.7 135.6, 175.2 134.5, 175.6 133.5 C 176.0 132.4, 176.4 131.3, 176.8 130.3 C 177.2 129.2, 177.5 128.1, 177.8 127.0 C 178.1 125.9, 178.4 124.8, 178.6 123.7 C 178.9 122.5, 179.1 121.4, 179.3 120.3 C 179.4 119.1, 179.6 118.0, 179.7 116.9 C 179.8 115.7, 179.8 114.6, 179.8 113.4 C 179.9 112.3, 180.0 111.1, 179.8 110.0 C 179.6 108.9, 178.9 107.7, 178.7 106.6 Z" fill="url(#tone)" fill-rule="evenodd" opacity="0.95"/>
    <path d="M 187.2 110.0 C 187.0 111.3, 187.1 112.5, 187.0 113.8 C 187.0 115.0, 186.9 116.3, 186.7 117.6 C 186.6 118.8, 186.4 120.1, 186.2 121.3 C 186.0 122.6, 185.8 123.8, 185.6 125.0 C 185.3 126.3, 185.0 127.5, 184.7 128.7 C 184.4 129.9, 184.0 131.1, 183.6 132.3 C 183.2 133.5, 182.8 134.7, 182.3 135.9 C 181.8 137.0, 181.3 138.2, 180.7 139.3 C 180.2 140.4, 179.6 141.5, 179.0 142.6 C 178.4 143.7, 177.7 144.8, 177.1 145.8 C 176.4 146.9, 175.7 147.9, 175.0 149.0 C 174.4 150.0, 173.7 151.1, 173.0 152.1 C 172.3 153.1, 171.7 154.2, 171.0 155.2 C 170.3 156.3, 169.7 157.4, 168.9 158.4 C 168.2 159.4, 167.5 160.4, 166.6 161.3 C 165.8 162.2, 164.8 163.1, 163.9 163.9 C 162.9 164.7, 161.8 165.3, 160.8 166.0 C 159.8 166.7, 158.7 167.4, 157.6 168.0 C 156.6 168.7, 155.5 169.3, 154.5 170.0 C 153.4 170.6, 152.4 171.3, 151.4 171.9 C 150.3 172.5, 149.3 173.2, 148.2 173.8 C 147.1 174.3, 146.1 174.9, 145.0 175.5 C 143.9 176.0, 142.8 176.5, 141.7 177.0 C 140.6 177.5, 139.4 177.9, 138.3 178.3 C 137.2 178.8, 136.0 179.2, 134.9 179.5 C 133.7 179.9, 132.5 180.2, 131.4 180.5 C 130.2 180.8, 129.0 181.0, 127.8 181.2 C 126.7 181.5, 125.5 181.7, 124.3 181.8 C 123.1 182.0, 121.9 182.1, 120.7 182.2 C 119.5 182.3, 118.3 182.4, 117.1 182.4 C 115.9 182.5, 114.7 182.5, 113.6 182.5 C 112.4 182.5, 111.2 182.5, 110.0 182.4 C 108.8 182.4, 107.6 182.3, 106.5 182.2 C 105.3 182.1, 104.1 182.0, 102.9 181.8 C 101.8 181.7, 100.6 181.6, 99.4 181.4 C 98.2 181.2, 97.1 181.0, 95.9 180.7 C 94.8 180.5, 93.6 180.3, 92.5 180.0 C 91.3 179.7, 90.2 179.4, 89.1 179.0 C 87.9 178.7, 86.8 178.3, 85.7 177.9 C 84.6 177.6, 83.5 177.1, 82.4 176.7 C 81.2 176.3, 80.1 175.9, 79.0 175.5 C 77.9 175.1, 76.8 174.7, 75.6 174.3 C 74.5 173.9, 73.3 173.5, 72.2 173.1 C 71.1 172.6, 69.9 172.2, 68.8 171.7 C 67.7 171.1, 66.6 170.5, 65.7 169.8 C 64.7 169.1, 63.7 168.3, 62.9 167.4 C 62.0 166.6, 61.2 165.7, 60.3 164.8 C 59.5 163.9, 58.8 162.9, 58.0 162.0 C 57.2 161.1, 56.4 160.2, 55.7 159.3 C 54.9 158.3, 54.1 157.4, 53.4 156.5 C 52.6 155.5, 51.9 154.6, 51.2 153.6 C 50.5 152.6, 49.8 151.6, 49.2 150.6 C 48.6 149.6, 48.0 148.6, 47.4 147.5 C 46.8 146.5, 46.3 145.4, 45.8 144.3 C 45.2 143.3, 44.7 142.2, 44.3 141.1 C 43.8 140.0, 43.3 138.9, 42.9 137.8 C 42.5 136.7, 42.1 135.6, 41.7 134.4 C 41.3 133.3, 40.9 132.2, 40.6 131.1 C 40.2 129.9, 39.9 128.8, 39.6 127.6 C 39.2 126.5, 39.0 125.3, 38.7 124.2 C 38.4 123.0, 38.2 121.9, 38.0 120.7 C 37.7 119.5, 37.5 118.3, 37.4 117.2 C 37.2 116.0, 37.1 114.8, 37.0 113.6 C 36.9 112.4, 36.8 111.2, 36.8 110.0 C 36.7 108.8, 36.7 107.6, 36.7 106.4 C 36.7 105.2, 36.8 104.0, 36.9 102.8 C 37.0 101.6, 37.1 100.4, 37.2 99.2 C 37.3 98.0, 37.5 96.8, 37.7 95.6 C 37.9 94.4, 38.2 93.2, 38.4 92.1 C 38.7 90.9, 39.0 89.7, 39.3 88.5 C 39.6 87.4, 40.0 86.2, 40.3 85.1 C 40.7 83.9, 41.1 82.8, 41.6 81.7 C 42.0 80.5, 42.5 79.4, 43.0 78.3 C 43.5 77.2, 44.0 76.1, 44.5 75.0 C 45.1 73.9, 45.7 72.9, 46.3 71.8 C 46.9 70.8, 47.5 69.7, 48.2 68.7 C 48.9 67.7, 49.6 66.7, 50.3 65.7 C 51.0 64.7, 51.7 63.8, 52.5 62.8 C 53.3 61.9, 54.1 61.0, 54.9 60.1 C 55.7 59.2, 56.6 58.3, 57.5 57.5 C 58.4 56.6, 59.3 55.8, 60.2 55.0 C 61.1 54.3, 62.1 53.5, 63.1 52.8 C 64.0 52.1, 65.0 51.4, 66.1 50.7 C 67.1 50.1, 68.1 49.5, 69.2 48.9 C 70.2 48.3, 71.3 47.7, 72.4 47.2 C 73.4 46.7, 74.5 46.2, 75.6 45.7 C 76.7 45.2, 77.8 44.7, 78.9 44.3 C 80.0 43.9, 81.2 43.5, 82.3 43.1 C 83.4 42.7, 84.5 42.3, 85.7 42.0 C 86.8 41.6, 87.9 41.3, 89.1 41.0 C 90.2 40.7, 91.4 40.5, 92.5 40.2 C 93.7 40.0, 94.8 39.8, 96.0 39.6 C 97.2 39.4, 98.3 39.2, 99.5 39.1 C 100.7 39.0, 101.8 38.9, 103.0 38.8 C 104.2 38.8, 105.3 38.7, 106.5 38.7 C 107.7 38.7, 108.8 38.8, 110.0 38.8 C 111.2 38.9, 112.3 39.0, 113.5 39.1 C 114.6 39.2, 115.8 39.3, 117.0 39.4 C 118.1 39.5, 119.3 39.6, 120.4 39.8 C 121.6 39.9, 122.7 40.0, 123.9 40.1 C 125.1 40.2, 126.2 40.3, 127.4 40.4 C 128.6 40.5, 129.8 40.6, 131.0 40.7 C 132.2 40.8, 133.4 40.9, 134.7 41.1 C 135.9 41.3, 137.1 41.5, 138.3 41.8 C 139.4 42.1, 140.6 42.5, 141.7 42.9 C 142.8 43.4, 143.9 44.0, 145.0 44.6 C 146.0 45.2, 147.0 45.9, 148.0 46.6 C 149.0 47.3, 149.9 48.1, 150.8 48.9 C 151.8 49.7, 152.7 50.5, 153.6 51.3 C 154.5 52.1, 155.4 52.8, 156.3 53.6 C 157.2 54.4, 158.1 55.2, 159.0 56.0 C 159.9 56.8, 160.8 57.5, 161.7 58.3 C 162.5 59.1, 163.4 59.9, 164.3 60.8 C 165.2 61.6, 166.1 62.4, 166.9 63.3 C 167.8 64.1, 168.6 65.0, 169.5 65.9 C 170.3 66.8, 171.1 67.7, 171.9 68.6 C 172.7 69.6, 173.5 70.5, 174.2 71.5 C 175.0 72.5, 175.7 73.5, 176.5 74.5 C 177.2 75.5, 177.9 76.5, 178.5 77.6 C 179.2 78.6, 179.8 79.7, 180.5 80.8 C 181.1 81.9, 181.7 83.0, 182.2 84.2 C 182.8 85.3, 183.3 86.5, 183.8 87.6 C 184.2 88.8, 184.7 90.0, 185.1 91.2 C 185.5 92.4, 185.9 93.6, 186.2 94.8 C 186.5 96.1, 186.8 97.3, 187.0 98.6 C 187.3 99.8, 187.4 101.1, 187.6 102.4 C 187.7 103.6, 188.0 104.9, 187.9 106.2 C 187.8 107.4, 187.3 108.7, 187.2 110.0 Z M 178.7 106.6 C 178.4 105.5, 178.3 104.4, 178.1 103.3 C 177.9 102.2, 177.6 101.1, 177.3 100.0 C 177.0 98.9, 176.6 97.9, 176.2 96.8 C 175.8 95.8, 175.3 94.8, 174.8 93.8 C 174.3 92.8, 173.7 91.8, 173.1 90.9 C 172.5 89.9, 171.8 89.0, 171.0 88.2 C 170.3 87.3, 169.5 86.5, 168.6 85.7 C 167.8 84.9, 166.9 84.2, 166.0 83.5 C 165.1 82.8, 164.2 82.2, 163.2 81.6 C 162.2 81.0, 161.3 80.4, 160.3 79.9 C 159.3 79.3, 158.3 78.8, 157.4 78.3 C 156.4 77.9, 155.5 77.4, 154.6 77.0 C 153.6 76.5, 152.7 76.1, 151.9 75.6 C 151.0 75.2, 150.2 74.8, 149.4 74.3 C 148.6 73.9, 147.8 73.4, 147.1 72.9 C 146.4 72.4, 145.7 71.9, 145.0 71.4 C 144.3 70.8, 143.7 70.3, 143.1 69.7 C 142.5 69.1, 141.9 68.5, 141.3 67.9 C 140.7 67.2, 140.1 66.5, 139.5 65.9 C 138.9 65.2, 138.3 64.5, 137.7 63.7 C 137.1 63.0, 136.5 62.3, 135.9 61.6 C 135.3 60.8, 134.6 60.1, 133.9 59.4 C 133.3 58.6, 132.6 57.9, 131.9 57.2 C 131.1 56.5, 130.4 55.8, 129.6 55.2 C 128.8 54.5, 128.0 53.9, 127.2 53.3 C 126.4 52.7, 125.5 52.1, 124.6 51.6 C 123.7 51.1, 122.8 50.6, 121.9 50.2 C 121.0 49.7, 120.0 49.3, 119.0 49.0 C 118.1 48.7, 117.1 48.4, 116.1 48.1 C 115.1 47.9, 114.1 47.7, 113.1 47.5 C 112.1 47.4, 111.0 47.2, 110.0 47.2 C 109.0 47.1, 107.9 47.1, 106.9 47.1 C 105.9 47.1, 104.8 47.1, 103.8 47.2 C 102.8 47.2, 101.7 47.3, 100.7 47.5 C 99.7 47.6, 98.7 47.8, 97.7 47.9 C 96.6 48.1, 95.6 48.3, 94.6 48.6 C 93.6 48.8, 92.6 49.1, 91.6 49.3 C 90.6 49.6, 89.6 49.9, 88.6 50.3 C 87.6 50.6, 86.7 50.9, 85.7 51.3 C 84.7 51.6, 83.7 52.0, 82.8 52.4 C 81.8 52.8, 80.8 53.2, 79.9 53.6 C 78.9 54.1, 78.0 54.5, 77.0 55.0 C 76.1 55.4, 75.1 55.9, 74.2 56.4 C 73.2 56.9, 72.3 57.4, 71.4 57.9 C 70.5 58.5, 69.5 59.0, 68.6 59.6 C 67.8 60.2, 66.9 60.8, 66.0 61.5 C 65.1 62.1, 64.3 62.8, 63.5 63.5 C 62.7 64.2, 61.9 65.0, 61.2 65.7 C 60.4 66.5, 59.7 67.4, 59.1 68.2 C 58.4 69.1, 57.8 70.0, 57.3 70.9 C 56.8 71.8, 56.3 72.8, 55.8 73.8 C 55.4 74.8, 55.0 75.8, 54.7 76.8 C 54.3 77.8, 54.0 78.9, 53.7 79.9 C 53.4 80.9, 53.2 82.0, 52.9 83.0 C 52.7 84.0, 52.4 85.0, 52.2 86.0 C 51.9 87.1, 51.7 88.0, 51.4 89.0 C 51.1 90.0, 50.8 91.0, 50.4 91.9 C 50.1 92.9, 49.7 93.8, 49.3 94.8 C 48.9 95.8, 48.5 96.7, 48.1 97.7 C 47.7 98.7, 47.3 99.6, 46.9 100.6 C 46.5 101.6, 46.2 102.7, 45.8 103.7 C 45.5 104.7, 45.2 105.8, 44.9 106.8 C 44.7 107.9, 44.5 108.9, 44.3 110.0 C 44.2 111.1, 44.1 112.2, 44.0 113.2 C 44.0 114.3, 44.0 115.4, 44.0 116.5 C 44.0 117.6, 44.1 118.7, 44.2 119.8 C 44.4 120.8, 44.5 121.9, 44.7 123.0 C 44.9 124.1, 45.1 125.1, 45.4 126.2 C 45.6 127.2, 45.9 128.3, 46.2 129.3 C 46.6 130.4, 46.9 131.4, 47.3 132.4 C 47.7 133.5, 48.1 134.5, 48.6 135.4 C 49.1 136.4, 49.6 137.4, 50.2 138.3 C 50.8 139.2, 51.4 140.1, 52.1 141.0 C 52.7 141.8, 53.4 142.7, 54.2 143.5 C 54.9 144.3, 55.6 145.1, 56.3 145.9 C 57.0 146.7, 57.7 147.5, 58.4 148.3 C 59.1 149.1, 59.7 149.9, 60.3 150.8 C 60.9 151.6, 61.5 152.5, 62.2 153.4 C 62.8 154.2, 63.4 155.1, 64.1 155.9 C 64.7 156.8, 65.4 157.6, 66.2 158.4 C 66.9 159.2, 67.7 159.9, 68.5 160.6 C 69.3 161.3, 70.1 162.0, 71.0 162.6 C 71.8 163.3, 72.7 163.9, 73.6 164.4 C 74.5 165.0, 75.4 165.6, 76.4 166.1 C 77.3 166.6, 78.2 167.1, 79.2 167.6 C 80.2 168.1, 81.1 168.6, 82.1 169.0 C 83.1 169.4, 84.1 169.9, 85.1 170.2 C 86.0 170.6, 87.1 171.0, 88.1 171.3 C 89.1 171.6, 90.1 171.9, 91.2 172.1 C 92.2 172.3, 93.3 172.5, 94.3 172.6 C 95.4 172.7, 96.4 172.8, 97.5 172.8 C 98.6 172.9, 99.6 172.8, 100.7 172.8 C 101.7 172.7, 102.8 172.6, 103.8 172.5 C 104.9 172.4, 105.9 172.3, 106.9 172.2 C 108.0 172.1, 109.0 172.0, 110.0 171.9 C 111.0 171.9, 112.0 171.9, 113.0 171.9 C 114.1 171.9, 115.1 171.9, 116.1 172.0 C 117.1 172.1, 118.2 172.2, 119.2 172.2 C 120.3 172.3, 121.4 172.4, 122.4 172.5 C 123.5 172.5, 124.6 172.6, 125.7 172.6 C 126.8 172.5, 127.8 172.5, 128.9 172.4 C 130.0 172.3, 131.1 172.2, 132.2 172.0 C 133.2 171.8, 134.3 171.5, 135.4 171.2 C 136.4 171.0, 137.5 170.6, 138.5 170.2 C 139.5 169.9, 140.5 169.4, 141.5 169.0 C 142.5 168.5, 143.5 168.0, 144.5 167.5 C 145.4 167.0, 146.4 166.4, 147.3 165.9 C 148.3 165.3, 149.2 164.7, 150.1 164.0 C 151.0 163.4, 151.9 162.7, 152.7 162.1 C 153.6 161.4, 154.5 160.7, 155.3 160.0 C 156.2 159.3, 157.0 158.6, 157.8 157.8 C 158.7 157.1, 159.5 156.3, 160.3 155.6 C 161.1 154.8, 161.9 154.0, 162.6 153.2 C 163.4 152.4, 164.2 151.6, 164.9 150.7 C 165.7 149.9, 166.4 149.0, 167.1 148.1 C 167.8 147.3, 168.4 146.3, 169.1 145.4 C 169.7 144.5, 170.4 143.6, 171.0 142.6 C 171.6 141.6, 172.1 140.6, 172.7 139.6 C 173.2 138.7, 173.7 137.6, 174.2 136.6 C 174.7 135.6, 175.2 134.5, 175.6 133.5 C 176.0 132.4, 176.4 131.3, 176.8 130.3 C 177.2 129.2, 177.5 128.1, 177.8 127.0 C 178.1 125.9, 178.4 124.8, 178.6 123.7 C 178.9 122.5, 179.1 121.4, 179.3 120.3 C 179.4 119.1, 179.6 118.0, 179.7 116.9 C 179.8 115.7, 179.8 114.6, 179.8 113.4 C 179.9 112.3, 180.0 111.1, 179.8 110.0 C 179.6 108.9, 178.9 107.7, 178.7 106.6 Z" fill="none" fill-rule="evenodd" stroke="#a5732f" stroke-width="0.8" opacity="0.5"/>
    <path d="M 187.2 110.0 C 187.0 111.3, 187.1 112.5, 187.0 113.8 C 187.0 115.0, 186.9 116.3, 186.7 117.6 C 186.6 118.8, 186.4 120.1, 186.2 121.3 C 186.0 122.6, 185.8 123.8, 185.6 125.0 C 185.3 126.3, 185.0 127.5, 184.7 128.7 C 184.4 129.9, 184.0 131.1, 183.6 132.3 C 183.2 133.5, 182.8 134.7, 182.3 135.9 C 181.8 137.0, 181.3 138.2, 180.7 139.3 C 180.2 140.4, 179.6 141.5, 179.0 142.6 C 178.4 143.7, 177.7 144.8, 177.1 145.8 C 176.4 146.9, 175.7 147.9, 175.0 149.0 C 174.4 150.0, 173.7 151.1, 173.0 152.1 C 172.3 153.1, 171.7 154.2, 171.0 155.2 C 170.3 156.3, 169.7 157.4, 168.9 158.4 C 168.2 159.4, 167.5 160.4, 166.6 161.3 C 165.8 162.2, 164.8 163.1, 163.9 163.9 C 162.9 164.7, 161.8 165.3, 160.8 166.0 C 159.8 166.7, 158.7 167.4, 157.6 168.0 C 156.6 168.7, 155.5 169.3, 154.5 170.0 C 153.4 170.6, 152.4 171.3, 151.4 171.9 C 150.3 172.5, 149.3 173.2, 148.2 173.8 C 147.1 174.3, 146.1 174.9, 145.0 175.5 C 143.9 176.0, 142.8 176.5, 141.7 177.0 C 140.6 177.5, 139.4 177.9, 138.3 178.3 C 137.2 178.8, 136.0 179.2, 134.9 179.5 C 133.7 179.9, 132.5 180.2, 131.4 180.5 C 130.2 180.8, 129.0 181.0, 127.8 181.2 C 126.7 181.5, 125.5 181.7, 124.3 181.8 C 123.1 182.0, 121.9 182.1, 120.7 182.2 C 119.5 182.3, 118.3 182.4, 117.1 182.4 C 115.9 182.5, 114.7 182.5, 113.6 182.5 C 112.4 182.5, 111.2 182.5, 110.0 182.4 C 108.8 182.4, 107.6 182.3, 106.5 182.2 C 105.3 182.1, 104.1 182.0, 102.9 181.8 C 101.8 181.7, 100.6 181.6, 99.4 181.4 C 98.2 181.2, 97.1 181.0, 95.9 180.7 C 94.8 180.5, 93.6 180.3, 92.5 180.0 C 91.3 179.7, 90.2 179.4, 89.1 179.0 C 87.9 178.7, 86.8 178.3, 85.7 177.9 C 84.6 177.6, 83.5 177.1, 82.4 176.7 C 81.2 176.3, 80.1 175.9, 79.0 175.5 C 77.9 175.1, 76.8 174.7, 75.6 174.3 C 74.5 173.9, 73.3 173.5, 72.2 173.1 C 71.1 172.6, 69.9 172.2, 68.8 171.7 C 67.7 171.1, 66.6 170.5, 65.7 169.8 C 64.7 169.1, 63.7 168.3, 62.9 167.4 C 62.0 166.6, 61.2 165.7, 60.3 164.8 C 59.5 163.9, 58.8 162.9, 58.0 162.0 C 57.2 161.1, 56.4 160.2, 55.7 159.3 C 54.9 158.3, 54.1 157.4, 53.4 156.5 C 52.6 155.5, 51.9 154.6, 51.2 153.6 C 50.5 152.6, 49.8 151.6, 49.2 150.6 C 48.6 149.6, 48.0 148.6, 47.4 147.5 C 46.8 146.5, 46.3 145.4, 45.8 144.3 C 45.2 143.3, 44.7 142.2, 44.3 141.1 C 43.8 140.0, 43.3 138.9, 42.9 137.8 C 42.5 136.7, 42.1 135.6, 41.7 134.4 C 41.3 133.3, 40.9 132.2, 40.6 131.1 C 40.2 129.9, 39.9 128.8, 39.6 127.6 C 39.2 126.5, 39.0 125.3, 38.7 124.2 C 38.4 123.0, 38.2 121.9, 38.0 120.7 C 37.7 119.5, 37.5 118.3, 37.4 117.2 C 37.2 116.0, 37.1 114.8, 37.0 113.6 C 36.9 112.4, 36.8 111.2, 36.8 110.0 C 36.7 108.8, 36.7 107.6, 36.7 106.4 C 36.7 105.2, 36.8 104.0, 36.9 102.8 C 37.0 101.6, 37.1 100.4, 37.2 99.2 C 37.3 98.0, 37.5 96.8, 37.7 95.6 C 37.9 94.4, 38.2 93.2, 38.4 92.1 C 38.7 90.9, 39.0 89.7, 39.3 88.5 C 39.6 87.4, 40.0 86.2, 40.3 85.1 C 40.7 83.9, 41.1 82.8, 41.6 81.7 C 42.0 80.5, 42.5 79.4, 43.0 78.3 C 43.5 77.2, 44.0 76.1, 44.5 75.0 C 45.1 73.9, 45.7 72.9, 46.3 71.8 C 46.9 70.8, 47.5 69.7, 48.2 68.7 C 48.9 67.7, 49.6 66.7, 50.3 65.7 C 51.0 64.7, 51.7 63.8, 52.5 62.8 C 53.3 61.9, 54.1 61.0, 54.9 60.1 C 55.7 59.2, 56.6 58.3, 57.5 57.5 C 58.4 56.6, 59.3 55.8, 60.2 55.0 C 61.1 54.3, 62.1 53.5, 63.1 52.8 C 64.0 52.1, 65.0 51.4, 66.1 50.7 C 67.1 50.1, 68.1 49.5, 69.2 48.9 C 70.2 48.3, 71.3 47.7, 72.4 47.2 C 73.4 46.7, 74.5 46.2, 75.6 45.7 C 76.7 45.2, 77.8 44.7, 78.9 44.3 C 80.0 43.9, 81.2 43.5, 82.3 43.1 C 83.4 42.7, 84.5 42.3, 85.7 42.0 C 86.8 41.6, 87.9 41.3, 89.1 41.0 C 90.2 40.7, 91.4 40.5, 92.5 40.2 C 93.7 40.0, 94.8 39.8, 96.0 39.6 C 97.2 39.4, 98.3 39.2, 99.5 39.1 C 100.7 39.0, 101.8 38.9, 103.0 38.8 C 104.2 38.8, 105.3 38.7, 106.5 38.7 C 107.7 38.7, 108.8 38.8, 110.0 38.8 C 111.2 38.9, 112.3 39.0, 113.5 39.1 C 114.6 39.2, 115.8 39.3, 117.0 39.4 C 118.1 39.5, 119.3 39.6, 120.4 39.8 C 121.6 39.9, 122.7 40.0, 123.9 40.1 C 125.1 40.2, 126.2 40.3, 127.4 40.4 C 128.6 40.5, 129.8 40.6, 131.0 40.7 C 132.2 40.8, 133.4 40.9, 134.7 41.1 C 135.9 41.3, 137.1 41.5, 138.3 41.8 C 139.4 42.1, 140.6 42.5, 141.7 42.9 C 142.8 43.4, 143.9 44.0, 145.0 44.6 C 146.0 45.2, 147.0 45.9, 148.0 46.6 C 149.0 47.3, 149.9 48.1, 150.8 48.9 C 151.8 49.7, 152.7 50.5, 153.6 51.3 C 154.5 52.1, 155.4 52.8, 156.3 53.6 C 157.2 54.4, 158.1 55.2, 159.0 56.0 C 159.9 56.8, 160.8 57.5, 161.7 58.3 C 162.5 59.1, 163.4 59.9, 164.3 60.8 C 165.2 61.6, 166.1 62.4, 166.9 63.3 C 167.8 64.1, 168.6 65.0, 169.5 65.9 C 170.3 66.8, 171.1 67.7, 171.9 68.6 C 172.7 69.6, 173.5 70.5, 174.2 71.5 C 175.0 72.5, 175.7 73.5, 176.5 74.5 C 177.2 75.5, 177.9 76.5, 178.5 77.6 C 179.2 78.6, 179.8 79.7, 180.5 80.8 C 181.1 81.9, 181.7 83.0, 182.2 84.2 C 182.8 85.3, 183.3 86.5, 183.8 87.6 C 184.2 88.8, 184.7 90.0, 185.1 91.2 C 185.5 92.4, 185.9 93.6, 186.2 94.8 C 186.5 96.1, 186.8 97.3, 187.0 98.6 C 187.3 99.8, 187.4 101.1, 187.6 102.4 C 187.7 103.6, 188.0 104.9, 187.9 106.2 C 187.8 107.4, 187.3 108.7, 187.2 110.0 Z M 178.7 106.6 C 178.4 105.5, 178.3 104.4, 178.1 103.3 C 177.9 102.2, 177.6 101.1, 177.3 100.0 C 177.0 98.9, 176.6 97.9, 176.2 96.8 C 175.8 95.8, 175.3 94.8, 174.8 93.8 C 174.3 92.8, 173.7 91.8, 173.1 90.9 C 172.5 89.9, 171.8 89.0, 171.0 88.2 C 170.3 87.3, 169.5 86.5, 168.6 85.7 C 167.8 84.9, 166.9 84.2, 166.0 83.5 C 165.1 82.8, 164.2 82.2, 163.2 81.6 C 162.2 81.0, 161.3 80.4, 160.3 79.9 C 159.3 79.3, 158.3 78.8, 157.4 78.3 C 156.4 77.9, 155.5 77.4, 154.6 77.0 C 153.6 76.5, 152.7 76.1, 151.9 75.6 C 151.0 75.2, 150.2 74.8, 149.4 74.3 C 148.6 73.9, 147.8 73.4, 147.1 72.9 C 146.4 72.4, 145.7 71.9, 145.0 71.4 C 144.3 70.8, 143.7 70.3, 143.1 69.7 C 142.5 69.1, 141.9 68.5, 141.3 67.9 C 140.7 67.2, 140.1 66.5, 139.5 65.9 C 138.9 65.2, 138.3 64.5, 137.7 63.7 C 137.1 63.0, 136.5 62.3, 135.9 61.6 C 135.3 60.8, 134.6 60.1, 133.9 59.4 C 133.3 58.6, 132.6 57.9, 131.9 57.2 C 131.1 56.5, 130.4 55.8, 129.6 55.2 C 128.8 54.5, 128.0 53.9, 127.2 53.3 C 126.4 52.7, 125.5 52.1, 124.6 51.6 C 123.7 51.1, 122.8 50.6, 121.9 50.2 C 121.0 49.7, 120.0 49.3, 119.0 49.0 C 118.1 48.7, 117.1 48.4, 116.1 48.1 C 115.1 47.9, 114.1 47.7, 113.1 47.5 C 112.1 47.4, 111.0 47.2, 110.0 47.2 C 109.0 47.1, 107.9 47.1, 106.9 47.1 C 105.9 47.1, 104.8 47.1, 103.8 47.2 C 102.8 47.2, 101.7 47.3, 100.7 47.5 C 99.7 47.6, 98.7 47.8, 97.7 47.9 C 96.6 48.1, 95.6 48.3, 94.6 48.6 C 93.6 48.8, 92.6 49.1, 91.6 49.3 C 90.6 49.6, 89.6 49.9, 88.6 50.3 C 87.6 50.6, 86.7 50.9, 85.7 51.3 C 84.7 51.6, 83.7 52.0, 82.8 52.4 C 81.8 52.8, 80.8 53.2, 79.9 53.6 C 78.9 54.1, 78.0 54.5, 77.0 55.0 C 76.1 55.4, 75.1 55.9, 74.2 56.4 C 73.2 56.9, 72.3 57.4, 71.4 57.9 C 70.5 58.5, 69.5 59.0, 68.6 59.6 C 67.8 60.2, 66.9 60.8, 66.0 61.5 C 65.1 62.1, 64.3 62.8, 63.5 63.5 C 62.7 64.2, 61.9 65.0, 61.2 65.7 C 60.4 66.5, 59.7 67.4, 59.1 68.2 C 58.4 69.1, 57.8 70.0, 57.3 70.9 C 56.8 71.8, 56.3 72.8, 55.8 73.8 C 55.4 74.8, 55.0 75.8, 54.7 76.8 C 54.3 77.8, 54.0 78.9, 53.7 79.9 C 53.4 80.9, 53.2 82.0, 52.9 83.0 C 52.7 84.0, 52.4 85.0, 52.2 86.0 C 51.9 87.1, 51.7 88.0, 51.4 89.0 C 51.1 90.0, 50.8 91.0, 50.4 91.9 C 50.1 92.9, 49.7 93.8, 49.3 94.8 C 48.9 95.8, 48.5 96.7, 48.1 97.7 C 47.7 98.7, 47.3 99.6, 46.9 100.6 C 46.5 101.6, 46.2 102.7, 45.8 103.7 C 45.5 104.7, 45.2 105.8, 44.9 106.8 C 44.7 107.9, 44.5 108.9, 44.3 110.0 C 44.2 111.1, 44.1 112.2, 44.0 113.2 C 44.0 114.3, 44.0 115.4, 44.0 116.5 C 44.0 117.6, 44.1 118.7, 44.2 119.8 C 44.4 120.8, 44.5 121.9, 44.7 123.0 C 44.9 124.1, 45.1 125.1, 45.4 126.2 C 45.6 127.2, 45.9 128.3, 46.2 129.3 C 46.6 130.4, 46.9 131.4, 47.3 132.4 C 47.7 133.5, 48.1 134.5, 48.6 135.4 C 49.1 136.4, 49.6 137.4, 50.2 138.3 C 50.8 139.2, 51.4 140.1, 52.1 141.0 C 52.7 141.8, 53.4 142.7, 54.2 143.5 C 54.9 144.3, 55.6 145.1, 56.3 145.9 C 57.0 146.7, 57.7 147.5, 58.4 148.3 C 59.1 149.1, 59.7 149.9, 60.3 150.8 C 60.9 151.6, 61.5 152.5, 62.2 153.4 C 62.8 154.2, 63.4 155.1, 64.1 155.9 C 64.7 156.8, 65.4 157.6, 66.2 158.4 C 66.9 159.2, 67.7 159.9, 68.5 160.6 C 69.3 161.3, 70.1 162.0, 71.0 162.6 C 71.8 163.3, 72.7 163.9, 73.6 164.4 C 74.5 165.0, 75.4 165.6, 76.4 166.1 C 77.3 166.6, 78.2 167.1, 79.2 167.6 C 80.2 168.1, 81.1 168.6, 82.1 169.0 C 83.1 169.4, 84.1 169.9, 85.1 170.2 C 86.0 170.6, 87.1 171.0, 88.1 171.3 C 89.1 171.6, 90.1 171.9, 91.2 172.1 C 92.2 172.3, 93.3 172.5, 94.3 172.6 C 95.4 172.7, 96.4 172.8, 97.5 172.8 C 98.6 172.9, 99.6 172.8, 100.7 172.8 C 101.7 172.7, 102.8 172.6, 103.8 172.5 C 104.9 172.4, 105.9 172.3, 106.9 172.2 C 108.0 172.1, 109.0 172.0, 110.0 171.9 C 111.0 171.9, 112.0 171.9, 113.0 171.9 C 114.1 171.9, 115.1 171.9, 116.1 172.0 C 117.1 172.1, 118.2 172.2, 119.2 172.2 C 120.3 172.3, 121.4 172.4, 122.4 172.5 C 123.5 172.5, 124.6 172.6, 125.7 172.6 C 126.8 172.5, 127.8 172.5, 128.9 172.4 C 130.0 172.3, 131.1 172.2, 132.2 172.0 C 133.2 171.8, 134.3 171.5, 135.4 171.2 C 136.4 171.0, 137.5 170.6, 138.5 170.2 C 139.5 169.9, 140.5 169.4, 141.5 169.0 C 142.5 168.5, 143.5 168.0, 144.5 167.5 C 145.4 167.0, 146.4 166.4, 147.3 165.9 C 148.3 165.3, 149.2 164.7, 150.1 164.0 C 151.0 163.4, 151.9 162.7, 152.7 162.1 C 153.6 161.4, 154.5 160.7, 155.3 160.0 C 156.2 159.3, 157.0 158.6, 157.8 157.8 C 158.7 157.1, 159.5 156.3, 160.3 155.6 C 161.1 154.8, 161.9 154.0, 162.6 153.2 C 163.4 152.4, 164.2 151.6, 164.9 150.7 C 165.7 149.9, 166.4 149.0, 167.1 148.1 C 167.8 147.3, 168.4 146.3, 169.1 145.4 C 169.7 144.5, 170.4 143.6, 171.0 142.6 C 171.6 141.6, 172.1 140.6, 172.7 139.6 C 173.2 138.7, 173.7 137.6, 174.2 136.6 C 174.7 135.6, 175.2 134.5, 175.6 133.5 C 176.0 132.4, 176.4 131.3, 176.8 130.3 C 177.2 129.2, 177.5 128.1, 177.8 127.0 C 178.1 125.9, 178.4 124.8, 178.6 123.7 C 178.9 122.5, 179.1 121.4, 179.3 120.3 C 179.4 119.1, 179.6 118.0, 179.7 116.9 C 179.8 115.7, 179.8 114.6, 179.8 113.4 C 179.9 112.3, 180.0 111.1, 179.8 110.0 C 179.6 108.9, 178.9 107.7, 178.7 106.6 Z" fill="#9c6a2c" fill-rule="evenodd" opacity="0.26" filter="url(#mottle)"/>
    <circle cx="59.2" cy="60.2" r="0.7" fill="#8a5a25" opacity="0.18"/><circle cx="173.3" cy="144.4" r="0.6" fill="#8a5a25" opacity="0.22"/><circle cx="43.7" cy="85.0" r="0.6" fill="#8a5a25" opacity="0.22"/><circle cx="69.0" cy="164.2" r="0.6" fill="#8a5a25" opacity="0.15"/><circle cx="75.6" cy="51.8" r="0.8" fill="#8a5a25" opacity="0.14"/><circle cx="179.3" cy="128.2" r="1.3" fill="#8a5a25" opacity="0.22"/><circle cx="42.7" cy="94.9" r="0.6" fill="#8a5a25" opacity="0.18"/><circle cx="181.8" cy="93.9" r="0.5" fill="#8a5a25" opacity="0.16"/><circle cx="75.1" cy="49.9" r="0.3" fill="#8a5a25" opacity="0.26"/><circle cx="55.5" cy="154.8" r="1.6" fill="#8a5a25" opacity="0.22"/><circle cx="43.3" cy="122.1" r="1.4" fill="#8a5a25" opacity="0.14"/><circle cx="43.0" cy="121.4" r="0.8" fill="#8a5a25" opacity="0.15"/><circle cx="183.4" cy="116.6" r="0.4" fill="#8a5a25" opacity="0.34"/><circle cx="155.7" cy="163.4" r="0.4" fill="#8a5a25" opacity="0.21"/><circle cx="174.0" cy="142.5" r="1.1" fill="#8a5a25" opacity="0.24"/><circle cx="177.9" cy="131.5" r="0.5" fill="#8a5a25" opacity="0.15"/><circle cx="73.9" cy="170.7" r="0.7" fill="#8a5a25" opacity="0.16"/><circle cx="54.0" cy="70.5" r="0.6" fill="#8a5a25" opacity="0.26"/><circle cx="137.5" cy="173.6" r="0.4" fill="#8a5a25" opacity="0.13"/><circle cx="92.4" cy="178.1" r="0.6" fill="#8a5a25" opacity="0.12"/><circle cx="49.7" cy="149.1" r="1.5" fill="#8a5a25" opacity="0.16"/><circle cx="179.9" cy="94.9" r="0.4" fill="#8a5a25" opacity="0.36"/><circle cx="179.7" cy="84.5" r="0.7" fill="#8a5a25" opacity="0.33"/><circle cx="65.3" cy="59.1" r="0.7" fill="#8a5a25" opacity="0.23"/><circle cx="40.6" cy="116.4" r="0.8" fill="#8a5a25" opacity="0.15"/><circle cx="113.1" cy="43.3" r="0.7" fill="#8a5a25" opacity="0.25"/><circle cx="176.0" cy="140.6" r="1.2" fill="#8a5a25" opacity="0.18"/><circle cx="86.0" cy="174.5" r="0.4" fill="#8a5a25" opacity="0.22"/><circle cx="42.2" cy="122.0" r="0.6" fill="#8a5a25" opacity="0.20"/><circle cx="105.3" cy="176.9" r="0.5" fill="#8a5a25" opacity="0.15"/><circle cx="87.1" cy="176.7" r="1.1" fill="#8a5a25" opacity="0.17"/><circle cx="176.6" cy="137.1" r="1.6" fill="#8a5a25" opacity="0.18"/><circle cx="78.8" cy="50.2" r="0.5" fill="#8a5a25" opacity="0.31"/><circle cx="55.0" cy="149.2" r="0.3" fill="#8a5a25" opacity="0.17"/><circle cx="59.3" cy="159.2" r="0.9" fill="#8a5a25" opacity="0.16"/><circle cx="107.2" cy="177.3" r="0.4" fill="#8a5a25" opacity="0.17"/><circle cx="178.5" cy="133.8" r="0.4" fill="#8a5a25" opacity="0.14"/><circle cx="63.2" cy="54.5" r="0.5" fill="#8a5a25" opacity="0.14"/><circle cx="178.2" cy="138.8" r="1.4" fill="#8a5a25" opacity="0.19"/><circle cx="186.2" cy="109.4" r="0.4" fill="#8a5a25" opacity="0.35"/><circle cx="124.6" cy="177.5" r="0.7" fill="#8a5a25" opacity="0.17"/><circle cx="133.1" cy="47.1" r="0.3" fill="#8a5a25" opacity="0.24"/><circle cx="158.9" cy="163.4" r="0.5" fill="#8a5a25" opacity="0.15"/><circle cx="54.7" cy="155.4" r="1.2" fill="#8a5a25" opacity="0.16"/><circle cx="146.8" cy="54.8" r="2.0" fill="#7a4a1c" opacity="0.48"/><circle cx="162.5" cy="67.3" r="1.9" fill="#7a4a1c" opacity="0.44"/><circle cx="134.8" cy="49.3" r="1.5" fill="#7a4a1c" opacity="0.34"/>
  </g>

  <g filter="url(#wick)">
    <path d="M 52.2 36.2 C 52.3 37.2, 51.7 38.3, 51.2 39.1 C 50.7 39.9, 49.8 40.6, 49.1 41.2 C 48.4 41.9, 47.8 42.4, 47.2 43.0 C 46.6 43.6, 46.1 44.3, 45.4 44.7 C 44.7 45.1, 43.9 45.4, 43.1 45.5 C 42.3 45.6, 41.4 45.3, 40.6 45.2 C 39.9 45.2, 39.3 44.9, 38.5 45.1 C 37.7 45.2, 36.9 45.6, 35.9 45.8 C 34.9 46.1, 33.6 46.6, 32.5 46.4 C 31.5 46.3, 30.3 45.8, 29.7 45.0 C 29.1 44.2, 29.0 42.8, 29.1 41.7 C 29.2 40.7, 29.9 39.4, 30.3 38.5 C 30.6 37.6, 31.1 37.0, 31.2 36.2 C 31.3 35.5, 30.9 34.9, 30.8 34.1 C 30.7 33.3, 30.4 32.3, 30.5 31.5 C 30.6 30.7, 31.0 29.8, 31.5 29.1 C 32.0 28.4, 32.8 27.9, 33.4 27.4 C 34.1 26.8, 34.8 26.4, 35.6 25.9 C 36.4 25.4, 37.2 24.7, 38.1 24.4 C 39.0 24.1, 40.1 23.9, 41.0 24.2 C 41.9 24.5, 42.8 25.4, 43.4 26.2 C 43.9 27.0, 44.1 28.3, 44.5 29.1 C 44.8 29.9, 44.9 30.6, 45.4 31.1 C 45.9 31.5, 46.8 31.6, 47.7 32.0 C 48.5 32.4, 49.9 32.8, 50.7 33.5 C 51.4 34.2, 52.1 35.3, 52.2 36.2 Z" fill="url(#tone)" opacity="0.88"/>
    <path d="M 52.2 36.2 C 52.3 37.2, 51.7 38.3, 51.2 39.1 C 50.7 39.9, 49.8 40.6, 49.1 41.2 C 48.4 41.9, 47.8 42.4, 47.2 43.0 C 46.6 43.6, 46.1 44.3, 45.4 44.7 C 44.7 45.1, 43.9 45.4, 43.1 45.5 C 42.3 45.6, 41.4 45.3, 40.6 45.2 C 39.9 45.2, 39.3 44.9, 38.5 45.1 C 37.7 45.2, 36.9 45.6, 35.9 45.8 C 34.9 46.1, 33.6 46.6, 32.5 46.4 C 31.5 46.3, 30.3 45.8, 29.7 45.0 C 29.1 44.2, 29.0 42.8, 29.1 41.7 C 29.2 40.7, 29.9 39.4, 30.3 38.5 C 30.6 37.6, 31.1 37.0, 31.2 36.2 C 31.3 35.5, 30.9 34.9, 30.8 34.1 C 30.7 33.3, 30.4 32.3, 30.5 31.5 C 30.6 30.7, 31.0 29.8, 31.5 29.1 C 32.0 28.4, 32.8 27.9, 33.4 27.4 C 34.1 26.8, 34.8 26.4, 35.6 25.9 C 36.4 25.4, 37.2 24.7, 38.1 24.4 C 39.0 24.1, 40.1 23.9, 41.0 24.2 C 41.9 24.5, 42.8 25.4, 43.4 26.2 C 43.9 27.0, 44.1 28.3, 44.5 29.1 C 44.8 29.9, 44.9 30.6, 45.4 31.1 C 45.9 31.5, 46.8 31.6, 47.7 32.0 C 48.5 32.4, 49.9 32.8, 50.7 33.5 C 51.4 34.2, 52.1 35.3, 52.2 36.2 Z" fill="none" stroke="#a5732f" stroke-width="0.8" opacity="0.5"/>
    <path d="M 52.2 36.2 C 52.3 37.2, 51.7 38.3, 51.2 39.1 C 50.7 39.9, 49.8 40.6, 49.1 41.2 C 48.4 41.9, 47.8 42.4, 47.2 43.0 C 46.6 43.6, 46.1 44.3, 45.4 44.7 C 44.7 45.1, 43.9 45.4, 43.1 45.5 C 42.3 45.6, 41.4 45.3, 40.6 45.2 C 39.9 45.2, 39.3 44.9, 38.5 45.1 C 37.7 45.2, 36.9 45.6, 35.9 45.8 C 34.9 46.1, 33.6 46.6, 32.5 46.4 C 31.5 46.3, 30.3 45.8, 29.7 45.0 C 29.1 44.2, 29.0 42.8, 29.1 41.7 C 29.2 40.7, 29.9 39.4, 30.3 38.5 C 30.6 37.6, 31.1 37.0, 31.2 36.2 C 31.3 35.5, 30.9 34.9, 30.8 34.1 C 30.7 33.3, 30.4 32.3, 30.5 31.5 C 30.6 30.7, 31.0 29.8, 31.5 29.1 C 32.0 28.4, 32.8 27.9, 33.4 27.4 C 34.1 26.8, 34.8 26.4, 35.6 25.9 C 36.4 25.4, 37.2 24.7, 38.1 24.4 C 39.0 24.1, 40.1 23.9, 41.0 24.2 C 41.9 24.5, 42.8 25.4, 43.4 26.2 C 43.9 27.0, 44.1 28.3, 44.5 29.1 C 44.8 29.9, 44.9 30.6, 45.4 31.1 C 45.9 31.5, 46.8 31.6, 47.7 32.0 C 48.5 32.4, 49.9 32.8, 50.7 33.5 C 51.4 34.2, 52.1 35.3, 52.2 36.2 Z" fill="#9c6a2c" opacity="0.26" filter="url(#mottle)"/>
    <circle cx="36.2" cy="37.4" r="1.7" fill="#7a4a1c" opacity="0.4"/>
    <circle cx="42.2" cy="33.6" r="1.2" fill="#7a4a1c" opacity="0.3"/>
  </g>
</svg>
