<svg xmlns="http://www.w3.org/2000/svg" viewBox="0 0 220 220" width="220" height="220">
  <defs>
    <!-- Translucent amber, deeper toward the outside where the edge pinned. -->
    <radialGradient id="tone" cx="50%" cy="50%" r="50%">
      <stop offset="0%" stop-color="#d6a86a"/>
      <stop offset="70%" stop-color="#c69355"/>
      <stop offset="88%" stop-color="#b8823f"/>
      <stop offset="100%" stop-color="#a97331"/>
    </radialGradient>

    <!-- softened, so the slits read as breaks in the drying rim, not drawn lines -->
    <filter id="soften"><feGaussianBlur stdDeviation="0.75"/></filter>
    <mask id="ring-mask">
      <rect width="220" height="220" fill="#fff"/>
      <g filter="url(#soften)"><path d="M 121.8 48.0 L 123.8 48.3 L 125.9 48.6 L 127.9 49.1 L 129.9 49.5 L 131.9 50.1 L 133.9 50.7 L 135.9 51.4 L 137.9 52.1 L 139.9 52.8 L 141.9 53.6 L 143.8 54.5 L 145.8 55.4 L 147.7 56.4 L 149.6 57.4 L 151.5 58.5 L 153.3 59.7 L 155.1 60.9 L 156.9 62.2 L 158.6 63.6 L 160.2 65.1 L 161.8 66.6 L 163.3 68.3 L 164.8 69.9 L 166.2 71.7 L 167.5 73.5 L 168.7 75.4" stroke="#000" stroke-width="2.4" fill="none" stroke-linecap="round"/><path d="M 53.5 74.7 L 54.4 73.4 L 55.3 72.2 L 56.3 71.0 L 57.2 69.8 L 58.2 68.7 L 59.2 67.5 L 60.3 66.4 L 61.3 65.3 L 62.4 64.2 L 63.5 63.1 L 64.6 62.1 L 65.7 61.1 L 66.9 60.1 L 68.1 59.1 L 69.3 58.2 L 70.5 57.3 L 71.8 56.5 L 73.1 55.7 L 74.4 54.9 L 75.7 54.1 L 77.0 53.4 L 78.4 52.8 L 79.8 52.1 L 81.2 51.6 L 82.6 51.0 L 84.0 50.5" stroke="#000" stroke-width="2" fill="none" stroke-linecap="round"/><path d="M 177.1 120.1 L 176.8 121.9 L 176.5 123.8 L 176.2 125.5 L 175.8 127.3 L 175.3 129.1 L 174.8 130.9 L 174.3 132.6 L 173.7 134.4 L 173.1 136.1 L 172.5 137.8 L 171.7 139.5 L 171.0 141.2 L 170.2 142.9 L 169.3 144.5 L 168.4 146.1 L 167.4 147.7 L 166.4 149.2 L 165.3 150.7 L 164.2 152.2 L 163.0 153.6 L 161.7 154.9 L 160.4 156.2 L 159.0 157.5 L 157.7 158.7 L 156.2 159.8 L 154.7 160.9" stroke="#000" stroke-width="1.9" fill="none" stroke-linecap="round"/><path d="M 98.3 174.7 L 97.7 174.5 L 97.0 174.4 L 96.4 174.3 L 95.8 174.2 L 95.2 174.0 L 94.6 173.9 L 94.0 173.7 L 93.4 173.6 L 92.7 173.4 L 92.1 173.2 L 91.5 173.1 L 90.9 172.9 L 90.3 172.7 L 89.7 172.5 L 89.1 172.4 L 88.5 172.2 L 87.9 172.0 L 87.3 171.8 L 86.7 171.5 L 86.1 171.3 L 85.5 171.1 L 84.9 170.9 L 84.3 170.6 L 83.8 170.4 L 83.2 170.2 L 82.6 169.9" stroke="#000" stroke-width="1.1" fill="none" stroke-linecap="round"/></g>
    </mask>

    <!-- the wicking edge of a dried liquid is never smooth -->
    <filter id="wick" x="-12%" y="-12%" width="124%" height="124%">
      <feTurbulence type="fractalNoise" baseFrequency="0.06" numOctaves="4" seed="13" result="n"/>
      <feDisplacementMap in="SourceGraphic" in2="n" scale="2.6" xChannelSelector="R" yChannelSelector="G"/>
    </filter>

    <!-- granular blotching within the rim -->
    <filter id="mottle" x="-12%" y="-12%" width="124%" height="124%">
      <feTurbulence type="fractalNoise" baseFrequency="0.12" numOctaves="3" seed="6" result="n"/>
      <feColorMatrix type="saturate" values="0" in="n" result="g"/>
      <feComponentTransfer in="g" result="a"><feFuncA type="linear" slope="0.45"/></feComponentTransfer>
      <feComposite in="a" in2="SourceGraphic" operator="in"/>
    </filter>
  </defs>

  <!-- the faintest film the cup sat in -->
  <circle cx="110" cy="110" r="60" fill="#d9b177" opacity="0.05"/>

  <g mask="url(#ring-mask)" filter="url(#wick)">
    <path d="M 181.0 110.0 C 181.0 111.2, 180.9 112.3, 180.9 113.5 C 180.8 114.6, 180.7 115.8, 180.6 117.0 C 180.5 118.1, 180.3 119.3, 180.1 120.4 C 179.9 121.5, 179.7 122.7, 179.4 123.8 C 179.2 124.9, 178.9 126.1, 178.6 127.2 C 178.4 128.3, 178.0 129.4, 177.7 130.5 C 177.4 131.6, 177.0 132.8, 176.7 133.9 C 176.3 134.9, 175.9 136.0, 175.5 137.1 C 175.1 138.2, 174.6 139.3, 174.2 140.3 C 173.7 141.4, 173.2 142.5, 172.7 143.5 C 172.2 144.5, 171.6 145.6, 171.0 146.6 C 170.5 147.6, 169.8 148.6, 169.2 149.6 C 168.6 150.5, 167.9 151.5, 167.2 152.4 C 166.5 153.3, 165.8 154.3, 165.0 155.1 C 164.2 156.0, 163.5 156.9, 162.7 157.7 C 161.8 158.6, 161.0 159.4, 160.2 160.2 C 159.3 161.0, 158.4 161.7, 157.5 162.5 C 156.7 163.2, 155.7 163.9, 154.8 164.6 C 153.9 165.3, 152.9 166.0, 152.0 166.6 C 151.0 167.2, 150.0 167.8, 149.0 168.4 C 148.1 169.0, 147.0 169.6, 146.0 170.1 C 145.0 170.6, 144.0 171.2, 142.9 171.6 C 141.9 172.1, 140.9 172.6, 139.8 173.0 C 138.7 173.4, 137.7 173.8, 136.6 174.2 C 135.5 174.6, 134.4 174.9, 133.3 175.2 C 132.2 175.5, 131.2 175.8, 130.1 176.1 C 129.0 176.4, 127.8 176.6, 126.7 176.8 C 125.6 177.1, 124.5 177.3, 123.4 177.4 C 122.3 177.6, 121.2 177.7, 120.1 177.9 C 118.9 178.0, 117.8 178.1, 116.7 178.1 C 115.6 178.2, 114.5 178.2, 113.4 178.3 C 112.2 178.3, 111.1 178.3, 110.0 178.2 C 108.9 178.2, 107.8 178.1, 106.7 178.1 C 105.5 178.0, 104.4 177.9, 103.3 177.7 C 102.2 177.6, 101.1 177.5, 100.0 177.3 C 98.9 177.2, 97.8 177.0, 96.7 176.8 C 95.6 176.6, 94.5 176.5, 93.4 176.3 C 92.3 176.2, 91.1 176.1, 90.0 175.9 C 88.8 175.8, 87.7 175.8, 86.5 175.7 C 85.3 175.6, 84.1 175.5, 82.9 175.3 C 81.8 175.2, 80.6 175.0, 79.4 174.6 C 78.3 174.3, 77.2 173.8, 76.2 173.2 C 75.2 172.6, 74.3 171.8, 73.4 171.0 C 72.5 170.2, 71.8 169.3, 71.0 168.4 C 70.2 167.5, 69.5 166.5, 68.8 165.6 C 68.0 164.7, 67.3 163.8, 66.6 162.9 C 65.9 162.0, 65.1 161.2, 64.4 160.3 C 63.7 159.5, 62.9 158.7, 62.2 157.8 C 61.4 157.0, 60.7 156.2, 59.9 155.4 C 59.2 154.5, 58.5 153.7, 57.8 152.9 C 57.0 152.0, 56.3 151.2, 55.6 150.3 C 54.9 149.5, 54.2 148.6, 53.6 147.7 C 52.9 146.8, 52.2 145.9, 51.6 145.0 C 51.0 144.1, 50.3 143.2, 49.7 142.2 C 49.1 141.3, 48.6 140.3, 48.0 139.3 C 47.5 138.3, 46.9 137.3, 46.4 136.3 C 45.9 135.3, 45.5 134.3, 45.0 133.2 C 44.6 132.2, 44.2 131.2, 43.8 130.1 C 43.4 129.0, 43.0 127.9, 42.7 126.9 C 42.4 125.8, 42.1 124.7, 41.8 123.6 C 41.5 122.5, 41.3 121.3, 41.1 120.2 C 40.8 119.1, 40.6 118.0, 40.5 116.8 C 40.3 115.7, 40.2 114.6, 40.0 113.4 C 39.9 112.3, 39.9 111.1, 39.8 110.0 C 39.7 108.9, 39.7 107.7, 39.7 106.5 C 39.7 105.4, 39.8 104.2, 39.9 103.1 C 39.9 101.9, 40.0 100.8, 40.1 99.6 C 40.2 98.5, 40.3 97.3, 40.4 96.2 C 40.5 95.0, 40.6 93.8, 40.7 92.7 C 40.9 91.5, 41.0 90.3, 41.3 89.1 C 41.5 88.0, 41.8 86.8, 42.2 85.7 C 42.6 84.6, 43.1 83.6, 43.7 82.5 C 44.3 81.5, 45.0 80.5, 45.7 79.6 C 46.4 78.6, 47.2 77.7, 47.9 76.8 C 48.7 75.9, 49.4 75.0, 50.2 74.2 C 50.9 73.3, 51.7 72.4, 52.4 71.5 C 53.2 70.7, 53.9 69.8, 54.7 69.0 C 55.5 68.2, 56.2 67.3, 57.0 66.5 C 57.8 65.7, 58.6 64.9, 59.4 64.2 C 60.3 63.4, 61.1 62.7, 61.9 61.9 C 62.8 61.2, 63.6 60.5, 64.5 59.8 C 65.4 59.1, 66.3 58.5, 67.2 57.8 C 68.1 57.1, 69.0 56.5, 69.9 55.9 C 70.8 55.3, 71.7 54.7, 72.7 54.1 C 73.6 53.6, 74.6 53.0, 75.6 52.5 C 76.5 52.0, 77.5 51.5, 78.5 51.1 C 79.5 50.6, 80.5 50.2, 81.5 49.8 C 82.5 49.4, 83.6 49.0, 84.6 48.7 C 85.6 48.3, 86.7 48.0, 87.7 47.7 C 88.7 47.4, 89.8 47.1, 90.8 46.8 C 91.9 46.6, 92.9 46.3, 94.0 46.1 C 95.1 45.9, 96.1 45.7, 97.2 45.5 C 98.2 45.3, 99.3 45.1, 100.4 45.0 C 101.4 44.8, 102.5 44.6, 103.6 44.5 C 104.6 44.4, 105.7 44.3, 106.8 44.2 C 107.8 44.1, 108.9 44.0, 110.0 44.0 C 111.1 44.0, 112.2 43.9, 113.2 44.0 C 114.3 44.0, 115.4 44.0, 116.5 44.1 C 117.6 44.2, 118.7 44.3, 119.7 44.4 C 120.8 44.6, 121.9 44.8, 122.9 45.0 C 124.0 45.2, 125.1 45.4, 126.1 45.7 C 127.2 46.0, 128.2 46.3, 129.2 46.6 C 130.3 46.9, 131.3 47.2, 132.3 47.6 C 133.3 48.0, 134.4 48.3, 135.4 48.7 C 136.4 49.1, 137.4 49.5, 138.4 50.0 C 139.4 50.4, 140.4 50.8, 141.4 51.3 C 142.4 51.8, 143.4 52.2, 144.3 52.7 C 145.3 53.2, 146.3 53.7, 147.3 54.3 C 148.2 54.8, 149.2 55.3, 150.1 55.9 C 151.1 56.5, 152.0 57.1, 152.9 57.7 C 153.8 58.3, 154.8 59.0, 155.6 59.6 C 156.5 60.3, 157.4 61.0, 158.3 61.7 C 159.1 62.5, 160.0 63.2, 160.8 64.0 C 161.6 64.7, 162.4 65.5, 163.2 66.3 C 164.0 67.2, 164.7 68.0, 165.5 68.9 C 166.2 69.7, 166.9 70.6, 167.7 71.5 C 168.4 72.4, 169.1 73.3, 169.8 74.2 C 170.5 75.1, 171.3 75.9, 172.0 76.9 C 172.7 77.8, 173.5 78.7, 174.2 79.6 C 174.9 80.6, 175.5 81.6, 176.1 82.6 C 176.6 83.7, 177.0 84.8, 177.3 85.9 C 177.6 87.0, 177.8 88.2, 178.0 89.4 C 178.2 90.5, 178.4 91.7, 178.6 92.8 C 178.8 94.0, 179.0 95.1, 179.2 96.2 C 179.4 97.4, 179.7 98.5, 179.9 99.6 C 180.1 100.8, 180.2 101.9, 180.4 103.1 C 180.5 104.2, 180.7 105.4, 180.8 106.5 C 180.9 107.7, 180.9 108.8, 181.0 110.0 Z M 175.8 106.8 C 175.7 105.7, 175.7 104.6, 175.6 103.5 C 175.4 102.5, 175.3 101.4, 175.1 100.3 C 174.9 99.3, 174.7 98.2, 174.5 97.2 C 174.3 96.1, 174.0 95.1, 173.7 94.1 C 173.4 93.0, 173.0 92.0, 172.7 91.0 C 172.3 90.0, 171.9 89.0, 171.5 88.0 C 171.1 87.0, 170.7 86.0, 170.2 85.1 C 169.7 84.1, 169.2 83.2, 168.6 82.3 C 168.1 81.4, 167.5 80.5, 166.8 79.6 C 166.2 78.8, 165.5 77.9, 164.8 77.1 C 164.1 76.3, 163.4 75.6, 162.6 74.8 C 161.9 74.1, 161.1 73.4, 160.4 72.6 C 159.7 71.9, 159.0 71.1, 158.3 70.4 C 157.6 69.6, 156.9 68.9, 156.2 68.1 C 155.5 67.3, 154.9 66.6, 154.2 65.8 C 153.5 65.0, 152.8 64.3, 152.1 63.5 C 151.4 62.8, 150.6 62.1, 149.8 61.5 C 149.1 60.8, 148.2 60.2, 147.4 59.6 C 146.6 59.0, 145.7 58.4, 144.8 57.9 C 143.9 57.4, 143.0 56.9, 142.1 56.4 C 141.2 56.0, 140.3 55.5, 139.3 55.1 C 138.4 54.7, 137.5 54.3, 136.5 53.9 C 135.6 53.5, 134.6 53.2, 133.7 52.9 C 132.7 52.5, 131.7 52.2, 130.8 51.9 C 129.8 51.6, 128.8 51.4, 127.9 51.1 C 126.9 50.9, 125.9 50.7, 124.9 50.5 C 123.9 50.4, 122.9 50.2, 121.9 50.1 C 120.9 50.0, 119.9 50.0, 118.9 50.0 C 117.9 50.0, 116.9 50.0, 115.9 50.1 C 114.9 50.2, 113.9 50.4, 112.9 50.6 C 111.9 50.7, 111.0 51.0, 110.0 51.2 C 109.0 51.4, 108.1 51.6, 107.1 51.8 C 106.2 52.0, 105.3 52.2, 104.3 52.3 C 103.4 52.4, 102.4 52.5, 101.5 52.6 C 100.5 52.7, 99.6 52.7, 98.6 52.7 C 97.6 52.7, 96.6 52.7, 95.7 52.8 C 94.7 52.8, 93.7 52.8, 92.7 52.9 C 91.7 53.0, 90.7 53.1, 89.7 53.3 C 88.7 53.5, 87.8 53.7, 86.8 54.0 C 85.9 54.3, 84.9 54.6, 84.0 55.0 C 83.1 55.4, 82.1 55.8, 81.2 56.2 C 80.3 56.6, 79.4 57.1, 78.6 57.6 C 77.7 58.1, 76.8 58.6, 76.0 59.1 C 75.1 59.6, 74.3 60.2, 73.5 60.8 C 72.7 61.4, 71.9 62.0, 71.1 62.6 C 70.3 63.2, 69.5 63.9, 68.8 64.5 C 68.0 65.2, 67.3 65.8, 66.5 66.5 C 65.8 67.2, 65.1 67.9, 64.3 68.6 C 63.6 69.3, 62.9 70.1, 62.2 70.8 C 61.5 71.5, 60.8 72.3, 60.1 73.0 C 59.5 73.8, 58.8 74.5, 58.1 75.3 C 57.5 76.1, 56.8 76.9, 56.2 77.7 C 55.5 78.5, 54.9 79.4, 54.3 80.2 C 53.7 81.1, 53.1 81.9, 52.5 82.8 C 52.0 83.7, 51.4 84.6, 50.9 85.5 C 50.4 86.5, 49.9 87.4, 49.5 88.4 C 49.1 89.3, 48.7 90.3, 48.3 91.3 C 48.0 92.3, 47.6 93.3, 47.4 94.3 C 47.1 95.3, 46.8 96.4, 46.6 97.4 C 46.4 98.4, 46.2 99.5, 46.1 100.5 C 46.0 101.6, 45.9 102.6, 45.8 103.7 C 45.7 104.7, 45.6 105.8, 45.6 106.8 C 45.6 107.9, 45.6 108.9, 45.7 110.0 C 45.7 111.1, 45.8 112.1, 45.9 113.2 C 46.0 114.2, 46.1 115.2, 46.3 116.3 C 46.5 117.3, 46.7 118.3, 46.9 119.4 C 47.2 120.4, 47.5 121.4, 47.8 122.4 C 48.2 123.4, 48.5 124.3, 49.0 125.3 C 49.4 126.2, 49.9 127.2, 50.5 128.1 C 51.0 129.0, 51.6 129.8, 52.2 130.7 C 52.9 131.5, 53.6 132.3, 54.3 133.1 C 55.0 133.8, 55.8 134.6, 56.6 135.2 C 57.4 135.9, 58.3 136.6, 59.1 137.2 C 60.0 137.8, 60.9 138.4, 61.7 138.9 C 62.6 139.5, 63.5 140.0, 64.3 140.5 C 65.2 141.0, 66.1 141.5, 66.9 142.0 C 67.7 142.4, 68.6 142.9, 69.3 143.4 C 70.1 143.9, 70.9 144.3, 71.6 144.8 C 72.3 145.3, 73.0 145.8, 73.6 146.4 C 74.3 146.9, 74.9 147.5, 75.5 148.1 C 76.1 148.7, 76.6 149.3, 77.2 150.0 C 77.7 150.7, 78.3 151.4, 78.8 152.1 C 79.3 152.8, 79.9 153.5, 80.4 154.3 C 81.0 155.0, 81.5 155.8, 82.1 156.5 C 82.7 157.3, 83.3 158.1, 83.9 158.8 C 84.5 159.5, 85.2 160.3, 85.9 161.0 C 86.6 161.7, 87.3 162.3, 88.1 163.0 C 88.8 163.6, 89.6 164.2, 90.4 164.8 C 91.2 165.3, 92.1 165.8, 92.9 166.3 C 93.8 166.8, 94.7 167.2, 95.6 167.6 C 96.5 168.0, 97.4 168.3, 98.3 168.6 C 99.3 169.0, 100.2 169.2, 101.2 169.5 C 102.1 169.7, 103.1 169.9, 104.1 170.1 C 105.1 170.3, 106.0 170.4, 107.0 170.5 C 108.0 170.6, 109.0 170.7, 110.0 170.7 C 111.0 170.7, 112.0 170.7, 113.0 170.6 C 114.0 170.5, 115.0 170.4, 115.9 170.2 C 116.9 170.1, 117.9 169.8, 118.8 169.6 C 119.8 169.3, 120.7 169.0, 121.7 168.7 C 122.6 168.3, 123.5 168.0, 124.4 167.6 C 125.3 167.3, 126.2 166.9, 127.1 166.5 C 128.1 166.2, 128.9 165.8, 129.9 165.5 C 130.8 165.2, 131.7 164.9, 132.6 164.7 C 133.6 164.4, 134.5 164.2, 135.5 164.0 C 136.5 163.7, 137.5 163.6, 138.5 163.4 C 139.5 163.2, 140.6 163.0, 141.6 162.8 C 142.7 162.5, 143.7 162.3, 144.8 162.0 C 145.8 161.8, 146.9 161.4, 147.9 161.1 C 148.9 160.7, 149.9 160.3, 150.9 159.9 C 151.9 159.4, 152.9 158.9, 153.8 158.3 C 154.7 157.7, 155.6 157.1, 156.5 156.5 C 157.3 155.8, 158.2 155.1, 159.0 154.4 C 159.8 153.6, 160.5 152.9, 161.2 152.1 C 162.0 151.2, 162.7 150.4, 163.3 149.5 C 164.0 148.7, 164.6 147.8, 165.2 146.9 C 165.8 146.0, 166.3 145.0, 166.9 144.1 C 167.4 143.2, 167.9 142.2, 168.4 141.2 C 168.9 140.3, 169.4 139.3, 169.8 138.3 C 170.2 137.3, 170.6 136.3, 171.0 135.3 C 171.4 134.3, 171.8 133.3, 172.1 132.2 C 172.5 131.2, 172.8 130.2, 173.1 129.1 C 173.4 128.1, 173.7 127.1, 173.9 126.0 C 174.2 125.0, 174.4 123.9, 174.6 122.8 C 174.8 121.8, 175.0 120.7, 175.1 119.7 C 175.3 118.6, 175.4 117.5, 175.5 116.5 C 175.6 115.4, 175.7 114.3, 175.7 113.2 C 175.8 112.2, 175.8 111.1, 175.8 110.0 C 175.8 108.9, 175.8 107.8, 175.8 106.8 Z" fill="url(#tone)" fill-rule="evenodd" opacity="0.95"/>
    <path d="M 181.0 110.0 C 181.0 111.2, 180.9 112.3, 180.9 113.5 C 180.8 114.6, 180.7 115.8, 180.6 117.0 C 180.5 118.1, 180.3 119.3, 180.1 120.4 C 179.9 121.5, 179.7 122.7, 179.4 123.8 C 179.2 124.9, 178.9 126.1, 178.6 127.2 C 178.4 128.3, 178.0 129.4, 177.7 130.5 C 177.4 131.6, 177.0 132.8, 176.7 133.9 C 176.3 134.9, 175.9 136.0, 175.5 137.1 C 175.1 138.2, 174.6 139.3, 174.2 140.3 C 173.7 141.4, 173.2 142.5, 172.7 143.5 C 172.2 144.5, 171.6 145.6, 171.0 146.6 C 170.5 147.6, 169.8 148.6, 169.2 149.6 C 168.6 150.5, 167.9 151.5, 167.2 152.4 C 166.5 153.3, 165.8 154.3, 165.0 155.1 C 164.2 156.0, 163.5 156.9, 162.7 157.7 C 161.8 158.6, 161.0 159.4, 160.2 160.2 C 159.3 161.0, 158.4 161.7, 157.5 162.5 C 156.7 163.2, 155.7 163.9, 154.8 164.6 C 153.9 165.3, 152.9 166.0, 152.0 166.6 C 151.0 167.2, 150.0 167.8, 149.0 168.4 C 148.1 169.0, 147.0 169.6, 146.0 170.1 C 145.0 170.6, 144.0 171.2, 142.9 171.6 C 141.9 172.1, 140.9 172.6, 139.8 173.0 C 138.7 173.4, 137.7 173.8, 136.6 174.2 C 135.5 174.6, 134.4 174.9, 133.3 175.2 C 132.2 175.5, 131.2 175.8, 130.1 176.1 C 129.0 176.4, 127.8 176.6, 126.7 176.8 C 125.6 177.1, 124.5 177.3, 123.4 177.4 C 122.3 177.6, 121.2 177.7, 120.1 177.9 C 118.9 178.0, 117.8 178.1, 116.7 178.1 C 115.6 178.2, 114.5 178.2, 113.4 178.3 C 112.2 178.3, 111.1 178.3, 110.0 178.2 C 108.9 178.2, 107.8 178.1, 106.7 178.1 C 105.5 178.0, 104.4 177.9, 103.3 177.7 C 102.2 177.6, 101.1 177.5, 100.0 177.3 C 98.9 177.2, 97.8 177.0, 96.7 176.8 C 95.6 176.6, 94.5 176.5, 93.4 176.3 C 92.3 176.2, 91.1 176.1, 90.0 175.9 C 88.8 175.8, 87.7 175.8, 86.5 175.7 C 85.3 175.6, 84.1 175.5, 82.9 175.3 C 81.8 175.2, 80.6 175.0, 79.4 174.6 C 78.3 174.3, 77.2 173.8, 76.2 173.2 C 75.2 172.6, 74.3 171.8, 73.4 171.0 C 72.5 170.2, 71.8 169.3, 71.0 168.4 C 70.2 167.5, 69.5 166.5, 68.8 165.6 C 68.0 164.7, 67.3 163.8, 66.6 162.9 C 65.9 162.0, 65.1 161.2, 64.4 160.3 C 63.7 159.5, 62.9 158.7, 62.2 157.8 C 61.4 157.0, 60.7 156.2, 59.9 155.4 C 59.2 154.5, 58.5 153.7, 57.8 152.9 C 57.0 152.0, 56.3 151.2, 55.6 150.3 C 54.9 149.5, 54.2 148.6, 53.6 147.7 C 52.9 146.8, 52.2 145.9, 51.6 145.0 C 51.0 144.1, 50.3 143.2, 49.7 142.2 C 49.1 141.3, 48.6 140.3, 48.0 139.3 C 47.5 138.3, 46.9 137.3, 46.4 136.3 C 45.9 135.3, 45.5 134.3, 45.0 133.2 C 44.6 132.2, 44.2 131.2, 43.8 130.1 C 43.4 129.0, 43.0 127.9, 42.7 126.9 C 42.4 125.8, 42.1 124.7, 41.8 123.6 C 41.5 122.5, 41.3 121.3, 41.1 120.2 C 40.8 119.1, 40.6 118.0, 40.5 116.8 C 40.3 115.7, 40.2 114.6, 40.0 113.4 C 39.9 112.3, 39.9 111.1, 39.8 110.0 C 39.7 108.9, 39.7 107.7, 39.7 106.5 C 39.7 105.4, 39.8 104.2, 39.9 103.1 C 39.9 101.9, 40.0 100.8, 40.1 99.6 C 40.2 98.5, 40.3 97.3, 40.4 96.2 C 40.5 95.0, 40.6 93.8, 40.7 92.7 C 40.9 91.5, 41.0 90.3, 41.3 89.1 C 41.5 88.0, 41.8 86.8, 42.2 85.7 C 42.6 84.6, 43.1 83.6, 43.7 82.5 C 44.3 81.5, 45.0 80.5, 45.7 79.6 C 46.4 78.6, 47.2 77.7, 47.9 76.8 C 48.7 75.9, 49.4 75.0, 50.2 74.2 C 50.9 73.3, 51.7 72.4, 52.4 71.5 C 53.2 70.7, 53.9 69.8, 54.7 69.0 C 55.5 68.2, 56.2 67.3, 57.0 66.5 C 57.8 65.7, 58.6 64.9, 59.4 64.2 C 60.3 63.4, 61.1 62.7, 61.9 61.9 C 62.8 61.2, 63.6 60.5, 64.5 59.8 C 65.4 59.1, 66.3 58.5, 67.2 57.8 C 68.1 57.1, 69.0 56.5, 69.9 55.9 C 70.8 55.3, 71.7 54.7, 72.7 54.1 C 73.6 53.6, 74.6 53.0, 75.6 52.5 C 76.5 52.0, 77.5 51.5, 78.5 51.1 C 79.5 50.6, 80.5 50.2, 81.5 49.8 C 82.5 49.4, 83.6 49.0, 84.6 48.7 C 85.6 48.3, 86.7 48.0, 87.7 47.7 C 88.7 47.4, 89.8 47.1, 90.8 46.8 C 91.9 46.6, 92.9 46.3, 94.0 46.1 C 95.1 45.9, 96.1 45.7, 97.2 45.5 C 98.2 45.3, 99.3 45.1, 100.4 45.0 C 101.4 44.8, 102.5 44.6, 103.6 44.5 C 104.6 44.4, 105.7 44.3, 106.8 44.2 C 107.8 44.1, 108.9 44.0, 110.0 44.0 C 111.1 44.0, 112.2 43.9, 113.2 44.0 C 114.3 44.0, 115.4 44.0, 116.5 44.1 C 117.6 44.2, 118.7 44.3, 119.7 44.4 C 120.8 44.6, 121.9 44.8, 122.9 45.0 C 124.0 45.2, 125.1 45.4, 126.1 45.7 C 127.2 46.0, 128.2 46.3, 129.2 46.6 C 130.3 46.9, 131.3 47.2, 132.3 47.6 C 133.3 48.0, 134.4 48.3, 135.4 48.7 C 136.4 49.1, 137.4 49.5, 138.4 50.0 C 139.4 50.4, 140.4 50.8, 141.4 51.3 C 142.4 51.8, 143.4 52.2, 144.3 52.7 C 145.3 53.2, 146.3 53.7, 147.3 54.3 C 148.2 54.8, 149.2 55.3, 150.1 55.9 C 151.1 56.5, 152.0 57.1, 152.9 57.7 C 153.8 58.3, 154.8 59.0, 155.6 59.6 C 156.5 60.3, 157.4 61.0, 158.3 61.7 C 159.1 62.5, 160.0 63.2, 160.8 64.0 C 161.6 64.7, 162.4 65.5, 163.2 66.3 C 164.0 67.2, 164.7 68.0, 165.5 68.9 C 166.2 69.7, 166.9 70.6, 167.7 71.5 C 168.4 72.4, 169.1 73.3, 169.8 74.2 C 170.5 75.1, 171.3 75.9, 172.0 76.9 C 172.7 77.8, 173.5 78.7, 174.2 79.6 C 174.9 80.6, 175.5 81.6, 176.1 82.6 C 176.6 83.7, 177.0 84.8, 177.3 85.9 C 177.6 87.0, 177.8 88.2, 178.0 89.4 C 178.2 90.5, 178.4 91.7, 178.6 92.8 C 178.8 94.0, 179.0 95.1, 179.2 96.2 C 179.4 97.4, 179.7 98.5, 179.9 99.6 C 180.1 100.8, 180.2 101.9, 180.4 103.1 C 180.5 104.2, 180.7 105.4, 180.8 106.5 C 180.9 107.7, 180.9 108.8, 181.0 110.0 Z M 175.8 106.8 C 175.7 105.7, 175.7 104.6, 175.6 103.5 C 175.4 102.5, 175.3 101.4, 175.1 100.3 C 174.9 99.3, 174.7 98.2, 174.5 97.2 C 174.3 96.1, 174.0 95.1, 173.7 94.1 C 173.4 93.0, 173.0 92.0, 172.7 91.0 C 172.3 90.0, 171.9 89.0, 171.5 88.0 C 171.1 87.0, 170.7 86.0, 170.2 85.1 C 169.7 84.1, 169.2 83.2, 168.6 82.3 C 168.1 81.4, 167.5 80.5, 166.8 79.6 C 166.2 78.8, 165.5 77.9, 164.8 77.1 C 164.1 76.3, 163.4 75.6, 162.6 74.8 C 161.9 74.1, 161.1 73.4, 160.4 72.6 C 159.7 71.9, 159.0 71.1, 158.3 70.4 C 157.6 69.6, 156.9 68.9, 156.2 68.1 C 155.5 67.3, 154.9 66.6, 154.2 65.8 C 153.5 65.0, 152.8 64.3, 152.1 63.5 C 151.4 62.8, 150.6 62.1, 149.8 61.5 C 149.1 60.8, 148.2 60.2, 147.4 59.6 C 146.6 59.0, 145.7 58.4, 144.8 57.9 C 143.9 57.4, 143.0 56.9, 142.1 56.4 C 141.2 56.0, 140.3 55.5, 139.3 55.1 C 138.4 54.7, 137.5 54.3, 136.5 53.9 C 135.6 53.5, 134.6 53.2, 133.7 52.9 C 132.7 52.5, 131.7 52.2, 130.8 51.9 C 129.8 51.6, 128.8 51.4, 127.9 51.1 C 126.9 50.9, 125.9 50.7, 124.9 50.5 C 123.9 50.4, 122.9 50.2, 121.9 50.1 C 120.9 50.0, 119.9 50.0, 118.9 50.0 C 117.9 50.0, 116.9 50.0, 115.9 50.1 C 114.9 50.2, 113.9 50.4, 112.9 50.6 C 111.9 50.7, 111.0 51.0, 110.0 51.2 C 109.0 51.4, 108.1 51.6, 107.1 51.8 C 106.2 52.0, 105.3 52.2, 104.3 52.3 C 103.4 52.4, 102.4 52.5, 101.5 52.6 C 100.5 52.7, 99.6 52.7, 98.6 52.7 C 97.6 52.7, 96.6 52.7, 95.7 52.8 C 94.7 52.8, 93.7 52.8, 92.7 52.9 C 91.7 53.0, 90.7 53.1, 89.7 53.3 C 88.7 53.5, 87.8 53.7, 86.8 54.0 C 85.9 54.3, 84.9 54.6, 84.0 55.0 C 83.1 55.4, 82.1 55.8, 81.2 56.2 C 80.3 56.6, 79.4 57.1, 78.6 57.6 C 77.7 58.1, 76.8 58.6, 76.0 59.1 C 75.1 59.6, 74.3 60.2, 73.5 60.8 C 72.7 61.4, 71.9 62.0, 71.1 62.6 C 70.3 63.2, 69.5 63.9, 68.8 64.5 C 68.0 65.2, 67.3 65.8, 66.5 66.5 C 65.8 67.2, 65.1 67.9, 64.3 68.6 C 63.6 69.3, 62.9 70.1, 62.2 70.8 C 61.5 71.5, 60.8 72.3, 60.1 73.0 C 59.5 73.8, 58.8 74.5, 58.1 75.3 C 57.5 76.1, 56.8 76.9, 56.2 77.7 C 55.5 78.5, 54.9 79.4, 54.3 80.2 C 53.7 81.1, 53.1 81.9, 52.5 82.8 C 52.0 83.7, 51.4 84.6, 50.9 85.5 C 50.4 86.5, 49.9 87.4, 49.5 88.4 C 49.1 89.3, 48.7 90.3, 48.3 91.3 C 48.0 92.3, 47.6 93.3, 47.4 94.3 C 47.1 95.3, 46.8 96.4, 46.6 97.4 C 46.4 98.4, 46.2 99.5, 46.1 100.5 C 46.0 101.6, 45.9 102.6, 45.8 103.7 C 45.7 104.7, 45.6 105.8, 45.6 106.8 C 45.6 107.9, 45.6 108.9, 45.7 110.0 C 45.7 111.1, 45.8 112.1, 45.9 113.2 C 46.0 114.2, 46.1 115.2, 46.3 116.3 C 46.5 117.3, 46.7 118.3, 46.9 119.4 C 47.2 120.4, 47.5 121.4, 47.8 122.4 C 48.2 123.4, 48.5 124.3, 49.0 125.3 C 49.4 126.2, 49.9 127.2, 50.5 128.1 C 51.0 129.0, 51.6 129.8, 52.2 130.7 C 52.9 131.5, 53.6 132.3, 54.3 133.1 C 55.0 133.8, 55.8 134.6, 56.6 135.2 C 57.4 135.9, 58.3 136.6, 59.1 137.2 C 60.0 137.8, 60.9 138.4, 61.7 138.9 C 62.6 139.5, 63.5 140.0, 64.3 140.5 C 65.2 141.0, 66.1 141.5, 66.9 142.0 C 67.7 142.4, 68.6 142.9, 69.3 143.4 C 70.1 143.9, 70.9 144.3, 71.6 144.8 C 72.3 145.3, 73.0 145.8, 73.6 146.4 C 74.3 146.9, 74.9 147.5, 75.5 148.1 C 76.1 148.7, 76.6 149.3, 77.2 150.0 C 77.7 150.7, 78.3 151.4, 78.8 152.1 C 79.3 152.8, 79.9 153.5, 80.4 154.3 C 81.0 155.0, 81.5 155.8, 82.1 156.5 C 82.7 157.3, 83.3 158.1, 83.9 158.8 C 84.5 159.5, 85.2 160.3, 85.9 161.0 C 86.6 161.7, 87.3 162.3, 88.1 163.0 C 88.8 163.6, 89.6 164.2, 90.4 164.8 C 91.2 165.3, 92.1 165.8, 92.9 166.3 C 93.8 166.8, 94.7 167.2, 95.6 167.6 C 96.5 168.0, 97.4 168.3, 98.3 168.6 C 99.3 169.0, 100.2 169.2, 101.2 169.5 C 102.1 169.7, 103.1 169.9, 104.1 170.1 C 105.1 170.3, 106.0 170.4, 107.0 170.5 C 108.0 170.6, 109.0 170.7, 110.0 170.7 C 111.0 170.7, 112.0 170.7, 113.0 170.6 C 114.0 170.5, 115.0 170.4, 115.9 170.2 C 116.9 170.1, 117.9 169.8, 118.8 169.6 C 119.8 169.3, 120.7 169.0, 121.7 168.7 C 122.6 168.3, 123.5 168.0, 124.4 167.6 C 125.3 167.3, 126.2 166.9, 127.1 166.5 C 128.1 166.2, 128.9 165.8, 129.9 165.5 C 130.8 165.2, 131.7 164.9, 132.6 164.7 C 133.6 164.4, 134.5 164.2, 135.5 164.0 C 136.5 163.7, 137.5 163.6, 138.5 163.4 C 139.5 163.2, 140.6 163.0, 141.6 162.8 C 142.7 162.5, 143.7 162.3, 144.8 162.0 C 145.8 161.8, 146.9 161.4, 147.9 161.1 C 148.9 160.7, 149.9 160.3, 150.9 159.9 C 151.9 159.4, 152.9 158.9, 153.8 158.3 C 154.7 157.7, 155.6 157.1, 156.5 156.5 C 157.3 155.8, 158.2 155.1, 159.0 154.4 C 159.8 153.6, 160.5 152.9, 161.2 152.1 C 162.0 151.2, 162.7 150.4, 163.3 149.5 C 164.0 148.7, 164.6 147.8, 165.2 146.9 C 165.8 146.0, 166.3 145.0, 166.9 144.1 C 167.4 143.2, 167.9 142.2, 168.4 141.2 C 168.9 140.3, 169.4 139.3, 169.8 138.3 C 170.2 137.3, 170.6 136.3, 171.0 135.3 C 171.4 134.3, 171.8 133.3, 172.1 132.2 C 172.5 131.2, 172.8 130.2, 173.1 129.1 C 173.4 128.1, 173.7 127.1, 173.9 126.0 C 174.2 125.0, 174.4 123.9, 174.6 122.8 C 174.8 121.8, 175.0 120.7, 175.1 119.7 C 175.3 118.6, 175.4 117.5, 175.5 116.5 C 175.6 115.4, 175.7 114.3, 175.7 113.2 C 175.8 112.2, 175.8 111.1, 175.8 110.0 C 175.8 108.9, 175.8 107.8, 175.8 106.8 Z" fill="none" fill-rule="evenodd" stroke="#a5732f" stroke-width="0.8" opacity="0.5"/>
    <path d="M 181.0 110.0 C 181.0 111.2, 180.9 112.3, 180.9 113.5 C 180.8 114.6, 180.7 115.8, 180.6 117.0 C 180.5 118.1, 180.3 119.3, 180.1 120.4 C 179.9 121.5, 179.7 122.7, 179.4 123.8 C 179.2 124.9, 178.9 126.1, 178.6 127.2 C 178.4 128.3, 178.0 129.4, 177.7 130.5 C 177.4 131.6, 177.0 132.8, 176.7 133.9 C 176.3 134.9, 175.9 136.0, 175.5 137.1 C 175.1 138.2, 174.6 139.3, 174.2 140.3 C 173.7 141.4, 173.2 142.5, 172.7 143.5 C 172.2 144.5, 171.6 145.6, 171.0 146.6 C 170.5 147.6, 169.8 148.6, 169.2 149.6 C 168.6 150.5, 167.9 151.5, 167.2 152.4 C 166.5 153.3, 165.8 154.3, 165.0 155.1 C 164.2 156.0, 163.5 156.9, 162.7 157.7 C 161.8 158.6, 161.0 159.4, 160.2 160.2 C 159.3 161.0, 158.4 161.7, 157.5 162.5 C 156.7 163.2, 155.7 163.9, 154.8 164.6 C 153.9 165.3, 152.9 166.0, 152.0 166.6 C 151.0 167.2, 150.0 167.8, 149.0 168.4 C 148.1 169.0, 147.0 169.6, 146.0 170.1 C 145.0 170.6, 144.0 171.2, 142.9 171.6 C 141.9 172.1, 140.9 172.6, 139.8 173.0 C 138.7 173.4, 137.7 173.8, 136.6 174.2 C 135.5 174.6, 134.4 174.9, 133.3 175.2 C 132.2 175.5, 131.2 175.8, 130.1 176.1 C 129.0 176.4, 127.8 176.6, 126.7 176.8 C 125.6 177.1, 124.5 177.3, 123.4 177.4 C 122.3 177.6, 121.2 177.7, 120.1 177.9 C 118.9 178.0, 117.8 178.1, 116.7 178.1 C 115.6 178.2, 114.5 178.2, 113.4 178.3 C 112.2 178.3, 111.1 178.3, 110.0 178.2 C 108.9 178.2, 107.8 178.1, 106.7 178.1 C 105.5 178.0, 104.4 177.9, 103.3 177.7 C 102.2 177.6, 101.1 177.5, 100.0 177.3 C 98.9 177.2, 97.8 177.0, 96.7 176.8 C 95.6 176.6, 94.5 176.5, 93.4 176.3 C 92.3 176.2, 91.1 176.1, 90.0 175.9 C 88.8 175.8, 87.7 175.8, 86.5 175.7 C 85.3 175.6, 84.1 175.5, 82.9 175.3 C 81.8 175.2, 80.6 175.0, 79.4 174.6 C 78.3 174.3, 77.2 173.8, 76.2 173.2 C 75.2 172.6, 74.3 171.8, 73.4 171.0 C 72.5 170.2, 71.8 169.3, 71.0 168.4 C 70.2 167.5, 69.5 166.5, 68.8 165.6 C 68.0 164.7, 67.3 163.8, 66.6 162.9 C 65.9 162.0, 65.1 161.2, 64.4 160.3 C 63.7 159.5, 62.9 158.7, 62.2 157.8 C 61.4 157.0, 60.7 156.2, 59.9 155.4 C 59.2 154.5, 58.5 153.7, 57.8 152.9 C 57.0 152.0, 56.3 151.2, 55.6 150.3 C 54.9 149.5, 54.2 148.6, 53.6 147.7 C 52.9 146.8, 52.2 145.9, 51.6 145.0 C 51.0 144.1, 50.3 143.2, 49.7 142.2 C 49.1 141.3, 48.6 140.3, 48.0 139.3 C 47.5 138.3, 46.9 137.3, 46.4 136.3 C 45.9 135.3, 45.5 134.3, 45.0 133.2 C 44.6 132.2, 44.2 131.2, 43.8 130.1 C 43.4 129.0, 43.0 127.9, 42.7 126.9 C 42.4 125.8, 42.1 124.7, 41.8 123.6 C 41.5 122.5, 41.3 121.3, 41.1 120.2 C 40.8 119.1, 40.6 118.0, 40.5 116.8 C 40.3 115.7, 40.2 114.6, 40.0 113.4 C 39.9 112.3, 39.9 111.1, 39.8 110.0 C 39.7 108.9, 39.7 107.7, 39.7 106.5 C 39.7 105.4, 39.8 104.2, 39.9 103.1 C 39.9 101.9, 40.0 100.8, 40.1 99.6 C 40.2 98.5, 40.3 97.3, 40.4 96.2 C 40.5 95.0, 40.6 93.8, 40.7 92.7 C 40.9 91.5, 41.0 90.3, 41.3 89.1 C 41.5 88.0, 41.8 86.8, 42.2 85.7 C 42.6 84.6, 43.1 83.6, 43.7 82.5 C 44.3 81.5, 45.0 80.5, 45.7 79.6 C 46.4 78.6, 47.2 77.7, 47.9 76.8 C 48.7 75.9, 49.4 75.0, 50.2 74.2 C 50.9 73.3, 51.7 72.4, 52.4 71.5 C 53.2 70.7, 53.9 69.8, 54.7 69.0 C 55.5 68.2, 56.2 67.3, 57.0 66.5 C 57.8 65.7, 58.6 64.9, 59.4 64.2 C 60.3 63.4, 61.1 62.7, 61.9 61.9 C 62.8 61.2, 63.6 60.5, 64.5 59.8 C 65.4 59.1, 66.3 58.5, 67.2 57.8 C 68.1 57.1, 69.0 56.5, 69.9 55.9 C 70.8 55.3, 71.7 54.7, 72.7 54.1 C 73.6 53.6, 74.6 53.0, 75.6 52.5 C 76.5 52.0, 77.5 51.5, 78.5 51.1 C 79.5 50.6, 80.5 50.2, 81.5 49.8 C 82.5 49.4, 83.6 49.0, 84.6 48.7 C 85.6 48.3, 86.7 48.0, 87.7 47.7 C 88.7 47.4, 89.8 47.1, 90.8 46.8 C 91.9 46.6, 92.9 46.3, 94.0 46.1 C 95.1 45.9, 96.1 45.7, 97.2 45.5 C 98.2 45.3, 99.3 45.1, 100.4 45.0 C 101.4 44.8, 102.5 44.6, 103.6 44.5 C 104.6 44.4, 105.7 44.3, 106.8 44.2 C 107.8 44.1, 108.9 44.0, 110.0 44.0 C 111.1 44.0, 112.2 43.9, 113.2 44.0 C 114.3 44.0, 115.4 44.0, 116.5 44.1 C 117.6 44.2, 118.7 44.3, 119.7 44.4 C 120.8 44.6, 121.9 44.8, 122.9 45.0 C 124.0 45.2, 125.1 45.4, 126.1 45.7 C 127.2 46.0, 128.2 46.3, 129.2 46.6 C 130.3 46.9, 131.3 47.2, 132.3 47.6 C 133.3 48.0, 134.4 48.3, 135.4 48.7 C 136.4 49.1, 137.4 49.5, 138.4 50.0 C 139.4 50.4, 140.4 50.8, 141.4 51.3 C 142.4 51.8, 143.4 52.2, 144.3 52.7 C 145.3 53.2, 146.3 53.7, 147.3 54.3 C 148.2 54.8, 149.2 55.3, 150.1 55.9 C 151.1 56.5, 152.0 57.1, 152.9 57.7 C 153.8 58.3, 154.8 59.0, 155.6 59.6 C 156.5 60.3, 157.4 61.0, 158.3 61.7 C 159.1 62.5, 160.0 63.2, 160.8 64.0 C 161.6 64.7, 162.4 65.5, 163.2 66.3 C 164.0 67.2, 164.7 68.0, 165.5 68.9 C 166.2 69.7, 166.9 70.6, 167.7 71.5 C 168.4 72.4, 169.1 73.3, 169.8 74.2 C 170.5 75.1, 171.3 75.9, 172.0 76.9 C 172.7 77.8, 173.5 78.7, 174.2 79.6 C 174.9 80.6, 175.5 81.6, 176.1 82.6 C 176.6 83.7, 177.0 84.8, 177.3 85.9 C 177.6 87.0, 177.8 88.2, 178.0 89.4 C 178.2 90.5, 178.4 91.7, 178.6 92.8 C 178.8 94.0, 179.0 95.1, 179.2 96.2 C 179.4 97.4, 179.7 98.5, 179.9 99.6 C 180.1 100.8, 180.2 101.9, 180.4 103.1 C 180.5 104.2, 180.7 105.4, 180.8 106.5 C 180.9 107.7, 180.9 108.8, 181.0 110.0 Z M 175.8 106.8 C 175.7 105.7, 175.7 104.6, 175.6 103.5 C 175.4 102.5, 175.3 101.4, 175.1 100.3 C 174.9 99.3, 174.7 98.2, 174.5 97.2 C 174.3 96.1, 174.0 95.1, 173.7 94.1 C 173.4 93.0, 173.0 92.0, 172.7 91.0 C 172.3 90.0, 171.9 89.0, 171.5 88.0 C 171.1 87.0, 170.7 86.0, 170.2 85.1 C 169.7 84.1, 169.2 83.2, 168.6 82.3 C 168.1 81.4, 167.5 80.5, 166.8 79.6 C 166.2 78.8, 165.5 77.9, 164.8 77.1 C 164.1 76.3, 163.4 75.6, 162.6 74.8 C 161.9 74.1, 161.1 73.4, 160.4 72.6 C 159.7 71.9, 159.0 71.1, 158.3 70.4 C 157.6 69.6, 156.9 68.9, 156.2 68.1 C 155.5 67.3, 154.9 66.6, 154.2 65.8 C 153.5 65.0, 152.8 64.3, 152.1 63.5 C 151.4 62.8, 150.6 62.1, 149.8 61.5 C 149.1 60.8, 148.2 60.2, 147.4 59.6 C 146.6 59.0, 145.7 58.4, 144.8 57.9 C 143.9 57.4, 143.0 56.9, 142.1 56.4 C 141.2 56.0, 140.3 55.5, 139.3 55.1 C 138.4 54.7, 137.5 54.3, 136.5 53.9 C 135.6 53.5, 134.6 53.2, 133.7 52.9 C 132.7 52.5, 131.7 52.2, 130.8 51.9 C 129.8 51.6, 128.8 51.4, 127.9 51.1 C 126.9 50.9, 125.9 50.7, 124.9 50.5 C 123.9 50.4, 122.9 50.2, 121.9 50.1 C 120.9 50.0, 119.9 50.0, 118.9 50.0 C 117.9 50.0, 116.9 50.0, 115.9 50.1 C 114.9 50.2, 113.9 50.4, 112.9 50.6 C 111.9 50.7, 111.0 51.0, 110.0 51.2 C 109.0 51.4, 108.1 51.6, 107.1 51.8 C 106.2 52.0, 105.3 52.2, 104.3 52.3 C 103.4 52.4, 102.4 52.5, 101.5 52.6 C 100.5 52.7, 99.6 52.7, 98.6 52.7 C 97.6 52.7, 96.6 52.7, 95.7 52.8 C 94.7 52.8, 93.7 52.8, 92.7 52.9 C 91.7 53.0, 90.7 53.1, 89.7 53.3 C 88.7 53.5, 87.8 53.7, 86.8 54.0 C 85.9 54.3, 84.9 54.6, 84.0 55.0 C 83.1 55.4, 82.1 55.8, 81.2 56.2 C 80.3 56.6, 79.4 57.1, 78.6 57.6 C 77.7 58.1, 76.8 58.6, 76.0 59.1 C 75.1 59.6, 74.3 60.2, 73.5 60.8 C 72.7 61.4, 71.9 62.0, 71.1 62.6 C 70.3 63.2, 69.5 63.9, 68.8 64.5 C 68.0 65.2, 67.3 65.8, 66.5 66.5 C 65.8 67.2, 65.1 67.9, 64.3 68.6 C 63.6 69.3, 62.9 70.1, 62.2 70.8 C 61.5 71.5, 60.8 72.3, 60.1 73.0 C 59.5 73.8, 58.8 74.5, 58.1 75.3 C 57.5 76.1, 56.8 76.9, 56.2 77.7 C 55.5 78.5, 54.9 79.4, 54.3 80.2 C 53.7 81.1, 53.1 81.9, 52.5 82.8 C 52.0 83.7, 51.4 84.6, 50.9 85.5 C 50.4 86.5, 49.9 87.4, 49.5 88.4 C 49.1 89.3, 48.7 90.3, 48.3 91.3 C 48.0 92.3, 47.6 93.3, 47.4 94.3 C 47.1 95.3, 46.8 96.4, 46.6 97.4 C 46.4 98.4, 46.2 99.5, 46.1 100.5 C 46.0 101.6, 45.9 102.6, 45.8 103.7 C 45.7 104.7, 45.6 105.8, 45.6 106.8 C 45.6 107.9, 45.6 108.9, 45.7 110.0 C 45.7 111.1, 45.8 112.1, 45.9 113.2 C 46.0 114.2, 46.1 115.2, 46.3 116.3 C 46.5 117.3, 46.7 118.3, 46.9 119.4 C 47.2 120.4, 47.5 121.4, 47.8 122.4 C 48.2 123.4, 48.5 124.3, 49.0 125.3 C 49.4 126.2, 49.9 127.2, 50.5 128.1 C 51.0 129.0, 51.6 129.8, 52.2 130.7 C 52.9 131.5, 53.6 132.3, 54.3 133.1 C 55.0 133.8, 55.8 134.6, 56.6 135.2 C 57.4 135.9, 58.3 136.6, 59.1 137.2 C 60.0 137.8, 60.9 138.4, 61.7 138.9 C 62.6 139.5, 63.5 140.0, 64.3 140.5 C 65.2 141.0, 66.1 141.5, 66.9 142.0 C 67.7 142.4, 68.6 142.9, 69.3 143.4 C 70.1 143.9, 70.9 144.3, 71.6 144.8 C 72.3 145.3, 73.0 145.8, 73.6 146.4 C 74.3 146.9, 74.9 147.5, 75.5 148.1 C 76.1 148.7, 76.6 149.3, 77.2 150.0 C 77.7 150.7, 78.3 151.4, 78.8 152.1 C 79.3 152.8, 79.9 153.5, 80.4 154.3 C 81.0 155.0, 81.5 155.8, 82.1 156.5 C 82.7 157.3, 83.3 158.1, 83.9 158.8 C 84.5 159.5, 85.2 160.3, 85.9 161.0 C 86.6 161.7, 87.3 162.3, 88.1 163.0 C 88.8 163.6, 89.6 164.2, 90.4 164.8 C 91.2 165.3, 92.1 165.8, 92.9 166.3 C 93.8 166.8, 94.7 167.2, 95.6 167.6 C 96.5 168.0, 97.4 168.3, 98.3 168.6 C 99.3 169.0, 100.2 169.2, 101.2 169.5 C 102.1 169.7, 103.1 169.9, 104.1 170.1 C 105.1 170.3, 106.0 170.4, 107.0 170.5 C 108.0 170.6, 109.0 170.7, 110.0 170.7 C 111.0 170.7, 112.0 170.7, 113.0 170.6 C 114.0 170.5, 115.0 170.4, 115.9 170.2 C 116.9 170.1, 117.9 169.8, 118.8 169.6 C 119.8 169.3, 120.7 169.0, 121.7 168.7 C 122.6 168.3, 123.5 168.0, 124.4 167.6 C 125.3 167.3, 126.2 166.9, 127.1 166.5 C 128.1 166.2, 128.9 165.8, 129.9 165.5 C 130.8 165.2, 131.7 164.9, 132.6 164.7 C 133.6 164.4, 134.5 164.2, 135.5 164.0 C 136.5 163.7, 137.5 163.6, 138.5 163.4 C 139.5 163.2, 140.6 163.0, 141.6 162.8 C 142.7 162.5, 143.7 162.3, 144.8 162.0 C 145.8 161.8, 146.9 161.4, 147.9 161.1 C 148.9 160.7, 149.9 160.3, 150.9 159.9 C 151.9 159.4, 152.9 158.9, 153.8 158.3 C 154.7 157.7, 155.6 157.1, 156.5 156.5 C 157.3 155.8, 158.2 155.1, 159.0 154.4 C 159.8 153.6, 160.5 152.9, 161.2 152.1 C 162.0 151.2, 162.7 150.4, 163.3 149.5 C 164.0 148.7, 164.6 147.8, 165.2 146.9 C 165.8 146.0, 166.3 145.0, 166.9 144.1 C 167.4 143.2, 167.9 142.2, 168.4 141.2 C 168.9 140.3, 169.4 139.3, 169.8 138.3 C 170.2 137.3, 170.6 136.3, 171.0 135.3 C 171.4 134.3, 171.8 133.3, 172.1 132.2 C 172.5 131.2, 172.8 130.2, 173.1 129.1 C 173.4 128.1, 173.7 127.1, 173.9 126.0 C 174.2 125.0, 174.4 123.9, 174.6 122.8 C 174.8 121.8, 175.0 120.7, 175.1 119.7 C 175.3 118.6, 175.4 117.5, 175.5 116.5 C 175.6 115.4, 175.7 114.3, 175.7 113.2 C 175.8 112.2, 175.8 111.1, 175.8 110.0 C 175.8 108.9, 175.8 107.8, 175.8 106.8 Z" fill="#9c6a2c" fill-rule="evenodd" opacity="0.26" filter="url(#mottle)"/>
    <circle cx="45.8" cy="92.7" r="0.6" fill="#8a5a25" opacity="0.29"/><circle cx="70.9" cy="56.5" r="0.5" fill="#8a5a25" opacity="0.15"/><circle cx="119.7" cy="46.7" r="0.3" fill="#8a5a25" opacity="0.22"/><circle cx="116.7" cy="46.2" r="0.7" fill="#8a5a25" opacity="0.19"/><circle cx="169.6" cy="80.0" r="0.6" fill="#8a5a25" opacity="0.20"/><circle cx="93.5" cy="49.7" r="0.5" fill="#8a5a25" opacity="0.20"/><circle cx="171.4" cy="139.2" r="0.9" fill="#8a5a25" opacity="0.25"/><circle cx="130.4" cy="48.9" r="0.7" fill="#8a5a25" opacity="0.23"/><circle cx="176.2" cy="129.8" r="0.3" fill="#8a5a25" opacity="0.12"/><circle cx="81.8" cy="167.3" r="0.5" fill="#8a5a25" opacity="0.19"/><circle cx="47.4" cy="127.5" r="0.3" fill="#8a5a25" opacity="0.25"/><circle cx="162.3" cy="154.7" r="0.5" fill="#8a5a25" opacity="0.14"/><circle cx="179.6" cy="104.5" r="0.4" fill="#8a5a25" opacity="0.16"/><circle cx="66.8" cy="158.4" r="0.4" fill="#8a5a25" opacity="0.16"/><circle cx="93.7" cy="48.5" r="1.6" fill="#8a5a25" opacity="0.22"/><circle cx="176.6" cy="117.2" r="1.1" fill="#8a5a25" opacity="0.25"/><circle cx="59.1" cy="148.0" r="0.7" fill="#8a5a25" opacity="0.39"/><circle cx="110.9" cy="45.1" r="0.3" fill="#8a5a25" opacity="0.14"/><circle cx="175.5" cy="94.9" r="0.6" fill="#8a5a25" opacity="0.23"/><circle cx="175.7" cy="126.2" r="0.5" fill="#8a5a25" opacity="0.23"/><circle cx="48.2" cy="83.9" r="1.2" fill="#8a5a25" opacity="0.20"/><circle cx="112.0" cy="173.3" r="0.5" fill="#8a5a25" opacity="0.30"/><circle cx="91.0" cy="172.1" r="0.8" fill="#8a5a25" opacity="0.20"/><circle cx="177.2" cy="103.6" r="0.3" fill="#8a5a25" opacity="0.22"/><circle cx="97.5" cy="173.4" r="0.4" fill="#8a5a25" opacity="0.19"/><circle cx="140.5" cy="52.1" r="1.2" fill="#8a5a25" opacity="0.20"/><circle cx="92.8" cy="47.4" r="0.9" fill="#8a5a25" opacity="0.20"/><circle cx="43.2" cy="94.4" r="0.5" fill="#8a5a25" opacity="0.17"/><circle cx="175.8" cy="130.8" r="0.4" fill="#8a5a25" opacity="0.15"/><circle cx="51.5" cy="74.6" r="0.9" fill="#8a5a25" opacity="0.24"/><circle cx="151.6" cy="162.6" r="1.0" fill="#8a5a25" opacity="0.29"/><circle cx="168.0" cy="77.5" r="0.5" fill="#8a5a25" opacity="0.19"/><circle cx="76.5" cy="162.6" r="0.4" fill="#8a5a25" opacity="0.13"/><circle cx="83.1" cy="165.7" r="0.3" fill="#8a5a25" opacity="0.15"/><circle cx="46.0" cy="123.6" r="0.3" fill="#8a5a25" opacity="0.18"/><circle cx="41.5" cy="113.7" r="0.8" fill="#8a5a25" opacity="0.25"/><circle cx="176.7" cy="100.7" r="0.3" fill="#8a5a25" opacity="0.20"/><circle cx="83.1" cy="167.6" r="0.3" fill="#8a5a25" opacity="0.36"/><circle cx="43.1" cy="115.1" r="0.6" fill="#8a5a25" opacity="0.37"/><circle cx="78.1" cy="168.4" r="0.9" fill="#8a5a25" opacity="0.19"/><circle cx="154.0" cy="62.5" r="0.5" fill="#8a5a25" opacity="0.12"/><circle cx="179.7" cy="115.3" r="0.5" fill="#8a5a25" opacity="0.21"/><circle cx="45.0" cy="122.3" r="0.4" fill="#8a5a25" opacity="0.32"/><circle cx="157.6" cy="159.5" r="0.7" fill="#8a5a25" opacity="0.22"/><circle cx="73.2" cy="160.5" r="2.0" fill="#7a4a1c" opacity="0.47"/><circle cx="59.6" cy="147.6" r="2.1" fill="#7a4a1c" opacity="0.53"/><circle cx="84.0" cy="166.8" r="1.6" fill="#7a4a1c" opacity="0.43"/>
  </g>

  <g filter="url(#wick)">
    <path d="M 200.9 160.2 C 200.9 160.8, 200.5 161.6, 200.2 162.2 C 199.8 162.8, 199.1 163.3, 198.7 163.8 C 198.2 164.2, 197.8 164.6, 197.3 165.0 C 196.9 165.4, 196.5 165.9, 196.0 166.2 C 195.5 166.5, 194.9 166.7, 194.3 166.8 C 193.8 166.9, 193.2 166.7, 192.6 166.6 C 192.1 166.5, 191.6 166.4, 191.1 166.5 C 190.5 166.5, 189.9 166.9, 189.2 167.0 C 188.5 167.2, 187.6 167.5, 186.8 167.4 C 186.1 167.3, 185.2 167.0, 184.8 166.4 C 184.4 165.9, 184.3 164.9, 184.4 164.1 C 184.4 163.3, 185.0 162.5, 185.2 161.8 C 185.5 161.2, 185.8 160.7, 185.9 160.2 C 185.9 159.6, 185.7 159.2, 185.6 158.6 C 185.5 158.1, 185.3 157.4, 185.4 156.8 C 185.5 156.2, 185.7 155.6, 186.1 155.1 C 186.4 154.6, 187.0 154.2, 187.5 153.9 C 188.0 153.5, 188.5 153.1, 189.0 152.8 C 189.6 152.4, 190.2 151.9, 190.8 151.7 C 191.5 151.5, 192.3 151.4, 192.9 151.6 C 193.5 151.8, 194.2 152.4, 194.6 153.0 C 195.0 153.6, 195.1 154.5, 195.3 155.1 C 195.6 155.7, 195.6 156.1, 196.0 156.5 C 196.4 156.8, 197.0 156.8, 197.6 157.1 C 198.3 157.4, 199.2 157.7, 199.8 158.2 C 200.3 158.7, 200.8 159.5, 200.9 160.2 Z" fill="url(#tone)" opacity="0.88"/>
    <path d="M 200.9 160.2 C 200.9 160.8, 200.5 161.6, 200.2 162.2 C 199.8 162.8, 199.1 163.3, 198.7 163.8 C 198.2 164.2, 197.8 164.6, 197.3 165.0 C 196.9 165.4, 196.5 165.9, 196.0 166.2 C 195.5 166.5, 194.9 166.7, 194.3 166.8 C 193.8 166.9, 193.2 166.7, 192.6 166.6 C 192.1 166.5, 191.6 166.4, 191.1 166.5 C 190.5 166.5, 189.9 166.9, 189.2 167.0 C 188.5 167.2, 187.6 167.5, 186.8 167.4 C 186.1 167.3, 185.2 167.0, 184.8 166.4 C 184.4 165.9, 184.3 164.9, 184.4 164.1 C 184.4 163.3, 185.0 162.5, 185.2 161.8 C 185.5 161.2, 185.8 160.7, 185.9 160.2 C 185.9 159.6, 185.7 159.2, 185.6 158.6 C 185.5 158.1, 185.3 157.4, 185.4 156.8 C 185.5 156.2, 185.7 155.6, 186.1 155.1 C 186.4 154.6, 187.0 154.2, 187.5 153.9 C 188.0 153.5, 188.5 153.1, 189.0 152.8 C 189.6 152.4, 190.2 151.9, 190.8 151.7 C 191.5 151.5, 192.3 151.4, 192.9 151.6 C 193.5 151.8, 194.2 152.4, 194.6 153.0 C 195.0 153.6, 195.1 154.5, 195.3 155.1 C 195.6 155.7, 195.6 156.1, 196.0 156.5 C 196.4 156.8, 197.0 156.8, 197.6 157.1 C 198.3 157.4, 199.2 157.7, 199.8 158.2 C 200.3 158.7, 200.8 159.5, 200.9 160.2 Z" fill="none" stroke="#a5732f" stroke-width="0.8" opacity="0.5"/>
    <path d="M 200.9 160.2 C 200.9 160.8, 200.5 161.6, 200.2 162.2 C 199.8 162.8, 199.1 163.3, 198.7 163.8 C 198.2 164.2, 197.8 164.6, 197.3 165.0 C 196.9 165.4, 196.5 165.9, 196.0 166.2 C 195.5 166.5, 194.9 166.7, 194.3 166.8 C 193.8 166.9, 193.2 166.7, 192.6 166.6 C 192.1 166.5, 191.6 166.4, 191.1 166.5 C 190.5 166.5, 189.9 166.9, 189.2 167.0 C 188.5 167.2, 187.6 167.5, 186.8 167.4 C 186.1 167.3, 185.2 167.0, 184.8 166.4 C 184.4 165.9, 184.3 164.9, 184.4 164.1 C 184.4 163.3, 185.0 162.5, 185.2 161.8 C 185.5 161.2, 185.8 160.7, 185.9 160.2 C 185.9 159.6, 185.7 159.2, 185.6 158.6 C 185.5 158.1, 185.3 157.4, 185.4 156.8 C 185.5 156.2, 185.7 155.6, 186.1 155.1 C 186.4 154.6, 187.0 154.2, 187.5 153.9 C 188.0 153.5, 188.5 153.1, 189.0 152.8 C 189.6 152.4, 190.2 151.9, 190.8 151.7 C 191.5 151.5, 192.3 151.4, 192.9 151.6 C 193.5 151.8, 194.2 152.4, 194.6 153.0 C 195.0 153.6, 195.1 154.5, 195.3 155.1 C 195.6 155.7, 195.6 156.1, 196.0 156.5 C 196.4 156.8, 197.0 156.8, 197.6 157.1 C 198.3 157.4, 199.2 157.7, 199.8 158.2 C 200.3 158.7, 200.8 159.5, 200.9 160.2 Z" fill="#9c6a2c" opacity="0.26" filter="url(#mottle)"/>
    <circle cx="188.4" cy="161.4" r="1.7" fill="#7a4a1c" opacity="0.4"/>
    <circle cx="194.4" cy="157.6" r="1.2" fill="#7a4a1c" opacity="0.3"/>
  </g>
</svg>
