<svg xmlns="http://www.w3.org/2000/svg" viewBox="0 0 359 46" width="359" height="46">
  <defs>
    <!-- paper tooth: the nib skips and pools as it crosses the grain -->
    <filter id="nib" x="-6%" y="-12%" width="112%" height="124%">
      <feTurbulence type="fractalNoise" baseFrequency="0.9" numOctaves="2" seed="5" result="n"/>
      <feDisplacementMap in="SourceGraphic" in2="n" scale="0.9" xChannelSelector="R" yChannelSelector="G"/>
    </filter>
  </defs>
  <g fill="none" stroke="#42331f" stroke-linecap="round" stroke-linejoin="round" filter="url(#nib)">
    <path d="M 6.0 24.8 C 6.3 24.3, 7.2 23.3, 7.8 21.9 C 8.4 20.5, 8.9 17.4, 9.8 16.5 C 10.7 15.7, 12.3 16.1, 13.2 16.9 C 14.1 17.8, 14.9 20.2, 15.0 21.6 C 15.1 23.0, 13.5 24.6, 13.9 25.1 C 14.3 25.6, 16.5 24.6, 17.4 24.4 C 18.2 24.2, 18.4 25.0, 18.9 23.8 C 19.4 22.6, 19.7 18.5, 20.4 17.3 C 21.0 16.0, 22.0 15.8, 22.8 16.5 C 23.6 17.2, 24.5 20.3, 25.2 21.7 C 25.9 23.0, 26.5 24.2, 27.1 24.6 C 27.7 25.1, 28.2 25.6, 28.8 24.3 C 29.4 23.0, 29.8 18.2, 30.6 16.9 C 31.4 15.6, 32.5 15.8, 33.5 16.5 C 34.5 17.3, 35.6 20.2, 36.5 21.5 C 37.4 22.9, 38.1 25.4, 38.9 24.6 C 39.6 23.9, 40.3 17.0, 40.9 17.0 C 41.5 17.0, 41.7 23.4, 42.4 24.6 C 43.0 25.8, 44.2 25.4, 44.8 24.1 C 45.5 22.8, 45.7 17.0, 46.3 16.9 C 46.9 16.7, 47.7 22.4, 48.4 23.2 C 49.2 23.9, 50.0 22.4, 50.7 21.3 C 51.3 20.2, 51.6 17.1, 52.3 16.4 C 53.0 15.7, 54.3 16.5, 54.9 17.3 C 55.6 18.1, 56.3 20.0, 56.4 21.3 C 56.5 22.6, 55.2 24.7, 55.5 25.1 C 55.8 25.5, 57.5 24.0, 58.3 23.7 C 59.0 23.5, 59.4 24.8, 60.0 23.6 C 60.6 22.5, 61.1 18.3, 61.9 17.0 C 62.7 15.7, 64.0 15.2, 65.0 15.9 C 66.1 16.5, 67.2 19.7, 68.2 21.1 C 69.1 22.5, 69.8 24.2, 70.7 24.0 C 71.6 23.9, 73.0 20.8, 73.5 20.2" transform="translate(0 0)" stroke-width="1.7" opacity="0.5"/><path d="M 6.0 24.8 C 6.3 24.3, 7.2 23.3, 7.8 21.9 C 8.4 20.5, 8.9 17.4, 9.8 16.5 C 10.7 15.7, 12.3 16.1, 13.2 16.9 C 14.1 17.8, 14.9 20.2, 15.0 21.6 C 15.1 23.0, 13.5 24.6, 13.9 25.1 C 14.3 25.6, 16.5 24.6, 17.4 24.4 C 18.2 24.2, 18.4 25.0, 18.9 23.8 C 19.4 22.6, 19.7 18.5, 20.4 17.3 C 21.0 16.0, 22.0 15.8, 22.8 16.5 C 23.6 17.2, 24.5 20.3, 25.2 21.7 C 25.9 23.0, 26.5 24.2, 27.1 24.6 C 27.7 25.1, 28.2 25.6, 28.8 24.3 C 29.4 23.0, 29.8 18.2, 30.6 16.9 C 31.4 15.6, 32.5 15.8, 33.5 16.5 C 34.5 17.3, 35.6 20.2, 36.5 21.5 C 37.4 22.9, 38.1 25.4, 38.9 24.6 C 39.6 23.9, 40.3 17.0, 40.9 17.0 C 41.5 17.0, 41.7 23.4, 42.4 24.6 C 43.0 25.8, 44.2 25.4, 44.8 24.1 C 45.5 22.8, 45.7 17.0, 46.3 16.9 C 46.9 16.7, 47.7 22.4, 48.4 23.2 C 49.2 23.9, 50.0 22.4, 50.7 21.3 C 51.3 20.2, 51.6 17.1, 52.3 16.4 C 53.0 15.7, 54.3 16.5, 54.9 17.3 C 55.6 18.1, 56.3 20.0, 56.4 21.3 C 56.5 22.6, 55.2 24.7, 55.5 25.1 C 55.8 25.5, 57.5 24.0, 58.3 23.7 C 59.0 23.5, 59.4 24.8, 60.0 23.6 C 60.6 22.5, 61.1 18.3, 61.9 17.0 C 62.7 15.7, 64.0 15.2, 65.0 15.9 C 66.1 16.5, 67.2 19.7, 68.2 21.1 C 69.1 22.5, 69.8 24.2, 70.7 24.0 C 71.6 23.9, 73.0 20.8, 73.5 20.2" transform="translate(0.35 0.3)" stroke-width="0.9" opacity="0.45"/><path d="M 6.0 24.8 C 6.3 24.3, 7.2 23.3, 7.8 21.9 C 8.4 20.5, 8.9 17.4, 9.8 16.5 C 10.7 15.7, 12.3 16.1, 13.2 16.9 C 14.1 17.8, 14.9 20.2, 15.0 21.6 C 15.1 23.0, 13.5 24.6, 13.9 25.1 C 14.3 25.6, 16.5 24.6, 17.4 24.4 C 18.2 24.2, 18.4 25.0, 18.9 23.8 C 19.4 22.6, 19.7 18.5, 20.4 17.3 C 21.0 16.0, 22.0 15.8, 22.8 16.5 C 23.6 17.2, 24.5 20.3, 25.2 21.7 C 25.9 23.0, 26.5 24.2, 27.1 24.6 C 27.7 25.1, 28.2 25.6, 28.8 24.3 C 29.4 23.0, 29.8 18.2, 30.6 16.9 C 31.4 15.6, 32.5 15.8, 33.5 16.5 C 34.5 17.3, 35.6 20.2, 36.5 21.5 C 37.4 22.9, 38.1 25.4, 38.9 24.6 C 39.6 23.9, 40.3 17.0, 40.9 17.0 C 41.5 17.0, 41.7 23.4, 42.4 24.6 C 43.0 25.8, 44.2 25.4, 44.8 24.1 C 45.5 22.8, 45.7 17.0, 46.3 16.9 C 46.9 16.7, 47.7 22.4, 48.4 23.2 C 49.2 23.9, 50.0 22.4, 50.7 21.3 C 51.3 20.2, 51.6 17.1, 52.3 16.4 C 53.0 15.7, 54.3 16.5, 54.9 17.3 C 55.6 18.1, 56.3 20.0, 56.4 21.3 C 56.5 22.6, 55.2 24.7, 55.5 25.1 C 55.8 25.5, 57.5 24.0, 58.3 23.7 C 59.0 23.5, 59.4 24.8, 60.0 23.6 C 60.6 22.5, 61.1 18.3, 61.9 17.0 C 62.7 15.7, 64.0 15.2, 65.0 15.9 C 66.1 16.5, 67.2 19.7, 68.2 21.1 C 69.1 22.5, 69.8 24.2, 70.7 24.0 C 71.6 23.9, 73.0 20.8, 73.5 20.2" transform="translate(-0.3 -0.25)" stroke-width="0.5" opacity="0.3"/><path d="M 79.9 25.1 C 80.1 24.7, 80.7 24.3, 81.2 22.9 C 81.7 21.5, 82.2 17.9, 83.0 16.8 C 83.8 15.6, 85.0 15.1, 86.0 15.8 C 87.0 16.5, 88.2 19.6, 89.1 20.8 C 90.0 22.1, 90.7 23.4, 91.5 23.5 C 92.3 23.6, 93.2 24.4, 94.0 21.4 C 94.7 18.5, 95.2 7.0, 95.8 5.9 C 96.3 4.9, 97.2 12.8, 97.3 15.4 C 97.4 18.0, 95.9 20.3, 96.3 21.7 C 96.7 23.1, 98.5 23.9, 99.7 23.6 C 100.8 23.4, 102.3 21.4, 103.2 20.0 C 104.2 18.7, 104.5 16.2, 105.4 15.5 C 106.4 14.9, 108.1 15.2, 109.0 16.1 C 109.9 17.0, 110.8 19.6, 110.9 21.0 C 111.1 22.4, 109.3 24.3, 109.8 24.6 C 110.2 24.9, 112.5 24.1, 113.5 22.7 C 114.5 21.2, 115.1 15.9, 115.8 16.0 C 116.4 16.0, 116.7 21.7, 117.4 22.9 C 118.1 24.1, 119.4 24.5, 120.1 23.4 C 120.9 22.2, 121.1 16.2, 121.8 16.0 C 122.5 15.8, 123.3 22.3, 124.2 22.3 C 125.0 22.4, 126.1 16.1, 126.9 16.2 C 127.6 16.3, 127.9 21.9, 128.7 23.1 C 129.5 24.3, 130.9 24.4, 131.7 23.2 C 132.4 22.1, 132.7 16.3, 133.4 16.3 C 134.2 16.2, 135.2 22.7, 136.1 22.7 C 137.0 22.7, 138.0 16.4, 138.7 16.4 C 139.4 16.3, 139.6 21.3, 140.4 22.4 C 141.1 23.5, 142.4 24.1, 143.1 23.0 C 143.9 21.9, 144.1 15.9, 144.8 15.7 C 145.5 15.5, 146.1 21.3, 147.2 21.9 C 148.4 22.5, 151.0 20.0, 151.8 19.6" transform="translate(0 0)" stroke-width="1.7" opacity="0.5"/><path d="M 79.9 25.1 C 80.1 24.7, 80.7 24.3, 81.2 22.9 C 81.7 21.5, 82.2 17.9, 83.0 16.8 C 83.8 15.6, 85.0 15.1, 86.0 15.8 C 87.0 16.5, 88.2 19.6, 89.1 20.8 C 90.0 22.1, 90.7 23.4, 91.5 23.5 C 92.3 23.6, 93.2 24.4, 94.0 21.4 C 94.7 18.5, 95.2 7.0, 95.8 5.9 C 96.3 4.9, 97.2 12.8, 97.3 15.4 C 97.4 18.0, 95.9 20.3, 96.3 21.7 C 96.7 23.1, 98.5 23.9, 99.7 23.6 C 100.8 23.4, 102.3 21.4, 103.2 20.0 C 104.2 18.7, 104.5 16.2, 105.4 15.5 C 106.4 14.9, 108.1 15.2, 109.0 16.1 C 109.9 17.0, 110.8 19.6, 110.9 21.0 C 111.1 22.4, 109.3 24.3, 109.8 24.6 C 110.2 24.9, 112.5 24.1, 113.5 22.7 C 114.5 21.2, 115.1 15.9, 115.8 16.0 C 116.4 16.0, 116.7 21.7, 117.4 22.9 C 118.1 24.1, 119.4 24.5, 120.1 23.4 C 120.9 22.2, 121.1 16.2, 121.8 16.0 C 122.5 15.8, 123.3 22.3, 124.2 22.3 C 125.0 22.4, 126.1 16.1, 126.9 16.2 C 127.6 16.3, 127.9 21.9, 128.7 23.1 C 129.5 24.3, 130.9 24.4, 131.7 23.2 C 132.4 22.1, 132.7 16.3, 133.4 16.3 C 134.2 16.2, 135.2 22.7, 136.1 22.7 C 137.0 22.7, 138.0 16.4, 138.7 16.4 C 139.4 16.3, 139.6 21.3, 140.4 22.4 C 141.1 23.5, 142.4 24.1, 143.1 23.0 C 143.9 21.9, 144.1 15.9, 144.8 15.7 C 145.5 15.5, 146.1 21.3, 147.2 21.9 C 148.4 22.5, 151.0 20.0, 151.8 19.6" transform="translate(0.35 0.3)" stroke-width="0.9" opacity="0.45"/><path d="M 79.9 25.1 C 80.1 24.7, 80.7 24.3, 81.2 22.9 C 81.7 21.5, 82.2 17.9, 83.0 16.8 C 83.8 15.6, 85.0 15.1, 86.0 15.8 C 87.0 16.5, 88.2 19.6, 89.1 20.8 C 90.0 22.1, 90.7 23.4, 91.5 23.5 C 92.3 23.6, 93.2 24.4, 94.0 21.4 C 94.7 18.5, 95.2 7.0, 95.8 5.9 C 96.3 4.9, 97.2 12.8, 97.3 15.4 C 97.4 18.0, 95.9 20.3, 96.3 21.7 C 96.7 23.1, 98.5 23.9, 99.7 23.6 C 100.8 23.4, 102.3 21.4, 103.2 20.0 C 104.2 18.7, 104.5 16.2, 105.4 15.5 C 106.4 14.9, 108.1 15.2, 109.0 16.1 C 109.9 17.0, 110.8 19.6, 110.9 21.0 C 111.1 22.4, 109.3 24.3, 109.8 24.6 C 110.2 24.9, 112.5 24.1, 113.5 22.7 C 114.5 21.2, 115.1 15.9, 115.8 16.0 C 116.4 16.0, 116.7 21.7, 117.4 22.9 C 118.1 24.1, 119.4 24.5, 120.1 23.4 C 120.9 22.2, 121.1 16.2, 121.8 16.0 C 122.5 15.8, 123.3 22.3, 124.2 22.3 C 125.0 22.4, 126.1 16.1, 126.9 16.2 C 127.6 16.3, 127.9 21.9, 128.7 23.1 C 129.5 24.3, 130.9 24.4, 131.7 23.2 C 132.4 22.1, 132.7 16.3, 133.4 16.3 C 134.2 16.2, 135.2 22.7, 136.1 22.7 C 137.0 22.7, 138.0 16.4, 138.7 16.4 C 139.4 16.3, 139.6 21.3, 140.4 22.4 C 141.1 23.5, 142.4 24.1, 143.1 23.0 C 143.9 21.9, 144.1 15.9, 144.8 15.7 C 145.5 15.5, 146.1 21.3, 147.2 21.9 C 148.4 22.5, 151.0 20.0, 151.8 19.6" transform="translate(-0.3 -0.25)" stroke-width="0.5" opacity="0.3"/><path d="M 154.7 25.4 C 155.0 24.4, 155.7 21.0, 156.2 19.3 C 156.7 17.6, 157.1 15.9, 157.8 15.3 C 158.5 14.7, 159.8 14.8, 160.4 15.6 C 161.1 16.3, 161.8 18.6, 161.9 19.8 C 162.0 21.1, 160.7 22.9, 161.0 23.3 C 161.3 23.7, 163.0 22.8, 163.8 22.1 C 164.5 21.3, 165.1 20.2, 165.6 19.0 C 166.2 17.8, 166.5 15.2, 167.2 14.6 C 167.9 14.0, 169.1 14.4, 169.8 15.3 C 170.5 16.1, 171.1 18.3, 171.2 19.6 C 171.3 20.8, 170.0 22.6, 170.4 23.0 C 170.7 23.4, 172.3 21.9, 173.0 21.8 C 173.7 21.7, 174.1 23.5, 174.6 22.4 C 175.1 21.3, 175.5 16.6, 176.3 15.3 C 177.0 13.9, 178.1 13.8, 179.0 14.5 C 179.9 15.2, 180.9 18.1, 181.8 19.5 C 182.6 20.8, 183.0 22.4, 184.0 22.5 C 184.9 22.7, 186.7 20.6, 187.3 20.3" transform="translate(0 0)" stroke-width="1.7" opacity="0.5"/><path d="M 154.7 25.4 C 155.0 24.4, 155.7 21.0, 156.2 19.3 C 156.7 17.6, 157.1 15.9, 157.8 15.3 C 158.5 14.7, 159.8 14.8, 160.4 15.6 C 161.1 16.3, 161.8 18.6, 161.9 19.8 C 162.0 21.1, 160.7 22.9, 161.0 23.3 C 161.3 23.7, 163.0 22.8, 163.8 22.1 C 164.5 21.3, 165.1 20.2, 165.6 19.0 C 166.2 17.8, 166.5 15.2, 167.2 14.6 C 167.9 14.0, 169.1 14.4, 169.8 15.3 C 170.5 16.1, 171.1 18.3, 171.2 19.6 C 171.3 20.8, 170.0 22.6, 170.4 23.0 C 170.7 23.4, 172.3 21.9, 173.0 21.8 C 173.7 21.7, 174.1 23.5, 174.6 22.4 C 175.1 21.3, 175.5 16.6, 176.3 15.3 C 177.0 13.9, 178.1 13.8, 179.0 14.5 C 179.9 15.2, 180.9 18.1, 181.8 19.5 C 182.6 20.8, 183.0 22.4, 184.0 22.5 C 184.9 22.7, 186.7 20.6, 187.3 20.3" transform="translate(0.35 0.3)" stroke-width="0.9" opacity="0.45"/><path d="M 154.7 25.4 C 155.0 24.4, 155.7 21.0, 156.2 19.3 C 156.7 17.6, 157.1 15.9, 157.8 15.3 C 158.5 14.7, 159.8 14.8, 160.4 15.6 C 161.1 16.3, 161.8 18.6, 161.9 19.8 C 162.0 21.1, 160.7 22.9, 161.0 23.3 C 161.3 23.7, 163.0 22.8, 163.8 22.1 C 164.5 21.3, 165.1 20.2, 165.6 19.0 C 166.2 17.8, 166.5 15.2, 167.2 14.6 C 167.9 14.0, 169.1 14.4, 169.8 15.3 C 170.5 16.1, 171.1 18.3, 171.2 19.6 C 171.3 20.8, 170.0 22.6, 170.4 23.0 C 170.7 23.4, 172.3 21.9, 173.0 21.8 C 173.7 21.7, 174.1 23.5, 174.6 22.4 C 175.1 21.3, 175.5 16.6, 176.3 15.3 C 177.0 13.9, 178.1 13.8, 179.0 14.5 C 179.9 15.2, 180.9 18.1, 181.8 19.5 C 182.6 20.8, 183.0 22.4, 184.0 22.5 C 184.9 22.7, 186.7 20.6, 187.3 20.3" transform="translate(-0.3 -0.25)" stroke-width="0.5" opacity="0.3"/><path d="M 193.2 25.6 C 193.6 24.7, 194.8 23.6, 195.6 20.1 C 196.5 16.6, 197.4 5.5, 198.1 4.5 C 198.9 3.5, 200.0 11.4, 200.1 14.1 C 200.2 16.8, 198.3 19.3, 198.9 20.6 C 199.4 22.0, 201.7 22.8, 203.3 22.0 C 204.9 21.1, 207.2 15.5, 208.5 15.6 C 209.9 15.8, 210.8 19.7, 211.4 22.6 C 212.0 25.6, 212.5 31.1, 212.1 33.4 C 211.8 35.6, 210.2 36.4, 209.6 35.9 C 208.9 35.5, 207.3 33.1, 208.4 30.6 C 209.5 28.1, 214.2 23.7, 216.1 21.1 C 218.1 18.5, 218.9 14.6, 219.9 14.8 C 221.0 15.0, 222.0 19.4, 222.6 22.4 C 223.1 25.5, 223.5 30.8, 223.2 33.0 C 222.9 35.3, 221.4 36.4, 220.9 36.0 C 220.3 35.6, 218.9 33.0, 219.8 30.6 C 220.8 28.1, 225.1 23.4, 226.8 21.4 C 228.4 19.4, 228.8 19.5, 229.6 18.3 C 230.5 17.1, 230.8 14.7, 231.7 14.0 C 232.7 13.3, 234.3 13.2, 235.2 14.1 C 236.1 14.9, 236.9 17.7, 237.0 19.1 C 237.2 20.4, 235.5 21.8, 235.9 22.2 C 236.3 22.6, 238.5 22.9, 239.5 21.6 C 240.5 20.4, 241.2 14.7, 241.9 14.7 C 242.6 14.7, 242.8 20.6, 243.6 21.8 C 244.4 23.1, 245.8 23.4, 246.5 22.3 C 247.3 21.1, 247.6 15.2, 248.3 14.9 C 249.0 14.6, 249.8 19.8, 250.9 20.4 C 251.9 21.0, 253.8 18.6, 254.4 18.3" transform="translate(0 0)" stroke-width="1.7" opacity="0.5"/><path d="M 193.2 25.6 C 193.6 24.7, 194.8 23.6, 195.6 20.1 C 196.5 16.6, 197.4 5.5, 198.1 4.5 C 198.9 3.5, 200.0 11.4, 200.1 14.1 C 200.2 16.8, 198.3 19.3, 198.9 20.6 C 199.4 22.0, 201.7 22.8, 203.3 22.0 C 204.9 21.1, 207.2 15.5, 208.5 15.6 C 209.9 15.8, 210.8 19.7, 211.4 22.6 C 212.0 25.6, 212.5 31.1, 212.1 33.4 C 211.8 35.6, 210.2 36.4, 209.6 35.9 C 208.9 35.5, 207.3 33.1, 208.4 30.6 C 209.5 28.1, 214.2 23.7, 216.1 21.1 C 218.1 18.5, 218.9 14.6, 219.9 14.8 C 221.0 15.0, 222.0 19.4, 222.6 22.4 C 223.1 25.5, 223.5 30.8, 223.2 33.0 C 222.9 35.3, 221.4 36.4, 220.9 36.0 C 220.3 35.6, 218.9 33.0, 219.8 30.6 C 220.8 28.1, 225.1 23.4, 226.8 21.4 C 228.4 19.4, 228.8 19.5, 229.6 18.3 C 230.5 17.1, 230.8 14.7, 231.7 14.0 C 232.7 13.3, 234.3 13.2, 235.2 14.1 C 236.1 14.9, 236.9 17.7, 237.0 19.1 C 237.2 20.4, 235.5 21.8, 235.9 22.2 C 236.3 22.6, 238.5 22.9, 239.5 21.6 C 240.5 20.4, 241.2 14.7, 241.9 14.7 C 242.6 14.7, 242.8 20.6, 243.6 21.8 C 244.4 23.1, 245.8 23.4, 246.5 22.3 C 247.3 21.1, 247.6 15.2, 248.3 14.9 C 249.0 14.6, 249.8 19.8, 250.9 20.4 C 251.9 21.0, 253.8 18.6, 254.4 18.3" transform="translate(0.35 0.3)" stroke-width="0.9" opacity="0.45"/><path d="M 193.2 25.6 C 193.6 24.7, 194.8 23.6, 195.6 20.1 C 196.5 16.6, 197.4 5.5, 198.1 4.5 C 198.9 3.5, 200.0 11.4, 200.1 14.1 C 200.2 16.8, 198.3 19.3, 198.9 20.6 C 199.4 22.0, 201.7 22.8, 203.3 22.0 C 204.9 21.1, 207.2 15.5, 208.5 15.6 C 209.9 15.8, 210.8 19.7, 211.4 22.6 C 212.0 25.6, 212.5 31.1, 212.1 33.4 C 211.8 35.6, 210.2 36.4, 209.6 35.9 C 208.9 35.5, 207.3 33.1, 208.4 30.6 C 209.5 28.1, 214.2 23.7, 216.1 21.1 C 218.1 18.5, 218.9 14.6, 219.9 14.8 C 221.0 15.0, 222.0 19.4, 222.6 22.4 C 223.1 25.5, 223.5 30.8, 223.2 33.0 C 222.9 35.3, 221.4 36.4, 220.9 36.0 C 220.3 35.6, 218.9 33.0, 219.8 30.6 C 220.8 28.1, 225.1 23.4, 226.8 21.4 C 228.4 19.4, 228.8 19.5, 229.6 18.3 C 230.5 17.1, 230.8 14.7, 231.7 14.0 C 232.7 13.3, 234.3 13.2, 235.2 14.1 C 236.1 14.9, 236.9 17.7, 237.0 19.1 C 237.2 20.4, 235.5 21.8, 235.9 22.2 C 236.3 22.6, 238.5 22.9, 239.5 21.6 C 240.5 20.4, 241.2 14.7, 241.9 14.7 C 242.6 14.7, 242.8 20.6, 243.6 21.8 C 244.4 23.1, 245.8 23.4, 246.5 22.3 C 247.3 21.1, 247.6 15.2, 248.3 14.9 C 249.0 14.6, 249.8 19.8, 250.9 20.4 C 251.9 21.0, 253.8 18.6, 254.4 18.3" transform="translate(-0.3 -0.25)" stroke-width="0.5" opacity="0.3"/><path d="M 259.4 25.3 C 259.7 24.0, 260.6 19.6, 261.3 17.5 C 262.0 15.5, 262.5 13.8, 263.5 13.1 C 264.5 12.5, 266.2 12.6, 267.1 13.5 C 268.0 14.3, 268.9 16.8, 269.0 18.2 C 269.1 19.6, 267.4 21.4, 267.9 21.8 C 268.3 22.3, 270.5 21.7, 271.6 21.1 C 272.7 20.5, 273.6 21.2, 274.4 18.3 C 275.2 15.4, 275.9 4.6, 276.6 3.7 C 277.2 2.8, 278.2 10.2, 278.3 12.7 C 278.4 15.2, 276.7 17.6, 277.2 18.9 C 277.7 20.2, 279.8 20.6, 281.1 20.6 C 282.5 20.6, 284.3 21.9, 285.4 19.0 C 286.4 16.1, 287.0 4.2, 287.6 3.2 C 288.3 2.1, 289.4 10.2, 289.5 12.8 C 289.6 15.5, 287.8 17.8, 288.3 19.1 C 288.8 20.4, 291.1 21.3, 292.4 20.5 C 293.8 19.7, 295.3 14.2, 296.3 14.3 C 297.2 14.4, 297.3 19.8, 298.0 21.0 C 298.8 22.2, 300.2 22.7, 301.0 21.4 C 301.8 20.2, 302.0 13.9, 302.8 13.7 C 303.5 13.5, 304.4 20.2, 305.4 20.2 C 306.3 20.3, 307.5 14.0, 308.4 14.1 C 309.2 14.2, 309.6 19.6, 310.5 20.8 C 311.4 21.9, 313.0 22.2, 314.0 21.0 C 314.9 19.9, 315.2 13.9, 316.0 13.7 C 316.9 13.5, 318.0 19.2, 319.1 19.9 C 320.2 20.7, 321.6 21.2, 322.6 18.2 C 323.6 15.3, 324.3 3.4, 325.0 2.4 C 325.7 1.4, 326.8 9.5, 326.9 12.1 C 327.0 14.8, 325.2 17.0, 325.7 18.3 C 326.2 19.6, 328.6 20.2, 330.0 20.0 C 331.4 19.8, 333.0 18.2, 334.1 16.9 C 335.1 15.6, 335.3 12.9, 336.3 12.2 C 337.3 11.6, 339.0 12.2, 340.0 13.0 C 340.9 13.8, 341.8 15.7, 341.9 17.0 C 342.1 18.3, 340.3 20.5, 340.8 20.9 C 341.2 21.4, 343.0 20.0, 344.5 19.7 C 346.1 19.3, 349.1 19.0, 350.0 18.8" transform="translate(0 0)" stroke-width="1.7" opacity="0.5"/><path d="M 259.4 25.3 C 259.7 24.0, 260.6 19.6, 261.3 17.5 C 262.0 15.5, 262.5 13.8, 263.5 13.1 C 264.5 12.5, 266.2 12.6, 267.1 13.5 C 268.0 14.3, 268.9 16.8, 269.0 18.2 C 269.1 19.6, 267.4 21.4, 267.9 21.8 C 268.3 22.3, 270.5 21.7, 271.6 21.1 C 272.7 20.5, 273.6 21.2, 274.4 18.3 C 275.2 15.4, 275.9 4.6, 276.6 3.7 C 277.2 2.8, 278.2 10.2, 278.3 12.7 C 278.4 15.2, 276.7 17.6, 277.2 18.9 C 277.7 20.2, 279.8 20.6, 281.1 20.6 C 282.5 20.6, 284.3 21.9, 285.4 19.0 C 286.4 16.1, 287.0 4.2, 287.6 3.2 C 288.3 2.1, 289.4 10.2, 289.5 12.8 C 289.6 15.5, 287.8 17.8, 288.3 19.1 C 288.8 20.4, 291.1 21.3, 292.4 20.5 C 293.8 19.7, 295.3 14.2, 296.3 14.3 C 297.2 14.4, 297.3 19.8, 298.0 21.0 C 298.8 22.2, 300.2 22.7, 301.0 21.4 C 301.8 20.2, 302.0 13.9, 302.8 13.7 C 303.5 13.5, 304.4 20.2, 305.4 20.2 C 306.3 20.3, 307.5 14.0, 308.4 14.1 C 309.2 14.2, 309.6 19.6, 310.5 20.8 C 311.4 21.9, 313.0 22.2, 314.0 21.0 C 314.9 19.9, 315.2 13.9, 316.0 13.7 C 316.9 13.5, 318.0 19.2, 319.1 19.9 C 320.2 20.7, 321.6 21.2, 322.6 18.2 C 323.6 15.3, 324.3 3.4, 325.0 2.4 C 325.7 1.4, 326.8 9.5, 326.9 12.1 C 327.0 14.8, 325.2 17.0, 325.7 18.3 C 326.2 19.6, 328.6 20.2, 330.0 20.0 C 331.4 19.8, 333.0 18.2, 334.1 16.9 C 335.1 15.6, 335.3 12.9, 336.3 12.2 C 337.3 11.6, 339.0 12.2, 340.0 13.0 C 340.9 13.8, 341.8 15.7, 341.9 17.0 C 342.1 18.3, 340.3 20.5, 340.8 20.9 C 341.2 21.4, 343.0 20.0, 344.5 19.7 C 346.1 19.3, 349.1 19.0, 350.0 18.8" transform="translate(0.35 0.3)" stroke-width="0.9" opacity="0.45"/><path d="M 259.4 25.3 C 259.7 24.0, 260.6 19.6, 261.3 17.5 C 262.0 15.5, 262.5 13.8, 263.5 13.1 C 264.5 12.5, 266.2 12.6, 267.1 13.5 C 268.0 14.3, 268.9 16.8, 269.0 18.2 C 269.1 19.6, 267.4 21.4, 267.9 21.8 C 268.3 22.3, 270.5 21.7, 271.6 21.1 C 272.7 20.5, 273.6 21.2, 274.4 18.3 C 275.2 15.4, 275.9 4.6, 276.6 3.7 C 277.2 2.8, 278.2 10.2, 278.3 12.7 C 278.4 15.2, 276.7 17.6, 277.2 18.9 C 277.7 20.2, 279.8 20.6, 281.1 20.6 C 282.5 20.6, 284.3 21.9, 285.4 19.0 C 286.4 16.1, 287.0 4.2, 287.6 3.2 C 288.3 2.1, 289.4 10.2, 289.5 12.8 C 289.6 15.5, 287.8 17.8, 288.3 19.1 C 288.8 20.4, 291.1 21.3, 292.4 20.5 C 293.8 19.7, 295.3 14.2, 296.3 14.3 C 297.2 14.4, 297.3 19.8, 298.0 21.0 C 298.8 22.2, 300.2 22.7, 301.0 21.4 C 301.8 20.2, 302.0 13.9, 302.8 13.7 C 303.5 13.5, 304.4 20.2, 305.4 20.2 C 306.3 20.3, 307.5 14.0, 308.4 14.1 C 309.2 14.2, 309.6 19.6, 310.5 20.8 C 311.4 21.9, 313.0 22.2, 314.0 21.0 C 314.9 19.9, 315.2 13.9, 316.0 13.7 C 316.9 13.5, 318.0 19.2, 319.1 19.9 C 320.2 20.7, 321.6 21.2, 322.6 18.2 C 323.6 15.3, 324.3 3.4, 325.0 2.4 C 325.7 1.4, 326.8 9.5, 326.9 12.1 C 327.0 14.8, 325.2 17.0, 325.7 18.3 C 326.2 19.6, 328.6 20.2, 330.0 20.0 C 331.4 19.8, 333.0 18.2, 334.1 16.9 C 335.1 15.6, 335.3 12.9, 336.3 12.2 C 337.3 11.6, 339.0 12.2, 340.0 13.0 C 340.9 13.8, 341.8 15.7, 341.9 17.0 C 342.1 18.3, 340.3 20.5, 340.8 20.9 C 341.2 21.4, 343.0 20.0, 344.5 19.7 C 346.1 19.3, 349.1 19.0, 350.0 18.8" transform="translate(-0.3 -0.25)" stroke-width="0.5" opacity="0.3"/>
    <g stroke="#42331f" fill="#42331f" opacity="0.45"><path d="M 45.3 13.1 L 53.5 12.9" stroke-width="0.9" fill="none"/><path d="M 96.1 12.4 L 103.9 11.4" stroke-width="0.9" fill="none"/><path d="M 240.9 10.5 L 248.4 9.5" stroke-width="0.9" fill="none"/></g>
  </g>
</svg>
