<svg xmlns="http://www.w3.org/2000/svg" viewBox="0 0 299 46" width="299" height="46">
  <defs>
    <!-- paper tooth: the nib skips and pools as it crosses the grain -->
    <filter id="nib" x="-6%" y="-12%" width="112%" height="124%">
      <feTurbulence type="fractalNoise" baseFrequency="0.9" numOctaves="2" seed="3" result="n"/>
      <feDisplacementMap in="SourceGraphic" in2="n" scale="0.9" xChannelSelector="R" yChannelSelector="G"/>
    </filter>
  </defs>
  <g fill="none" stroke="#42331f" stroke-linecap="round" stroke-linejoin="round" filter="url(#nib)">
    <path d="M 6.0 25.6 C 6.3 24.2, 7.2 17.7, 7.8 17.5 C 8.4 17.3, 8.8 23.1, 9.6 24.4 C 10.4 25.6, 11.9 26.1, 12.7 25.0 C 13.5 23.9, 13.7 18.0, 14.5 17.8 C 15.2 17.7, 16.2 23.6, 17.2 24.1 C 18.1 24.7, 19.3 22.3, 20.2 21.2 C 21.1 20.1, 21.5 18.0, 22.5 17.4 C 23.6 16.7, 25.4 16.5, 26.4 17.2 C 27.4 17.9, 28.3 20.1, 28.5 21.6 C 28.6 23.0, 26.8 25.5, 27.2 25.9 C 27.7 26.4, 30.1 25.1, 31.2 24.4 C 32.3 23.7, 33.1 23.0, 33.9 21.9 C 34.7 20.7, 35.1 18.2, 36.1 17.4 C 37.1 16.6, 38.8 16.2, 39.8 17.0 C 40.7 17.7, 41.6 20.6, 41.8 22.1 C 41.9 23.6, 40.1 25.5, 40.6 25.9 C 41.0 26.3, 43.5 24.6, 44.4 24.4 C 45.3 24.1, 45.5 25.6, 46.0 24.4 C 46.5 23.3, 46.8 18.8, 47.4 17.6 C 48.0 16.4, 48.9 16.7, 49.7 17.3 C 50.5 17.9, 51.3 19.7, 52.0 21.0 C 52.7 22.4, 53.3 24.7, 53.9 25.1 C 54.5 25.6, 55.0 25.1, 55.6 23.8 C 56.3 22.5, 56.7 18.5, 57.6 17.4 C 58.4 16.3, 59.7 16.7, 60.8 17.4 C 61.9 18.0, 63.0 19.9, 64.0 21.1 C 65.0 22.4, 65.9 24.5, 66.6 25.0 C 67.3 25.4, 67.8 25.3, 68.3 24.1 C 68.9 22.8, 69.3 18.7, 70.0 17.5 C 70.7 16.3, 71.9 16.4, 72.8 17.0 C 73.7 17.5, 74.7 19.7, 75.6 21.1 C 76.4 22.4, 77.1 24.8, 77.8 24.9 C 78.5 25.0, 79.3 23.0, 79.9 21.6 C 80.6 20.2, 80.9 17.2, 81.7 16.5 C 82.5 15.8, 83.9 16.4, 84.7 17.3 C 85.4 18.1, 86.2 20.4, 86.3 21.7 C 86.4 23.0, 85.0 24.7, 85.3 25.1 C 85.7 25.5, 87.1 24.4, 88.4 24.2 C 89.6 23.9, 92.1 23.6, 92.8 23.5" transform="translate(0 0)" stroke-width="1.7" opacity="0.5"/><path d="M 6.0 25.6 C 6.3 24.2, 7.2 17.7, 7.8 17.5 C 8.4 17.3, 8.8 23.1, 9.6 24.4 C 10.4 25.6, 11.9 26.1, 12.7 25.0 C 13.5 23.9, 13.7 18.0, 14.5 17.8 C 15.2 17.7, 16.2 23.6, 17.2 24.1 C 18.1 24.7, 19.3 22.3, 20.2 21.2 C 21.1 20.1, 21.5 18.0, 22.5 17.4 C 23.6 16.7, 25.4 16.5, 26.4 17.2 C 27.4 17.9, 28.3 20.1, 28.5 21.6 C 28.6 23.0, 26.8 25.5, 27.2 25.9 C 27.7 26.4, 30.1 25.1, 31.2 24.4 C 32.3 23.7, 33.1 23.0, 33.9 21.9 C 34.7 20.7, 35.1 18.2, 36.1 17.4 C 37.1 16.6, 38.8 16.2, 39.8 17.0 C 40.7 17.7, 41.6 20.6, 41.8 22.1 C 41.9 23.6, 40.1 25.5, 40.6 25.9 C 41.0 26.3, 43.5 24.6, 44.4 24.4 C 45.3 24.1, 45.5 25.6, 46.0 24.4 C 46.5 23.3, 46.8 18.8, 47.4 17.6 C 48.0 16.4, 48.9 16.7, 49.7 17.3 C 50.5 17.9, 51.3 19.7, 52.0 21.0 C 52.7 22.4, 53.3 24.7, 53.9 25.1 C 54.5 25.6, 55.0 25.1, 55.6 23.8 C 56.3 22.5, 56.7 18.5, 57.6 17.4 C 58.4 16.3, 59.7 16.7, 60.8 17.4 C 61.9 18.0, 63.0 19.9, 64.0 21.1 C 65.0 22.4, 65.9 24.5, 66.6 25.0 C 67.3 25.4, 67.8 25.3, 68.3 24.1 C 68.9 22.8, 69.3 18.7, 70.0 17.5 C 70.7 16.3, 71.9 16.4, 72.8 17.0 C 73.7 17.5, 74.7 19.7, 75.6 21.1 C 76.4 22.4, 77.1 24.8, 77.8 24.9 C 78.5 25.0, 79.3 23.0, 79.9 21.6 C 80.6 20.2, 80.9 17.2, 81.7 16.5 C 82.5 15.8, 83.9 16.4, 84.7 17.3 C 85.4 18.1, 86.2 20.4, 86.3 21.7 C 86.4 23.0, 85.0 24.7, 85.3 25.1 C 85.7 25.5, 87.1 24.4, 88.4 24.2 C 89.6 23.9, 92.1 23.6, 92.8 23.5" transform="translate(0.35 0.3)" stroke-width="0.9" opacity="0.45"/><path d="M 6.0 25.6 C 6.3 24.2, 7.2 17.7, 7.8 17.5 C 8.4 17.3, 8.8 23.1, 9.6 24.4 C 10.4 25.6, 11.9 26.1, 12.7 25.0 C 13.5 23.9, 13.7 18.0, 14.5 17.8 C 15.2 17.7, 16.2 23.6, 17.2 24.1 C 18.1 24.7, 19.3 22.3, 20.2 21.2 C 21.1 20.1, 21.5 18.0, 22.5 17.4 C 23.6 16.7, 25.4 16.5, 26.4 17.2 C 27.4 17.9, 28.3 20.1, 28.5 21.6 C 28.6 23.0, 26.8 25.5, 27.2 25.9 C 27.7 26.4, 30.1 25.1, 31.2 24.4 C 32.3 23.7, 33.1 23.0, 33.9 21.9 C 34.7 20.7, 35.1 18.2, 36.1 17.4 C 37.1 16.6, 38.8 16.2, 39.8 17.0 C 40.7 17.7, 41.6 20.6, 41.8 22.1 C 41.9 23.6, 40.1 25.5, 40.6 25.9 C 41.0 26.3, 43.5 24.6, 44.4 24.4 C 45.3 24.1, 45.5 25.6, 46.0 24.4 C 46.5 23.3, 46.8 18.8, 47.4 17.6 C 48.0 16.4, 48.9 16.7, 49.7 17.3 C 50.5 17.9, 51.3 19.7, 52.0 21.0 C 52.7 22.4, 53.3 24.7, 53.9 25.1 C 54.5 25.6, 55.0 25.1, 55.6 23.8 C 56.3 22.5, 56.7 18.5, 57.6 17.4 C 58.4 16.3, 59.7 16.7, 60.8 17.4 C 61.9 18.0, 63.0 19.9, 64.0 21.1 C 65.0 22.4, 65.9 24.5, 66.6 25.0 C 67.3 25.4, 67.8 25.3, 68.3 24.1 C 68.9 22.8, 69.3 18.7, 70.0 17.5 C 70.7 16.3, 71.9 16.4, 72.8 17.0 C 73.7 17.5, 74.7 19.7, 75.6 21.1 C 76.4 22.4, 77.1 24.8, 77.8 24.9 C 78.5 25.0, 79.3 23.0, 79.9 21.6 C 80.6 20.2, 80.9 17.2, 81.7 16.5 C 82.5 15.8, 83.9 16.4, 84.7 17.3 C 85.4 18.1, 86.2 20.4, 86.3 21.7 C 86.4 23.0, 85.0 24.7, 85.3 25.1 C 85.7 25.5, 87.1 24.4, 88.4 24.2 C 89.6 23.9, 92.1 23.6, 92.8 23.5" transform="translate(-0.3 -0.25)" stroke-width="0.5" opacity="0.3"/><path d="M 96.6 24.8 C 96.8 24.2, 97.5 22.8, 98.0 21.6 C 98.5 20.3, 98.9 17.9, 99.7 17.1 C 100.4 16.4, 101.6 16.4, 102.3 17.2 C 103.0 18.0, 103.7 20.5, 103.8 21.7 C 103.9 23.0, 102.6 24.5, 102.9 24.9 C 103.2 25.3, 104.9 25.4, 105.7 24.3 C 106.5 23.1, 107.1 17.9, 107.7 17.9 C 108.3 18.0, 108.5 23.2, 109.2 24.4 C 109.9 25.5, 111.1 26.1, 111.7 24.9 C 112.4 23.8, 112.6 17.6, 113.3 17.5 C 113.9 17.4, 114.7 24.1, 115.5 24.2 C 116.3 24.3, 117.4 18.0, 118.1 18.0 C 118.9 18.0, 119.1 23.3, 120.0 24.4 C 120.8 25.5, 122.2 25.6, 123.0 24.5 C 123.8 23.4, 124.0 17.8, 124.8 17.7 C 125.5 17.6, 126.6 23.9, 127.5 23.9 C 128.3 23.8, 129.2 17.1, 129.9 17.2 C 130.5 17.4, 130.7 23.4, 131.4 24.7 C 132.0 26.0, 133.2 26.3, 133.8 25.1 C 134.5 24.0, 134.7 17.8, 135.3 17.6 C 135.9 17.5, 136.6 23.3, 137.4 24.3 C 138.3 25.2, 139.9 23.6, 140.3 23.5" transform="translate(0 0)" stroke-width="1.7" opacity="0.5"/><path d="M 96.6 24.8 C 96.8 24.2, 97.5 22.8, 98.0 21.6 C 98.5 20.3, 98.9 17.9, 99.7 17.1 C 100.4 16.4, 101.6 16.4, 102.3 17.2 C 103.0 18.0, 103.7 20.5, 103.8 21.7 C 103.9 23.0, 102.6 24.5, 102.9 24.9 C 103.2 25.3, 104.9 25.4, 105.7 24.3 C 106.5 23.1, 107.1 17.9, 107.7 17.9 C 108.3 18.0, 108.5 23.2, 109.2 24.4 C 109.9 25.5, 111.1 26.1, 111.7 24.9 C 112.4 23.8, 112.6 17.6, 113.3 17.5 C 113.9 17.4, 114.7 24.1, 115.5 24.2 C 116.3 24.3, 117.4 18.0, 118.1 18.0 C 118.9 18.0, 119.1 23.3, 120.0 24.4 C 120.8 25.5, 122.2 25.6, 123.0 24.5 C 123.8 23.4, 124.0 17.8, 124.8 17.7 C 125.5 17.6, 126.6 23.9, 127.5 23.9 C 128.3 23.8, 129.2 17.1, 129.9 17.2 C 130.5 17.4, 130.7 23.4, 131.4 24.7 C 132.0 26.0, 133.2 26.3, 133.8 25.1 C 134.5 24.0, 134.7 17.8, 135.3 17.6 C 135.9 17.5, 136.6 23.3, 137.4 24.3 C 138.3 25.2, 139.9 23.6, 140.3 23.5" transform="translate(0.35 0.3)" stroke-width="0.9" opacity="0.45"/><path d="M 96.6 24.8 C 96.8 24.2, 97.5 22.8, 98.0 21.6 C 98.5 20.3, 98.9 17.9, 99.7 17.1 C 100.4 16.4, 101.6 16.4, 102.3 17.2 C 103.0 18.0, 103.7 20.5, 103.8 21.7 C 103.9 23.0, 102.6 24.5, 102.9 24.9 C 103.2 25.3, 104.9 25.4, 105.7 24.3 C 106.5 23.1, 107.1 17.9, 107.7 17.9 C 108.3 18.0, 108.5 23.2, 109.2 24.4 C 109.9 25.5, 111.1 26.1, 111.7 24.9 C 112.4 23.8, 112.6 17.6, 113.3 17.5 C 113.9 17.4, 114.7 24.1, 115.5 24.2 C 116.3 24.3, 117.4 18.0, 118.1 18.0 C 118.9 18.0, 119.1 23.3, 120.0 24.4 C 120.8 25.5, 122.2 25.6, 123.0 24.5 C 123.8 23.4, 124.0 17.8, 124.8 17.7 C 125.5 17.6, 126.6 23.9, 127.5 23.9 C 128.3 23.8, 129.2 17.1, 129.9 17.2 C 130.5 17.4, 130.7 23.4, 131.4 24.7 C 132.0 26.0, 133.2 26.3, 133.8 25.1 C 134.5 24.0, 134.7 17.8, 135.3 17.6 C 135.9 17.5, 136.6 23.3, 137.4 24.3 C 138.3 25.2, 139.9 23.6, 140.3 23.5" transform="translate(-0.3 -0.25)" stroke-width="0.5" opacity="0.3"/><path d="M 145.7 24.9 C 146.0 23.7, 146.7 17.8, 147.1 17.7 C 147.6 17.5, 147.9 22.8, 148.6 24.1 C 149.2 25.3, 150.3 26.4, 151.0 25.2 C 151.6 24.1, 151.8 17.4, 152.4 17.1 C 153.0 16.9, 153.7 23.0, 154.5 23.6 C 155.3 24.2, 156.3 22.2, 157.1 21.0 C 157.8 19.8, 158.2 17.1, 159.1 16.4 C 160.0 15.7, 161.6 15.8, 162.5 16.8 C 163.3 17.7, 164.2 20.6, 164.3 22.1 C 164.4 23.6, 162.8 25.3, 163.2 25.6 C 163.6 25.9, 165.8 24.1, 166.7 23.9 C 167.5 23.7, 167.8 25.4, 168.3 24.4 C 168.8 23.3, 169.2 18.6, 169.8 17.4 C 170.5 16.1, 171.5 16.0, 172.4 16.7 C 173.3 17.4, 174.2 20.3, 175.0 21.7 C 175.7 23.0, 176.4 24.6, 177.0 24.9 C 177.6 25.2, 178.1 24.7, 178.6 23.4 C 179.1 22.2, 179.5 18.4, 180.2 17.2 C 180.9 16.0, 182.0 15.7, 182.9 16.3 C 183.8 17.0, 184.8 19.7, 185.6 21.1 C 186.4 22.6, 187.1 24.5, 187.8 24.9 C 188.4 25.3, 189.0 24.7, 189.6 23.4 C 190.3 22.1, 190.7 18.1, 191.6 17.0 C 192.5 16.0, 193.8 16.3, 194.9 17.1 C 196.0 17.9, 197.2 20.3, 198.2 21.6 C 199.2 22.9, 200.0 25.5, 200.8 24.8 C 201.7 24.1, 202.5 17.4, 203.2 17.4 C 203.9 17.3, 204.1 23.3, 204.9 24.6 C 205.6 25.9, 206.9 26.2, 207.6 25.0 C 208.4 23.7, 208.6 17.3, 209.3 17.2 C 210.0 17.1, 210.6 23.4, 211.8 24.3 C 212.9 25.2, 215.6 23.0, 216.4 22.7" transform="translate(0 0)" stroke-width="1.7" opacity="0.5"/><path d="M 145.7 24.9 C 146.0 23.7, 146.7 17.8, 147.1 17.7 C 147.6 17.5, 147.9 22.8, 148.6 24.1 C 149.2 25.3, 150.3 26.4, 151.0 25.2 C 151.6 24.1, 151.8 17.4, 152.4 17.1 C 153.0 16.9, 153.7 23.0, 154.5 23.6 C 155.3 24.2, 156.3 22.2, 157.1 21.0 C 157.8 19.8, 158.2 17.1, 159.1 16.4 C 160.0 15.7, 161.6 15.8, 162.5 16.8 C 163.3 17.7, 164.2 20.6, 164.3 22.1 C 164.4 23.6, 162.8 25.3, 163.2 25.6 C 163.6 25.9, 165.8 24.1, 166.7 23.9 C 167.5 23.7, 167.8 25.4, 168.3 24.4 C 168.8 23.3, 169.2 18.6, 169.8 17.4 C 170.5 16.1, 171.5 16.0, 172.4 16.7 C 173.3 17.4, 174.2 20.3, 175.0 21.7 C 175.7 23.0, 176.4 24.6, 177.0 24.9 C 177.6 25.2, 178.1 24.7, 178.6 23.4 C 179.1 22.2, 179.5 18.4, 180.2 17.2 C 180.9 16.0, 182.0 15.7, 182.9 16.3 C 183.8 17.0, 184.8 19.7, 185.6 21.1 C 186.4 22.6, 187.1 24.5, 187.8 24.9 C 188.4 25.3, 189.0 24.7, 189.6 23.4 C 190.3 22.1, 190.7 18.1, 191.6 17.0 C 192.5 16.0, 193.8 16.3, 194.9 17.1 C 196.0 17.9, 197.2 20.3, 198.2 21.6 C 199.2 22.9, 200.0 25.5, 200.8 24.8 C 201.7 24.1, 202.5 17.4, 203.2 17.4 C 203.9 17.3, 204.1 23.3, 204.9 24.6 C 205.6 25.9, 206.9 26.2, 207.6 25.0 C 208.4 23.7, 208.6 17.3, 209.3 17.2 C 210.0 17.1, 210.6 23.4, 211.8 24.3 C 212.9 25.2, 215.6 23.0, 216.4 22.7" transform="translate(0.35 0.3)" stroke-width="0.9" opacity="0.45"/><path d="M 145.7 24.9 C 146.0 23.7, 146.7 17.8, 147.1 17.7 C 147.6 17.5, 147.9 22.8, 148.6 24.1 C 149.2 25.3, 150.3 26.4, 151.0 25.2 C 151.6 24.1, 151.8 17.4, 152.4 17.1 C 153.0 16.9, 153.7 23.0, 154.5 23.6 C 155.3 24.2, 156.3 22.2, 157.1 21.0 C 157.8 19.8, 158.2 17.1, 159.1 16.4 C 160.0 15.7, 161.6 15.8, 162.5 16.8 C 163.3 17.7, 164.2 20.6, 164.3 22.1 C 164.4 23.6, 162.8 25.3, 163.2 25.6 C 163.6 25.9, 165.8 24.1, 166.7 23.9 C 167.5 23.7, 167.8 25.4, 168.3 24.4 C 168.8 23.3, 169.2 18.6, 169.8 17.4 C 170.5 16.1, 171.5 16.0, 172.4 16.7 C 173.3 17.4, 174.2 20.3, 175.0 21.7 C 175.7 23.0, 176.4 24.6, 177.0 24.9 C 177.6 25.2, 178.1 24.7, 178.6 23.4 C 179.1 22.2, 179.5 18.4, 180.2 17.2 C 180.9 16.0, 182.0 15.7, 182.9 16.3 C 183.8 17.0, 184.8 19.7, 185.6 21.1 C 186.4 22.6, 187.1 24.5, 187.8 24.9 C 188.4 25.3, 189.0 24.7, 189.6 23.4 C 190.3 22.1, 190.7 18.1, 191.6 17.0 C 192.5 16.0, 193.8 16.3, 194.9 17.1 C 196.0 17.9, 197.2 20.3, 198.2 21.6 C 199.2 22.9, 200.0 25.5, 200.8 24.8 C 201.7 24.1, 202.5 17.4, 203.2 17.4 C 203.9 17.3, 204.1 23.3, 204.9 24.6 C 205.6 25.9, 206.9 26.2, 207.6 25.0 C 208.4 23.7, 208.6 17.3, 209.3 17.2 C 210.0 17.1, 210.6 23.4, 211.8 24.3 C 212.9 25.2, 215.6 23.0, 216.4 22.7" transform="translate(-0.3 -0.25)" stroke-width="0.5" opacity="0.3"/><path d="M 220.4 25.3 C 220.6 25.0, 221.1 25.1, 221.6 23.6 C 222.1 22.2, 222.6 17.8, 223.4 16.7 C 224.3 15.5, 225.5 16.1, 226.5 16.7 C 227.5 17.4, 228.7 19.3, 229.6 20.6 C 230.5 21.9, 231.4 23.9, 232.0 24.5 C 232.7 25.0, 233.2 25.0, 233.7 23.8 C 234.2 22.6, 234.6 18.4, 235.3 17.3 C 236.0 16.1, 237.0 16.2, 237.9 16.8 C 238.8 17.4, 239.7 19.8, 240.5 21.0 C 241.3 22.3, 241.8 24.8, 242.6 24.2 C 243.4 23.7, 244.6 17.8, 245.5 17.8 C 246.4 17.8, 247.4 21.1, 247.9 24.2 C 248.3 27.2, 248.7 33.6, 248.4 36.1 C 248.2 38.6, 246.8 39.6, 246.3 39.0 C 245.8 38.5, 244.5 35.4, 245.4 32.8 C 246.3 30.2, 250.2 25.4, 251.6 23.3 C 253.1 21.3, 253.5 21.8, 254.2 20.7 C 255.0 19.6, 255.3 17.3, 256.1 16.6 C 256.9 15.9, 258.4 15.7, 259.2 16.5 C 259.9 17.3, 260.7 20.1, 260.8 21.4 C 260.9 22.8, 259.5 24.1, 259.8 24.6 C 260.2 25.1, 262.1 25.0, 263.0 24.4 C 263.9 23.7, 264.4 22.0, 265.0 20.6 C 265.7 19.2, 266.0 16.6, 266.7 16.1 C 267.5 15.5, 268.8 16.5, 269.5 17.4 C 270.2 18.3, 270.9 20.3, 271.0 21.5 C 271.1 22.7, 269.8 24.3, 270.1 24.6 C 270.4 24.9, 272.2 23.5, 273.0 23.3 C 273.8 23.2, 274.1 25.0, 274.7 23.9 C 275.2 22.8, 275.6 18.2, 276.4 17.0 C 277.2 15.8, 278.3 16.0, 279.3 16.7 C 280.3 17.4, 281.3 20.0, 282.2 21.2 C 283.1 22.5, 283.4 24.0, 284.5 24.2 C 285.6 24.4, 288.2 22.7, 288.9 22.4" transform="translate(0 0)" stroke-width="1.7" opacity="0.5"/><path d="M 220.4 25.3 C 220.6 25.0, 221.1 25.1, 221.6 23.6 C 222.1 22.2, 222.6 17.8, 223.4 16.7 C 224.3 15.5, 225.5 16.1, 226.5 16.7 C 227.5 17.4, 228.7 19.3, 229.6 20.6 C 230.5 21.9, 231.4 23.9, 232.0 24.5 C 232.7 25.0, 233.2 25.0, 233.7 23.8 C 234.2 22.6, 234.6 18.4, 235.3 17.3 C 236.0 16.1, 237.0 16.2, 237.9 16.8 C 238.8 17.4, 239.7 19.8, 240.5 21.0 C 241.3 22.3, 241.8 24.8, 242.6 24.2 C 243.4 23.7, 244.6 17.8, 245.5 17.8 C 246.4 17.8, 247.4 21.1, 247.9 24.2 C 248.3 27.2, 248.7 33.6, 248.4 36.1 C 248.2 38.6, 246.8 39.6, 246.3 39.0 C 245.8 38.5, 244.5 35.4, 245.4 32.8 C 246.3 30.2, 250.2 25.4, 251.6 23.3 C 253.1 21.3, 253.5 21.8, 254.2 20.7 C 255.0 19.6, 255.3 17.3, 256.1 16.6 C 256.9 15.9, 258.4 15.7, 259.2 16.5 C 259.9 17.3, 260.7 20.1, 260.8 21.4 C 260.9 22.8, 259.5 24.1, 259.8 24.6 C 260.2 25.1, 262.1 25.0, 263.0 24.4 C 263.9 23.7, 264.4 22.0, 265.0 20.6 C 265.7 19.2, 266.0 16.6, 266.7 16.1 C 267.5 15.5, 268.8 16.5, 269.5 17.4 C 270.2 18.3, 270.9 20.3, 271.0 21.5 C 271.1 22.7, 269.8 24.3, 270.1 24.6 C 270.4 24.9, 272.2 23.5, 273.0 23.3 C 273.8 23.2, 274.1 25.0, 274.7 23.9 C 275.2 22.8, 275.6 18.2, 276.4 17.0 C 277.2 15.8, 278.3 16.0, 279.3 16.7 C 280.3 17.4, 281.3 20.0, 282.2 21.2 C 283.1 22.5, 283.4 24.0, 284.5 24.2 C 285.6 24.4, 288.2 22.7, 288.9 22.4" transform="translate(0.35 0.3)" stroke-width="0.9" opacity="0.45"/><path d="M 220.4 25.3 C 220.6 25.0, 221.1 25.1, 221.6 23.6 C 222.1 22.2, 222.6 17.8, 223.4 16.7 C 224.3 15.5, 225.5 16.1, 226.5 16.7 C 227.5 17.4, 228.7 19.3, 229.6 20.6 C 230.5 21.9, 231.4 23.9, 232.0 24.5 C 232.7 25.0, 233.2 25.0, 233.7 23.8 C 234.2 22.6, 234.6 18.4, 235.3 17.3 C 236.0 16.1, 237.0 16.2, 237.9 16.8 C 238.8 17.4, 239.7 19.8, 240.5 21.0 C 241.3 22.3, 241.8 24.8, 242.6 24.2 C 243.4 23.7, 244.6 17.8, 245.5 17.8 C 246.4 17.8, 247.4 21.1, 247.9 24.2 C 248.3 27.2, 248.7 33.6, 248.4 36.1 C 248.2 38.6, 246.8 39.6, 246.3 39.0 C 245.8 38.5, 244.5 35.4, 245.4 32.8 C 246.3 30.2, 250.2 25.4, 251.6 23.3 C 253.1 21.3, 253.5 21.8, 254.2 20.7 C 255.0 19.6, 255.3 17.3, 256.1 16.6 C 256.9 15.9, 258.4 15.7, 259.2 16.5 C 259.9 17.3, 260.7 20.1, 260.8 21.4 C 260.9 22.8, 259.5 24.1, 259.8 24.6 C 260.2 25.1, 262.1 25.0, 263.0 24.4 C 263.9 23.7, 264.4 22.0, 265.0 20.6 C 265.7 19.2, 266.0 16.6, 266.7 16.1 C 267.5 15.5, 268.8 16.5, 269.5 17.4 C 270.2 18.3, 270.9 20.3, 271.0 21.5 C 271.1 22.7, 269.8 24.3, 270.1 24.6 C 270.4 24.9, 272.2 23.5, 273.0 23.3 C 273.8 23.2, 274.1 25.0, 274.7 23.9 C 275.2 22.8, 275.6 18.2, 276.4 17.0 C 277.2 15.8, 278.3 16.0, 279.3 16.7 C 280.3 17.4, 281.3 20.0, 282.2 21.2 C 283.1 22.5, 283.4 24.0, 284.5 24.2 C 285.6 24.4, 288.2 22.7, 288.9 22.4" transform="translate(-0.3 -0.25)" stroke-width="0.5" opacity="0.3"/>
    <g stroke="#42331f" fill="#42331f" opacity="0.45"><path d="M 36.1 13.6 L 43.7 13.5" stroke-width="0.9" fill="none"/><circle cx="132.5" cy="10.4" r="0.7"/><circle cx="241.2" cy="10.2" r="0.6"/></g>
  </g>
</svg>
