<svg xmlns="http://www.w3.org/2000/svg" viewBox="0 0 212 46" width="212" height="46">
  <defs>
    <!-- paper tooth: the nib skips and pools as it crosses the grain -->
    <filter id="nib" x="-6%" y="-12%" width="112%" height="124%">
      <feTurbulence type="fractalNoise" baseFrequency="0.9" numOctaves="2" seed="4" result="n"/>
      <feDisplacementMap in="SourceGraphic" in2="n" scale="0.9" xChannelSelector="R" yChannelSelector="G"/>
    </filter>
  </defs>
  <g fill="none" stroke="#42331f" stroke-linecap="round" stroke-linejoin="round" filter="url(#nib)">
    <path d="M 6.0 25.2 C 6.2 25.0, 6.6 25.1, 7.0 23.8 C 7.4 22.5, 7.8 18.8, 8.5 17.6 C 9.1 16.4, 10.1 16.0, 10.9 16.6 C 11.8 17.2, 12.7 19.6, 13.4 21.0 C 14.1 22.4, 14.7 25.5, 15.4 25.0 C 16.0 24.5, 16.7 18.3, 17.3 18.2 C 17.8 18.1, 18.1 23.2, 18.7 24.3 C 19.3 25.5, 20.4 26.3, 21.0 25.1 C 21.6 24.0, 21.8 17.8, 22.4 17.7 C 23.0 17.6, 23.8 23.3, 24.5 24.4 C 25.1 25.4, 25.7 25.2, 26.3 24.0 C 26.9 22.8, 27.3 18.3, 28.0 17.1 C 28.7 15.8, 29.9 16.0, 30.8 16.6 C 31.7 17.2, 32.7 19.5, 33.6 20.8 C 34.4 22.2, 35.2 24.3, 35.8 24.8 C 36.4 25.4, 36.8 25.5, 37.3 24.1 C 37.8 22.8, 38.1 18.2, 38.7 17.0 C 39.3 15.7, 40.3 16.1, 41.1 16.8 C 41.9 17.4, 42.8 19.4, 43.5 20.8 C 44.2 22.2, 44.8 24.4, 45.4 25.0 C 45.9 25.6, 46.3 25.6, 46.8 24.3 C 47.3 23.0, 47.6 18.4, 48.3 17.1 C 48.9 15.8, 49.9 15.6, 50.7 16.3 C 51.5 16.9, 52.4 19.6, 53.1 21.1 C 53.8 22.6, 54.5 24.7, 55.1 25.2 C 55.6 25.8, 56.1 25.6, 56.6 24.3 C 57.2 23.1, 57.5 18.8, 58.3 17.5 C 59.0 16.3, 60.1 16.4, 61.0 17.0 C 61.9 17.6, 62.9 19.8, 63.7 21.1 C 64.5 22.4, 65.2 24.6, 65.9 24.9 C 66.5 25.3, 67.1 24.7, 67.8 23.4 C 68.4 22.0, 68.9 18.0, 69.8 17.0 C 70.8 15.9, 72.1 16.3, 73.3 17.0 C 74.4 17.6, 75.7 19.5, 76.7 20.7 C 77.7 22.0, 78.3 23.9, 79.5 24.4 C 80.6 24.8, 83.1 23.5, 83.8 23.4" transform="translate(0 0)" stroke-width="1.7" opacity="0.5"/><path d="M 6.0 25.2 C 6.2 25.0, 6.6 25.1, 7.0 23.8 C 7.4 22.5, 7.8 18.8, 8.5 17.6 C 9.1 16.4, 10.1 16.0, 10.9 16.6 C 11.8 17.2, 12.7 19.6, 13.4 21.0 C 14.1 22.4, 14.7 25.5, 15.4 25.0 C 16.0 24.5, 16.7 18.3, 17.3 18.2 C 17.8 18.1, 18.1 23.2, 18.7 24.3 C 19.3 25.5, 20.4 26.3, 21.0 25.1 C 21.6 24.0, 21.8 17.8, 22.4 17.7 C 23.0 17.6, 23.8 23.3, 24.5 24.4 C 25.1 25.4, 25.7 25.2, 26.3 24.0 C 26.9 22.8, 27.3 18.3, 28.0 17.1 C 28.7 15.8, 29.9 16.0, 30.8 16.6 C 31.7 17.2, 32.7 19.5, 33.6 20.8 C 34.4 22.2, 35.2 24.3, 35.8 24.8 C 36.4 25.4, 36.8 25.5, 37.3 24.1 C 37.8 22.8, 38.1 18.2, 38.7 17.0 C 39.3 15.7, 40.3 16.1, 41.1 16.8 C 41.9 17.4, 42.8 19.4, 43.5 20.8 C 44.2 22.2, 44.8 24.4, 45.4 25.0 C 45.9 25.6, 46.3 25.6, 46.8 24.3 C 47.3 23.0, 47.6 18.4, 48.3 17.1 C 48.9 15.8, 49.9 15.6, 50.7 16.3 C 51.5 16.9, 52.4 19.6, 53.1 21.1 C 53.8 22.6, 54.5 24.7, 55.1 25.2 C 55.6 25.8, 56.1 25.6, 56.6 24.3 C 57.2 23.1, 57.5 18.8, 58.3 17.5 C 59.0 16.3, 60.1 16.4, 61.0 17.0 C 61.9 17.6, 62.9 19.8, 63.7 21.1 C 64.5 22.4, 65.2 24.6, 65.9 24.9 C 66.5 25.3, 67.1 24.7, 67.8 23.4 C 68.4 22.0, 68.9 18.0, 69.8 17.0 C 70.8 15.9, 72.1 16.3, 73.3 17.0 C 74.4 17.6, 75.7 19.5, 76.7 20.7 C 77.7 22.0, 78.3 23.9, 79.5 24.4 C 80.6 24.8, 83.1 23.5, 83.8 23.4" transform="translate(0.35 0.3)" stroke-width="0.9" opacity="0.45"/><path d="M 6.0 25.2 C 6.2 25.0, 6.6 25.1, 7.0 23.8 C 7.4 22.5, 7.8 18.8, 8.5 17.6 C 9.1 16.4, 10.1 16.0, 10.9 16.6 C 11.8 17.2, 12.7 19.6, 13.4 21.0 C 14.1 22.4, 14.7 25.5, 15.4 25.0 C 16.0 24.5, 16.7 18.3, 17.3 18.2 C 17.8 18.1, 18.1 23.2, 18.7 24.3 C 19.3 25.5, 20.4 26.3, 21.0 25.1 C 21.6 24.0, 21.8 17.8, 22.4 17.7 C 23.0 17.6, 23.8 23.3, 24.5 24.4 C 25.1 25.4, 25.7 25.2, 26.3 24.0 C 26.9 22.8, 27.3 18.3, 28.0 17.1 C 28.7 15.8, 29.9 16.0, 30.8 16.6 C 31.7 17.2, 32.7 19.5, 33.6 20.8 C 34.4 22.2, 35.2 24.3, 35.8 24.8 C 36.4 25.4, 36.8 25.5, 37.3 24.1 C 37.8 22.8, 38.1 18.2, 38.7 17.0 C 39.3 15.7, 40.3 16.1, 41.1 16.8 C 41.9 17.4, 42.8 19.4, 43.5 20.8 C 44.2 22.2, 44.8 24.4, 45.4 25.0 C 45.9 25.6, 46.3 25.6, 46.8 24.3 C 47.3 23.0, 47.6 18.4, 48.3 17.1 C 48.9 15.8, 49.9 15.6, 50.7 16.3 C 51.5 16.9, 52.4 19.6, 53.1 21.1 C 53.8 22.6, 54.5 24.7, 55.1 25.2 C 55.6 25.8, 56.1 25.6, 56.6 24.3 C 57.2 23.1, 57.5 18.8, 58.3 17.5 C 59.0 16.3, 60.1 16.4, 61.0 17.0 C 61.9 17.6, 62.9 19.8, 63.7 21.1 C 64.5 22.4, 65.2 24.6, 65.9 24.9 C 66.5 25.3, 67.1 24.7, 67.8 23.4 C 68.4 22.0, 68.9 18.0, 69.8 17.0 C 70.8 15.9, 72.1 16.3, 73.3 17.0 C 74.4 17.6, 75.7 19.5, 76.7 20.7 C 77.7 22.0, 78.3 23.9, 79.5 24.4 C 80.6 24.8, 83.1 23.5, 83.8 23.4" transform="translate(-0.3 -0.25)" stroke-width="0.5" opacity="0.3"/><path d="M 87.4 25.1 C 87.8 24.6, 88.7 25.0, 89.4 21.9 C 90.1 18.8, 90.8 7.6, 91.4 6.5 C 92.0 5.4, 92.9 12.9, 93.0 15.5 C 93.1 18.2, 91.6 21.1, 92.0 22.5 C 92.4 23.8, 94.4 23.8, 95.5 23.6 C 96.7 23.4, 97.9 22.4, 98.8 21.3 C 99.6 20.2, 99.7 17.6, 100.4 16.8 C 101.1 16.0, 102.4 15.9, 103.0 16.6 C 103.7 17.3, 104.4 19.4, 104.5 20.8 C 104.6 22.3, 103.3 24.9, 103.6 25.4 C 103.9 25.9, 105.6 24.0, 106.4 23.8 C 107.1 23.5, 107.4 25.1, 108.0 23.8 C 108.5 22.6, 108.9 17.5, 109.7 16.3 C 110.4 15.1, 111.6 15.8, 112.5 16.6 C 113.5 17.4, 114.5 19.9, 115.4 21.1 C 116.2 22.3, 116.9 23.8, 117.6 23.8 C 118.4 23.9, 119.2 22.5, 119.9 21.2 C 120.6 19.9, 121.0 16.9, 121.8 16.2 C 122.7 15.5, 124.2 16.0, 125.0 16.9 C 125.8 17.8, 126.6 20.2, 126.7 21.6 C 126.8 22.9, 125.3 24.6, 125.7 24.9 C 126.1 25.3, 128.1 24.5, 129.0 23.9 C 129.9 23.2, 130.4 22.2, 131.0 21.0 C 131.6 19.8, 131.9 17.2, 132.6 16.4 C 133.3 15.6, 134.6 15.4, 135.2 16.1 C 135.9 16.8, 136.5 19.2, 136.6 20.6 C 136.7 22.0, 135.5 24.0, 135.8 24.5 C 136.1 25.0, 137.8 23.8, 138.5 23.7 C 139.2 23.6, 139.4 24.8, 139.9 23.7 C 140.3 22.6, 140.6 18.3, 141.2 17.0 C 141.8 15.7, 142.7 15.2, 143.5 15.8 C 144.2 16.3, 145.1 18.9, 145.7 20.2 C 146.4 21.5, 146.5 23.2, 147.6 23.7 C 148.6 24.1, 151.2 23.1, 151.9 22.9" transform="translate(0 0)" stroke-width="1.7" opacity="0.5"/><path d="M 87.4 25.1 C 87.8 24.6, 88.7 25.0, 89.4 21.9 C 90.1 18.8, 90.8 7.6, 91.4 6.5 C 92.0 5.4, 92.9 12.9, 93.0 15.5 C 93.1 18.2, 91.6 21.1, 92.0 22.5 C 92.4 23.8, 94.4 23.8, 95.5 23.6 C 96.7 23.4, 97.9 22.4, 98.8 21.3 C 99.6 20.2, 99.7 17.6, 100.4 16.8 C 101.1 16.0, 102.4 15.9, 103.0 16.6 C 103.7 17.3, 104.4 19.4, 104.5 20.8 C 104.6 22.3, 103.3 24.9, 103.6 25.4 C 103.9 25.9, 105.6 24.0, 106.4 23.8 C 107.1 23.5, 107.4 25.1, 108.0 23.8 C 108.5 22.6, 108.9 17.5, 109.7 16.3 C 110.4 15.1, 111.6 15.8, 112.5 16.6 C 113.5 17.4, 114.5 19.9, 115.4 21.1 C 116.2 22.3, 116.9 23.8, 117.6 23.8 C 118.4 23.9, 119.2 22.5, 119.9 21.2 C 120.6 19.9, 121.0 16.9, 121.8 16.2 C 122.7 15.5, 124.2 16.0, 125.0 16.9 C 125.8 17.8, 126.6 20.2, 126.7 21.6 C 126.8 22.9, 125.3 24.6, 125.7 24.9 C 126.1 25.3, 128.1 24.5, 129.0 23.9 C 129.9 23.2, 130.4 22.2, 131.0 21.0 C 131.6 19.8, 131.9 17.2, 132.6 16.4 C 133.3 15.6, 134.6 15.4, 135.2 16.1 C 135.9 16.8, 136.5 19.2, 136.6 20.6 C 136.7 22.0, 135.5 24.0, 135.8 24.5 C 136.1 25.0, 137.8 23.8, 138.5 23.7 C 139.2 23.6, 139.4 24.8, 139.9 23.7 C 140.3 22.6, 140.6 18.3, 141.2 17.0 C 141.8 15.7, 142.7 15.2, 143.5 15.8 C 144.2 16.3, 145.1 18.9, 145.7 20.2 C 146.4 21.5, 146.5 23.2, 147.6 23.7 C 148.6 24.1, 151.2 23.1, 151.9 22.9" transform="translate(0.35 0.3)" stroke-width="0.9" opacity="0.45"/><path d="M 87.4 25.1 C 87.8 24.6, 88.7 25.0, 89.4 21.9 C 90.1 18.8, 90.8 7.6, 91.4 6.5 C 92.0 5.4, 92.9 12.9, 93.0 15.5 C 93.1 18.2, 91.6 21.1, 92.0 22.5 C 92.4 23.8, 94.4 23.8, 95.5 23.6 C 96.7 23.4, 97.9 22.4, 98.8 21.3 C 99.6 20.2, 99.7 17.6, 100.4 16.8 C 101.1 16.0, 102.4 15.9, 103.0 16.6 C 103.7 17.3, 104.4 19.4, 104.5 20.8 C 104.6 22.3, 103.3 24.9, 103.6 25.4 C 103.9 25.9, 105.6 24.0, 106.4 23.8 C 107.1 23.5, 107.4 25.1, 108.0 23.8 C 108.5 22.6, 108.9 17.5, 109.7 16.3 C 110.4 15.1, 111.6 15.8, 112.5 16.6 C 113.5 17.4, 114.5 19.9, 115.4 21.1 C 116.2 22.3, 116.9 23.8, 117.6 23.8 C 118.4 23.9, 119.2 22.5, 119.9 21.2 C 120.6 19.9, 121.0 16.9, 121.8 16.2 C 122.7 15.5, 124.2 16.0, 125.0 16.9 C 125.8 17.8, 126.6 20.2, 126.7 21.6 C 126.8 22.9, 125.3 24.6, 125.7 24.9 C 126.1 25.3, 128.1 24.5, 129.0 23.9 C 129.9 23.2, 130.4 22.2, 131.0 21.0 C 131.6 19.8, 131.9 17.2, 132.6 16.4 C 133.3 15.6, 134.6 15.4, 135.2 16.1 C 135.9 16.8, 136.5 19.2, 136.6 20.6 C 136.7 22.0, 135.5 24.0, 135.8 24.5 C 136.1 25.0, 137.8 23.8, 138.5 23.7 C 139.2 23.6, 139.4 24.8, 139.9 23.7 C 140.3 22.6, 140.6 18.3, 141.2 17.0 C 141.8 15.7, 142.7 15.2, 143.5 15.8 C 144.2 16.3, 145.1 18.9, 145.7 20.2 C 146.4 21.5, 146.5 23.2, 147.6 23.7 C 148.6 24.1, 151.2 23.1, 151.9 22.9" transform="translate(-0.3 -0.25)" stroke-width="0.5" opacity="0.3"/><path d="M 156.0 24.8 C 156.2 24.5, 156.6 24.8, 157.1 23.3 C 157.5 21.8, 158.0 17.2, 158.7 16.0 C 159.4 14.8, 160.4 15.6, 161.3 16.3 C 162.2 17.0, 163.2 19.0, 164.0 20.3 C 164.8 21.5, 165.2 23.6, 166.1 23.9 C 166.9 24.1, 168.1 24.6, 169.0 21.6 C 169.8 18.7, 170.6 7.2, 171.3 6.1 C 172.0 5.1, 173.1 12.7, 173.2 15.3 C 173.3 18.0, 171.5 20.6, 172.0 22.0 C 172.5 23.4, 174.9 23.9, 176.2 23.5 C 177.6 23.2, 179.0 21.4, 179.9 20.1 C 180.7 18.8, 180.8 16.6, 181.6 15.9 C 182.3 15.2, 183.6 15.0, 184.3 15.8 C 185.1 16.5, 185.7 18.8, 185.8 20.3 C 185.9 21.8, 184.6 24.3, 184.9 24.7 C 185.3 25.1, 187.0 23.3, 187.8 22.6 C 188.6 22.0, 189.1 21.9, 189.7 20.7 C 190.3 19.5, 190.6 16.4, 191.2 15.6 C 191.9 14.8, 193.1 14.9, 193.8 15.8 C 194.4 16.7, 195.1 19.6, 195.2 21.1 C 195.2 22.6, 194.0 24.4, 194.3 24.6 C 194.6 24.9, 195.8 23.0, 197.0 22.6 C 198.1 22.2, 200.6 22.4, 201.3 22.3" transform="translate(0 0)" stroke-width="1.7" opacity="0.5"/><path d="M 156.0 24.8 C 156.2 24.5, 156.6 24.8, 157.1 23.3 C 157.5 21.8, 158.0 17.2, 158.7 16.0 C 159.4 14.8, 160.4 15.6, 161.3 16.3 C 162.2 17.0, 163.2 19.0, 164.0 20.3 C 164.8 21.5, 165.2 23.6, 166.1 23.9 C 166.9 24.1, 168.1 24.6, 169.0 21.6 C 169.8 18.7, 170.6 7.2, 171.3 6.1 C 172.0 5.1, 173.1 12.7, 173.2 15.3 C 173.3 18.0, 171.5 20.6, 172.0 22.0 C 172.5 23.4, 174.9 23.9, 176.2 23.5 C 177.6 23.2, 179.0 21.4, 179.9 20.1 C 180.7 18.8, 180.8 16.6, 181.6 15.9 C 182.3 15.2, 183.6 15.0, 184.3 15.8 C 185.1 16.5, 185.7 18.8, 185.8 20.3 C 185.9 21.8, 184.6 24.3, 184.9 24.7 C 185.3 25.1, 187.0 23.3, 187.8 22.6 C 188.6 22.0, 189.1 21.9, 189.7 20.7 C 190.3 19.5, 190.6 16.4, 191.2 15.6 C 191.9 14.8, 193.1 14.9, 193.8 15.8 C 194.4 16.7, 195.1 19.6, 195.2 21.1 C 195.2 22.6, 194.0 24.4, 194.3 24.6 C 194.6 24.9, 195.8 23.0, 197.0 22.6 C 198.1 22.2, 200.6 22.4, 201.3 22.3" transform="translate(0.35 0.3)" stroke-width="0.9" opacity="0.45"/><path d="M 156.0 24.8 C 156.2 24.5, 156.6 24.8, 157.1 23.3 C 157.5 21.8, 158.0 17.2, 158.7 16.0 C 159.4 14.8, 160.4 15.6, 161.3 16.3 C 162.2 17.0, 163.2 19.0, 164.0 20.3 C 164.8 21.5, 165.2 23.6, 166.1 23.9 C 166.9 24.1, 168.1 24.6, 169.0 21.6 C 169.8 18.7, 170.6 7.2, 171.3 6.1 C 172.0 5.1, 173.1 12.7, 173.2 15.3 C 173.3 18.0, 171.5 20.6, 172.0 22.0 C 172.5 23.4, 174.9 23.9, 176.2 23.5 C 177.6 23.2, 179.0 21.4, 179.9 20.1 C 180.7 18.8, 180.8 16.6, 181.6 15.9 C 182.3 15.2, 183.6 15.0, 184.3 15.8 C 185.1 16.5, 185.7 18.8, 185.8 20.3 C 185.9 21.8, 184.6 24.3, 184.9 24.7 C 185.3 25.1, 187.0 23.3, 187.8 22.6 C 188.6 22.0, 189.1 21.9, 189.7 20.7 C 190.3 19.5, 190.6 16.4, 191.2 15.6 C 191.9 14.8, 193.1 14.9, 193.8 15.8 C 194.4 16.7, 195.1 19.6, 195.2 21.1 C 195.2 22.6, 194.0 24.4, 194.3 24.6 C 194.6 24.9, 195.8 23.0, 197.0 22.6 C 198.1 22.2, 200.6 22.4, 201.3 22.3" transform="translate(-0.3 -0.25)" stroke-width="0.5" opacity="0.3"/>
    <g stroke="#42331f" fill="#42331f" opacity="0.45"><circle cx="64.0" cy="10.3" r="0.5"/><path d="M 122.0 12.9 L 131.3 11.9" stroke-width="0.9" fill="none"/></g>
  </g>
</svg>
