<svg xmlns="http://www.w3.org/2000/svg" viewBox="0 0 236 46" width="236" height="46">
  <defs>
    <!-- paper tooth: the nib skips and pools as it crosses the grain -->
    <filter id="nib" x="-6%" y="-12%" width="112%" height="124%">
      <feTurbulence type="fractalNoise" baseFrequency="0.9" numOctaves="2" seed="6" result="n"/>
      <feDisplacementMap in="SourceGraphic" in2="n" scale="0.9" xChannelSelector="R" yChannelSelector="G"/>
    </filter>
  </defs>
  <g fill="none" stroke="#42331f" stroke-linecap="round" stroke-linejoin="round" filter="url(#nib)">
    <path d="M 6.0 25.4 C 6.3 24.8, 7.0 23.3, 7.5 21.9 C 8.1 20.5, 8.5 17.8, 9.3 17.1 C 10.1 16.4, 11.5 17.1, 12.2 17.8 C 12.9 18.5, 13.6 20.2, 13.7 21.5 C 13.8 22.7, 12.5 25.0, 12.8 25.5 C 13.2 25.9, 14.9 25.0, 15.8 24.3 C 16.7 23.6, 17.4 22.5, 18.1 21.3 C 18.8 20.1, 19.2 17.6, 20.1 16.9 C 21.0 16.2, 22.5 16.3, 23.4 17.1 C 24.2 18.0, 25.0 20.7, 25.1 22.0 C 25.3 23.4, 23.7 24.9, 24.1 25.1 C 24.5 25.4, 26.6 24.2, 27.5 23.6 C 28.4 23.0, 29.0 22.6, 29.7 21.4 C 30.3 20.2, 30.7 17.0, 31.5 16.4 C 32.3 15.7, 33.7 16.7, 34.5 17.5 C 35.2 18.4, 36.0 20.2, 36.1 21.4 C 36.2 22.7, 34.8 24.5, 35.1 25.0 C 35.5 25.4, 37.4 24.5, 38.2 24.3 C 39.0 24.0, 39.5 24.6, 40.1 23.4 C 40.8 22.3, 41.3 18.5, 42.2 17.3 C 43.1 16.1, 44.5 15.5, 45.7 16.1 C 46.8 16.7, 48.1 19.6, 49.1 21.0 C 50.2 22.3, 51.1 23.7, 51.9 24.1 C 52.7 24.5, 53.2 24.5, 53.9 23.3 C 54.5 22.1, 55.0 18.2, 55.8 17.0 C 56.6 15.8, 57.9 15.4, 59.0 16.1 C 60.0 16.7, 61.2 19.8, 62.2 21.2 C 63.1 22.5, 63.7 24.5, 64.7 24.3 C 65.7 24.2, 67.8 21.0, 68.4 20.4" transform="translate(0 0)" stroke-width="1.7" opacity="0.5"/><path d="M 6.0 25.4 C 6.3 24.8, 7.0 23.3, 7.5 21.9 C 8.1 20.5, 8.5 17.8, 9.3 17.1 C 10.1 16.4, 11.5 17.1, 12.2 17.8 C 12.9 18.5, 13.6 20.2, 13.7 21.5 C 13.8 22.7, 12.5 25.0, 12.8 25.5 C 13.2 25.9, 14.9 25.0, 15.8 24.3 C 16.7 23.6, 17.4 22.5, 18.1 21.3 C 18.8 20.1, 19.2 17.6, 20.1 16.9 C 21.0 16.2, 22.5 16.3, 23.4 17.1 C 24.2 18.0, 25.0 20.7, 25.1 22.0 C 25.3 23.4, 23.7 24.9, 24.1 25.1 C 24.5 25.4, 26.6 24.2, 27.5 23.6 C 28.4 23.0, 29.0 22.6, 29.7 21.4 C 30.3 20.2, 30.7 17.0, 31.5 16.4 C 32.3 15.7, 33.7 16.7, 34.5 17.5 C 35.2 18.4, 36.0 20.2, 36.1 21.4 C 36.2 22.7, 34.8 24.5, 35.1 25.0 C 35.5 25.4, 37.4 24.5, 38.2 24.3 C 39.0 24.0, 39.5 24.6, 40.1 23.4 C 40.8 22.3, 41.3 18.5, 42.2 17.3 C 43.1 16.1, 44.5 15.5, 45.7 16.1 C 46.8 16.7, 48.1 19.6, 49.1 21.0 C 50.2 22.3, 51.1 23.7, 51.9 24.1 C 52.7 24.5, 53.2 24.5, 53.9 23.3 C 54.5 22.1, 55.0 18.2, 55.8 17.0 C 56.6 15.8, 57.9 15.4, 59.0 16.1 C 60.0 16.7, 61.2 19.8, 62.2 21.2 C 63.1 22.5, 63.7 24.5, 64.7 24.3 C 65.7 24.2, 67.8 21.0, 68.4 20.4" transform="translate(0.35 0.3)" stroke-width="0.9" opacity="0.45"/><path d="M 6.0 25.4 C 6.3 24.8, 7.0 23.3, 7.5 21.9 C 8.1 20.5, 8.5 17.8, 9.3 17.1 C 10.1 16.4, 11.5 17.1, 12.2 17.8 C 12.9 18.5, 13.6 20.2, 13.7 21.5 C 13.8 22.7, 12.5 25.0, 12.8 25.5 C 13.2 25.9, 14.9 25.0, 15.8 24.3 C 16.7 23.6, 17.4 22.5, 18.1 21.3 C 18.8 20.1, 19.2 17.6, 20.1 16.9 C 21.0 16.2, 22.5 16.3, 23.4 17.1 C 24.2 18.0, 25.0 20.7, 25.1 22.0 C 25.3 23.4, 23.7 24.9, 24.1 25.1 C 24.5 25.4, 26.6 24.2, 27.5 23.6 C 28.4 23.0, 29.0 22.6, 29.7 21.4 C 30.3 20.2, 30.7 17.0, 31.5 16.4 C 32.3 15.7, 33.7 16.7, 34.5 17.5 C 35.2 18.4, 36.0 20.2, 36.1 21.4 C 36.2 22.7, 34.8 24.5, 35.1 25.0 C 35.5 25.4, 37.4 24.5, 38.2 24.3 C 39.0 24.0, 39.5 24.6, 40.1 23.4 C 40.8 22.3, 41.3 18.5, 42.2 17.3 C 43.1 16.1, 44.5 15.5, 45.7 16.1 C 46.8 16.7, 48.1 19.6, 49.1 21.0 C 50.2 22.3, 51.1 23.7, 51.9 24.1 C 52.7 24.5, 53.2 24.5, 53.9 23.3 C 54.5 22.1, 55.0 18.2, 55.8 17.0 C 56.6 15.8, 57.9 15.4, 59.0 16.1 C 60.0 16.7, 61.2 19.8, 62.2 21.2 C 63.1 22.5, 63.7 24.5, 64.7 24.3 C 65.7 24.2, 67.8 21.0, 68.4 20.4" transform="translate(-0.3 -0.25)" stroke-width="0.5" opacity="0.3"/><path d="M 72.4 24.8 C 72.8 23.5, 74.1 16.8, 74.9 16.6 C 75.8 16.4, 76.9 20.7, 77.5 23.7 C 78.0 26.8, 78.3 32.5, 78.1 35.0 C 77.8 37.4, 76.4 38.5, 75.8 38.2 C 75.3 37.9, 73.9 35.7, 74.8 33.1 C 75.8 30.6, 80.0 25.2, 81.5 23.1 C 83.0 21.0, 83.2 21.6, 83.9 20.4 C 84.5 19.2, 84.8 16.6, 85.5 16.0 C 86.2 15.3, 87.4 15.6, 88.0 16.3 C 88.7 17.0, 89.3 19.0, 89.4 20.3 C 89.5 21.7, 88.3 23.8, 88.6 24.4 C 88.9 24.9, 90.6 23.7, 91.3 23.4 C 92.0 23.2, 92.4 24.1, 93.0 22.9 C 93.6 21.7, 94.0 17.4, 94.8 16.2 C 95.6 15.0, 96.9 15.0, 97.9 15.7 C 98.9 16.3, 100.0 18.9, 100.9 20.1 C 101.9 21.4, 102.6 23.5, 103.4 23.4 C 104.2 23.3, 105.0 20.9, 105.7 19.6 C 106.4 18.3, 106.8 16.2, 107.6 15.7 C 108.5 15.1, 110.0 15.4, 110.8 16.2 C 111.6 17.0, 112.4 19.0, 112.5 20.3 C 112.6 21.6, 111.1 23.7, 111.5 24.1 C 111.9 24.5, 113.3 23.3, 114.8 22.8 C 116.2 22.2, 119.3 21.2, 120.2 20.9" transform="translate(0 0)" stroke-width="1.7" opacity="0.5"/><path d="M 72.4 24.8 C 72.8 23.5, 74.1 16.8, 74.9 16.6 C 75.8 16.4, 76.9 20.7, 77.5 23.7 C 78.0 26.8, 78.3 32.5, 78.1 35.0 C 77.8 37.4, 76.4 38.5, 75.8 38.2 C 75.3 37.9, 73.9 35.7, 74.8 33.1 C 75.8 30.6, 80.0 25.2, 81.5 23.1 C 83.0 21.0, 83.2 21.6, 83.9 20.4 C 84.5 19.2, 84.8 16.6, 85.5 16.0 C 86.2 15.3, 87.4 15.6, 88.0 16.3 C 88.7 17.0, 89.3 19.0, 89.4 20.3 C 89.5 21.7, 88.3 23.8, 88.6 24.4 C 88.9 24.9, 90.6 23.7, 91.3 23.4 C 92.0 23.2, 92.4 24.1, 93.0 22.9 C 93.6 21.7, 94.0 17.4, 94.8 16.2 C 95.6 15.0, 96.9 15.0, 97.9 15.7 C 98.9 16.3, 100.0 18.9, 100.9 20.1 C 101.9 21.4, 102.6 23.5, 103.4 23.4 C 104.2 23.3, 105.0 20.9, 105.7 19.6 C 106.4 18.3, 106.8 16.2, 107.6 15.7 C 108.5 15.1, 110.0 15.4, 110.8 16.2 C 111.6 17.0, 112.4 19.0, 112.5 20.3 C 112.6 21.6, 111.1 23.7, 111.5 24.1 C 111.9 24.5, 113.3 23.3, 114.8 22.8 C 116.2 22.2, 119.3 21.2, 120.2 20.9" transform="translate(0.35 0.3)" stroke-width="0.9" opacity="0.45"/><path d="M 72.4 24.8 C 72.8 23.5, 74.1 16.8, 74.9 16.6 C 75.8 16.4, 76.9 20.7, 77.5 23.7 C 78.0 26.8, 78.3 32.5, 78.1 35.0 C 77.8 37.4, 76.4 38.5, 75.8 38.2 C 75.3 37.9, 73.9 35.7, 74.8 33.1 C 75.8 30.6, 80.0 25.2, 81.5 23.1 C 83.0 21.0, 83.2 21.6, 83.9 20.4 C 84.5 19.2, 84.8 16.6, 85.5 16.0 C 86.2 15.3, 87.4 15.6, 88.0 16.3 C 88.7 17.0, 89.3 19.0, 89.4 20.3 C 89.5 21.7, 88.3 23.8, 88.6 24.4 C 88.9 24.9, 90.6 23.7, 91.3 23.4 C 92.0 23.2, 92.4 24.1, 93.0 22.9 C 93.6 21.7, 94.0 17.4, 94.8 16.2 C 95.6 15.0, 96.9 15.0, 97.9 15.7 C 98.9 16.3, 100.0 18.9, 100.9 20.1 C 101.9 21.4, 102.6 23.5, 103.4 23.4 C 104.2 23.3, 105.0 20.9, 105.7 19.6 C 106.4 18.3, 106.8 16.2, 107.6 15.7 C 108.5 15.1, 110.0 15.4, 110.8 16.2 C 111.6 17.0, 112.4 19.0, 112.5 20.3 C 112.6 21.6, 111.1 23.7, 111.5 24.1 C 111.9 24.5, 113.3 23.3, 114.8 22.8 C 116.2 22.2, 119.3 21.2, 120.2 20.9" transform="translate(-0.3 -0.25)" stroke-width="0.5" opacity="0.3"/><path d="M 122.8 25.0 C 123.0 24.7, 123.5 24.4, 124.0 22.8 C 124.5 21.1, 125.0 16.5, 125.8 15.3 C 126.6 14.1, 127.8 14.9, 128.8 15.5 C 129.8 16.2, 131.0 18.1, 131.9 19.4 C 132.8 20.6, 133.5 22.9, 134.3 23.0 C 135.1 23.1, 136.1 21.2, 136.9 19.9 C 137.6 18.6, 138.1 15.8, 139.1 15.2 C 140.0 14.5, 141.7 15.1, 142.7 15.9 C 143.6 16.8, 144.5 19.0, 144.6 20.3 C 144.7 21.6, 143.0 23.1, 143.5 23.4 C 143.9 23.8, 146.2 22.9, 147.2 22.3 C 148.2 21.6, 148.8 20.5, 149.5 19.3 C 150.3 18.1, 150.6 15.7, 151.5 15.0 C 152.3 14.3, 153.8 14.3, 154.6 15.0 C 155.5 15.8, 156.2 18.0, 156.3 19.5 C 156.5 21.0, 154.9 23.3, 155.3 23.9 C 155.7 24.4, 157.6 24.1, 158.6 22.7 C 159.6 21.3, 160.4 15.4, 161.1 15.4 C 161.9 15.4, 162.2 21.4, 163.1 22.6 C 163.9 23.8, 165.4 23.9, 166.3 22.6 C 167.2 21.4, 167.5 15.3, 168.3 15.2 C 169.1 15.1, 169.9 21.0, 171.1 21.9 C 172.3 22.7, 174.7 20.5, 175.5 20.2" transform="translate(0 0)" stroke-width="1.7" opacity="0.5"/><path d="M 122.8 25.0 C 123.0 24.7, 123.5 24.4, 124.0 22.8 C 124.5 21.1, 125.0 16.5, 125.8 15.3 C 126.6 14.1, 127.8 14.9, 128.8 15.5 C 129.8 16.2, 131.0 18.1, 131.9 19.4 C 132.8 20.6, 133.5 22.9, 134.3 23.0 C 135.1 23.1, 136.1 21.2, 136.9 19.9 C 137.6 18.6, 138.1 15.8, 139.1 15.2 C 140.0 14.5, 141.7 15.1, 142.7 15.9 C 143.6 16.8, 144.5 19.0, 144.6 20.3 C 144.7 21.6, 143.0 23.1, 143.5 23.4 C 143.9 23.8, 146.2 22.9, 147.2 22.3 C 148.2 21.6, 148.8 20.5, 149.5 19.3 C 150.3 18.1, 150.6 15.7, 151.5 15.0 C 152.3 14.3, 153.8 14.3, 154.6 15.0 C 155.5 15.8, 156.2 18.0, 156.3 19.5 C 156.5 21.0, 154.9 23.3, 155.3 23.9 C 155.7 24.4, 157.6 24.1, 158.6 22.7 C 159.6 21.3, 160.4 15.4, 161.1 15.4 C 161.9 15.4, 162.2 21.4, 163.1 22.6 C 163.9 23.8, 165.4 23.9, 166.3 22.6 C 167.2 21.4, 167.5 15.3, 168.3 15.2 C 169.1 15.1, 169.9 21.0, 171.1 21.9 C 172.3 22.7, 174.7 20.5, 175.5 20.2" transform="translate(0.35 0.3)" stroke-width="0.9" opacity="0.45"/><path d="M 122.8 25.0 C 123.0 24.7, 123.5 24.4, 124.0 22.8 C 124.5 21.1, 125.0 16.5, 125.8 15.3 C 126.6 14.1, 127.8 14.9, 128.8 15.5 C 129.8 16.2, 131.0 18.1, 131.9 19.4 C 132.8 20.6, 133.5 22.9, 134.3 23.0 C 135.1 23.1, 136.1 21.2, 136.9 19.9 C 137.6 18.6, 138.1 15.8, 139.1 15.2 C 140.0 14.5, 141.7 15.1, 142.7 15.9 C 143.6 16.8, 144.5 19.0, 144.6 20.3 C 144.7 21.6, 143.0 23.1, 143.5 23.4 C 143.9 23.8, 146.2 22.9, 147.2 22.3 C 148.2 21.6, 148.8 20.5, 149.5 19.3 C 150.3 18.1, 150.6 15.7, 151.5 15.0 C 152.3 14.3, 153.8 14.3, 154.6 15.0 C 155.5 15.8, 156.2 18.0, 156.3 19.5 C 156.5 21.0, 154.9 23.3, 155.3 23.9 C 155.7 24.4, 157.6 24.1, 158.6 22.7 C 159.6 21.3, 160.4 15.4, 161.1 15.4 C 161.9 15.4, 162.2 21.4, 163.1 22.6 C 163.9 23.8, 165.4 23.9, 166.3 22.6 C 167.2 21.4, 167.5 15.3, 168.3 15.2 C 169.1 15.1, 169.9 21.0, 171.1 21.9 C 172.3 22.7, 174.7 20.5, 175.5 20.2" transform="translate(-0.3 -0.25)" stroke-width="0.5" opacity="0.3"/><path d="M 179.7 24.7 C 180.0 23.8, 180.9 21.1, 181.6 19.4 C 182.2 17.7, 182.8 15.3, 183.7 14.6 C 184.7 13.8, 186.3 14.2, 187.2 15.0 C 188.1 15.9, 189.0 18.3, 189.1 19.6 C 189.2 20.8, 187.6 22.3, 188.0 22.7 C 188.4 23.1, 190.5 22.4, 191.6 21.9 C 192.7 21.4, 193.6 22.7, 194.5 19.9 C 195.4 17.0, 196.1 5.7, 196.8 4.8 C 197.4 3.8, 198.5 11.7, 198.6 14.3 C 198.7 16.8, 196.9 18.7, 197.4 20.0 C 197.9 21.3, 200.3 22.8, 201.5 22.1 C 202.7 21.3, 204.1 15.4, 204.9 15.4 C 205.7 15.3, 205.7 20.5, 206.3 21.6 C 206.9 22.7, 207.9 23.0, 208.5 21.9 C 209.1 20.8, 209.3 15.1, 209.9 14.9 C 210.5 14.7, 211.2 20.9, 211.9 20.9 C 212.6 20.9, 213.6 14.8, 214.3 14.9 C 215.0 15.0, 215.2 20.1, 215.9 21.3 C 216.7 22.5, 218.0 23.3, 218.7 22.3 C 219.4 21.3, 219.7 15.5, 220.4 15.2 C 221.0 15.0, 221.7 19.8, 222.8 20.7 C 223.9 21.6, 226.1 20.7, 226.8 20.6" transform="translate(0 0)" stroke-width="1.7" opacity="0.5"/><path d="M 179.7 24.7 C 180.0 23.8, 180.9 21.1, 181.6 19.4 C 182.2 17.7, 182.8 15.3, 183.7 14.6 C 184.7 13.8, 186.3 14.2, 187.2 15.0 C 188.1 15.9, 189.0 18.3, 189.1 19.6 C 189.2 20.8, 187.6 22.3, 188.0 22.7 C 188.4 23.1, 190.5 22.4, 191.6 21.9 C 192.7 21.4, 193.6 22.7, 194.5 19.9 C 195.4 17.0, 196.1 5.7, 196.8 4.8 C 197.4 3.8, 198.5 11.7, 198.6 14.3 C 198.7 16.8, 196.9 18.7, 197.4 20.0 C 197.9 21.3, 200.3 22.8, 201.5 22.1 C 202.7 21.3, 204.1 15.4, 204.9 15.4 C 205.7 15.3, 205.7 20.5, 206.3 21.6 C 206.9 22.7, 207.9 23.0, 208.5 21.9 C 209.1 20.8, 209.3 15.1, 209.9 14.9 C 210.5 14.7, 211.2 20.9, 211.9 20.9 C 212.6 20.9, 213.6 14.8, 214.3 14.9 C 215.0 15.0, 215.2 20.1, 215.9 21.3 C 216.7 22.5, 218.0 23.3, 218.7 22.3 C 219.4 21.3, 219.7 15.5, 220.4 15.2 C 221.0 15.0, 221.7 19.8, 222.8 20.7 C 223.9 21.6, 226.1 20.7, 226.8 20.6" transform="translate(0.35 0.3)" stroke-width="0.9" opacity="0.45"/><path d="M 179.7 24.7 C 180.0 23.8, 180.9 21.1, 181.6 19.4 C 182.2 17.7, 182.8 15.3, 183.7 14.6 C 184.7 13.8, 186.3 14.2, 187.2 15.0 C 188.1 15.9, 189.0 18.3, 189.1 19.6 C 189.2 20.8, 187.6 22.3, 188.0 22.7 C 188.4 23.1, 190.5 22.4, 191.6 21.9 C 192.7 21.4, 193.6 22.7, 194.5 19.9 C 195.4 17.0, 196.1 5.7, 196.8 4.8 C 197.4 3.8, 198.5 11.7, 198.6 14.3 C 198.7 16.8, 196.9 18.7, 197.4 20.0 C 197.9 21.3, 200.3 22.8, 201.5 22.1 C 202.7 21.3, 204.1 15.4, 204.9 15.4 C 205.7 15.3, 205.7 20.5, 206.3 21.6 C 206.9 22.7, 207.9 23.0, 208.5 21.9 C 209.1 20.8, 209.3 15.1, 209.9 14.9 C 210.5 14.7, 211.2 20.9, 211.9 20.9 C 212.6 20.9, 213.6 14.8, 214.3 14.9 C 215.0 15.0, 215.2 20.1, 215.9 21.3 C 216.7 22.5, 218.0 23.3, 218.7 22.3 C 219.4 21.3, 219.7 15.5, 220.4 15.2 C 221.0 15.0, 221.7 19.8, 222.8 20.7 C 223.9 21.6, 226.1 20.7, 226.8 20.6" transform="translate(-0.3 -0.25)" stroke-width="0.5" opacity="0.3"/>
    <g stroke="#42331f" fill="#42331f" opacity="0.45"><circle cx="19.4" cy="10.5" r="0.8"/><circle cx="103.0" cy="9.3" r="0.6"/><path d="M 150.0 11.6 L 157.2 10.1" stroke-width="0.9" fill="none"/><path d="M 214.7 10.7 L 223.1 10.5" stroke-width="0.9" fill="none"/></g>
  </g>
</svg>
