<svg xmlns="http://www.w3.org/2000/svg" viewBox="0 0 237 46" width="237" height="46">
  <defs>
    <!-- paper tooth: the nib skips and pools as it crosses the grain -->
    <filter id="nib" x="-6%" y="-12%" width="112%" height="124%">
      <feTurbulence type="fractalNoise" baseFrequency="0.9" numOctaves="2" seed="7" result="n"/>
      <feDisplacementMap in="SourceGraphic" in2="n" scale="0.9" xChannelSelector="R" yChannelSelector="G"/>
    </filter>
  </defs>
  <g fill="none" stroke="#42331f" stroke-linecap="round" stroke-linejoin="round" filter="url(#nib)">
    <path d="M 6.0 25.4 C 6.5 24.1, 8.2 17.7, 9.2 17.7 C 10.3 17.7, 11.8 22.1, 12.5 25.3 C 13.1 28.5, 13.6 34.6, 13.2 36.8 C 12.9 39.0, 11.1 39.1, 10.4 38.6 C 9.7 38.0, 7.9 36.1, 9.1 33.7 C 10.3 31.3, 15.6 26.1, 17.6 24.2 C 19.7 22.2, 20.3 25.0, 21.3 22.1 C 22.3 19.3, 22.9 8.0, 23.6 7.2 C 24.3 6.3, 25.4 14.3, 25.5 16.8 C 25.6 19.4, 23.8 21.1, 24.3 22.3 C 24.8 23.6, 27.2 24.4, 28.5 24.3 C 29.9 24.1, 31.3 22.8, 32.3 21.6 C 33.2 20.4, 33.3 17.9, 34.1 17.2 C 34.9 16.5, 36.4 16.5, 37.2 17.3 C 38.0 18.1, 38.7 20.7, 38.8 22.0 C 38.9 23.3, 37.5 24.9, 37.8 25.3 C 38.2 25.6, 40.2 24.3, 41.0 24.0 C 41.8 23.8, 42.0 24.7, 42.5 23.6 C 42.9 22.4, 43.2 18.3, 43.8 17.2 C 44.4 16.1, 45.4 16.2, 46.1 16.9 C 46.9 17.6, 47.7 20.1, 48.4 21.3 C 49.1 22.6, 49.6 24.4, 50.3 24.4 C 50.9 24.3, 51.8 22.5, 52.5 21.1 C 53.2 19.8, 53.6 16.8, 54.5 16.2 C 55.4 15.5, 56.9 16.2, 57.8 17.1 C 58.6 17.9, 59.4 19.8, 59.6 21.2 C 59.7 22.6, 58.1 24.9, 58.5 25.4 C 58.9 25.9, 60.7 25.6, 61.9 24.3 C 63.1 22.9, 64.6 17.2, 65.8 17.2 C 67.0 17.2, 68.4 21.1, 69.0 24.2 C 69.7 27.2, 70.2 33.3, 69.8 35.6 C 69.5 37.9, 67.6 38.6, 66.9 38.1 C 66.2 37.6, 64.4 35.1, 65.6 32.7 C 66.9 30.3, 72.4 25.2, 74.3 23.7 C 76.1 22.2, 75.9 24.8, 76.6 23.7 C 77.2 22.6, 77.4 18.6, 78.1 17.3 C 78.7 16.0, 79.7 15.3, 80.6 15.9 C 81.4 16.6, 82.3 19.7, 83.1 21.1 C 83.8 22.4, 84.0 23.9, 85.1 24.1 C 86.2 24.2, 89.0 22.2, 89.8 21.9" transform="translate(0 0)" stroke-width="1.7" opacity="0.5"/><path d="M 6.0 25.4 C 6.5 24.1, 8.2 17.7, 9.2 17.7 C 10.3 17.7, 11.8 22.1, 12.5 25.3 C 13.1 28.5, 13.6 34.6, 13.2 36.8 C 12.9 39.0, 11.1 39.1, 10.4 38.6 C 9.7 38.0, 7.9 36.1, 9.1 33.7 C 10.3 31.3, 15.6 26.1, 17.6 24.2 C 19.7 22.2, 20.3 25.0, 21.3 22.1 C 22.3 19.3, 22.9 8.0, 23.6 7.2 C 24.3 6.3, 25.4 14.3, 25.5 16.8 C 25.6 19.4, 23.8 21.1, 24.3 22.3 C 24.8 23.6, 27.2 24.4, 28.5 24.3 C 29.9 24.1, 31.3 22.8, 32.3 21.6 C 33.2 20.4, 33.3 17.9, 34.1 17.2 C 34.9 16.5, 36.4 16.5, 37.2 17.3 C 38.0 18.1, 38.7 20.7, 38.8 22.0 C 38.9 23.3, 37.5 24.9, 37.8 25.3 C 38.2 25.6, 40.2 24.3, 41.0 24.0 C 41.8 23.8, 42.0 24.7, 42.5 23.6 C 42.9 22.4, 43.2 18.3, 43.8 17.2 C 44.4 16.1, 45.4 16.2, 46.1 16.9 C 46.9 17.6, 47.7 20.1, 48.4 21.3 C 49.1 22.6, 49.6 24.4, 50.3 24.4 C 50.9 24.3, 51.8 22.5, 52.5 21.1 C 53.2 19.8, 53.6 16.8, 54.5 16.2 C 55.4 15.5, 56.9 16.2, 57.8 17.1 C 58.6 17.9, 59.4 19.8, 59.6 21.2 C 59.7 22.6, 58.1 24.9, 58.5 25.4 C 58.9 25.9, 60.7 25.6, 61.9 24.3 C 63.1 22.9, 64.6 17.2, 65.8 17.2 C 67.0 17.2, 68.4 21.1, 69.0 24.2 C 69.7 27.2, 70.2 33.3, 69.8 35.6 C 69.5 37.9, 67.6 38.6, 66.9 38.1 C 66.2 37.6, 64.4 35.1, 65.6 32.7 C 66.9 30.3, 72.4 25.2, 74.3 23.7 C 76.1 22.2, 75.9 24.8, 76.6 23.7 C 77.2 22.6, 77.4 18.6, 78.1 17.3 C 78.7 16.0, 79.7 15.3, 80.6 15.9 C 81.4 16.6, 82.3 19.7, 83.1 21.1 C 83.8 22.4, 84.0 23.9, 85.1 24.1 C 86.2 24.2, 89.0 22.2, 89.8 21.9" transform="translate(0.35 0.3)" stroke-width="0.9" opacity="0.45"/><path d="M 6.0 25.4 C 6.5 24.1, 8.2 17.7, 9.2 17.7 C 10.3 17.7, 11.8 22.1, 12.5 25.3 C 13.1 28.5, 13.6 34.6, 13.2 36.8 C 12.9 39.0, 11.1 39.1, 10.4 38.6 C 9.7 38.0, 7.9 36.1, 9.1 33.7 C 10.3 31.3, 15.6 26.1, 17.6 24.2 C 19.7 22.2, 20.3 25.0, 21.3 22.1 C 22.3 19.3, 22.9 8.0, 23.6 7.2 C 24.3 6.3, 25.4 14.3, 25.5 16.8 C 25.6 19.4, 23.8 21.1, 24.3 22.3 C 24.8 23.6, 27.2 24.4, 28.5 24.3 C 29.9 24.1, 31.3 22.8, 32.3 21.6 C 33.2 20.4, 33.3 17.9, 34.1 17.2 C 34.9 16.5, 36.4 16.5, 37.2 17.3 C 38.0 18.1, 38.7 20.7, 38.8 22.0 C 38.9 23.3, 37.5 24.9, 37.8 25.3 C 38.2 25.6, 40.2 24.3, 41.0 24.0 C 41.8 23.8, 42.0 24.7, 42.5 23.6 C 42.9 22.4, 43.2 18.3, 43.8 17.2 C 44.4 16.1, 45.4 16.2, 46.1 16.9 C 46.9 17.6, 47.7 20.1, 48.4 21.3 C 49.1 22.6, 49.6 24.4, 50.3 24.4 C 50.9 24.3, 51.8 22.5, 52.5 21.1 C 53.2 19.8, 53.6 16.8, 54.5 16.2 C 55.4 15.5, 56.9 16.2, 57.8 17.1 C 58.6 17.9, 59.4 19.8, 59.6 21.2 C 59.7 22.6, 58.1 24.9, 58.5 25.4 C 58.9 25.9, 60.7 25.6, 61.9 24.3 C 63.1 22.9, 64.6 17.2, 65.8 17.2 C 67.0 17.2, 68.4 21.1, 69.0 24.2 C 69.7 27.2, 70.2 33.3, 69.8 35.6 C 69.5 37.9, 67.6 38.6, 66.9 38.1 C 66.2 37.6, 64.4 35.1, 65.6 32.7 C 66.9 30.3, 72.4 25.2, 74.3 23.7 C 76.1 22.2, 75.9 24.8, 76.6 23.7 C 77.2 22.6, 77.4 18.6, 78.1 17.3 C 78.7 16.0, 79.7 15.3, 80.6 15.9 C 81.4 16.6, 82.3 19.7, 83.1 21.1 C 83.8 22.4, 84.0 23.9, 85.1 24.1 C 86.2 24.2, 89.0 22.2, 89.8 21.9" transform="translate(-0.3 -0.25)" stroke-width="0.5" opacity="0.3"/><path d="M 92.4 25.4 C 92.7 24.1, 93.6 17.8, 94.2 17.5 C 94.8 17.3, 95.2 22.9, 96.0 24.0 C 96.8 25.2, 98.2 25.7, 98.9 24.5 C 99.7 23.3, 100.0 16.8, 100.7 16.6 C 101.5 16.5, 102.3 22.6, 103.3 23.4 C 104.4 24.3, 106.0 24.7, 107.1 21.8 C 108.1 19.0, 109.0 7.1, 109.8 6.1 C 110.7 5.0, 111.9 12.9, 112.1 15.5 C 112.2 18.1, 110.1 20.3, 110.7 21.7 C 111.3 23.1, 114.0 23.8, 115.7 23.8 C 117.4 23.7, 119.5 24.5, 120.8 21.6 C 122.2 18.7, 122.7 7.4, 123.5 6.4 C 124.3 5.4, 125.5 13.1, 125.7 15.7 C 125.8 18.2, 123.8 20.3, 124.3 21.6 C 124.9 23.0, 127.7 24.1, 129.2 23.9 C 130.6 23.6, 132.2 21.3, 133.2 20.0 C 134.1 18.7, 134.2 16.5, 134.9 15.9 C 135.7 15.3, 137.1 15.5, 137.9 16.3 C 138.6 17.1, 139.3 19.4, 139.4 20.8 C 139.5 22.2, 138.1 24.3, 138.5 24.7 C 138.8 25.0, 140.7 23.9, 141.5 23.2 C 142.4 22.5, 143.0 21.7, 143.7 20.4 C 144.4 19.1, 144.8 16.1, 145.6 15.3 C 146.4 14.5, 147.9 14.8, 148.7 15.7 C 149.5 16.6, 150.2 19.3, 150.3 20.7 C 150.4 22.1, 149.0 23.9, 149.3 24.2 C 149.7 24.5, 151.3 24.1, 152.5 22.7 C 153.7 21.4, 155.3 15.9, 156.5 16.1 C 157.8 16.3, 159.3 20.7, 160.0 23.9 C 160.7 27.1, 161.2 32.9, 160.8 35.3 C 160.5 37.6, 158.5 38.3, 157.8 37.9 C 157.1 37.4, 155.1 35.4, 156.4 32.8 C 157.7 30.2, 163.5 25.2, 165.5 22.5 C 167.6 19.7, 167.9 16.3, 168.7 16.4 C 169.5 16.5, 169.7 22.0, 170.5 23.3 C 171.3 24.5, 172.6 24.9, 173.4 23.8 C 174.2 22.7, 174.5 17.0, 175.2 16.9 C 175.9 16.8, 176.5 22.3, 177.8 23.1 C 179.1 23.8, 182.1 21.9, 182.9 21.6" transform="translate(0 0)" stroke-width="1.7" opacity="0.5"/><path d="M 92.4 25.4 C 92.7 24.1, 93.6 17.8, 94.2 17.5 C 94.8 17.3, 95.2 22.9, 96.0 24.0 C 96.8 25.2, 98.2 25.7, 98.9 24.5 C 99.7 23.3, 100.0 16.8, 100.7 16.6 C 101.5 16.5, 102.3 22.6, 103.3 23.4 C 104.4 24.3, 106.0 24.7, 107.1 21.8 C 108.1 19.0, 109.0 7.1, 109.8 6.1 C 110.7 5.0, 111.9 12.9, 112.1 15.5 C 112.2 18.1, 110.1 20.3, 110.7 21.7 C 111.3 23.1, 114.0 23.8, 115.7 23.8 C 117.4 23.7, 119.5 24.5, 120.8 21.6 C 122.2 18.7, 122.7 7.4, 123.5 6.4 C 124.3 5.4, 125.5 13.1, 125.7 15.7 C 125.8 18.2, 123.8 20.3, 124.3 21.6 C 124.9 23.0, 127.7 24.1, 129.2 23.9 C 130.6 23.6, 132.2 21.3, 133.2 20.0 C 134.1 18.7, 134.2 16.5, 134.9 15.9 C 135.7 15.3, 137.1 15.5, 137.9 16.3 C 138.6 17.1, 139.3 19.4, 139.4 20.8 C 139.5 22.2, 138.1 24.3, 138.5 24.7 C 138.8 25.0, 140.7 23.9, 141.5 23.2 C 142.4 22.5, 143.0 21.7, 143.7 20.4 C 144.4 19.1, 144.8 16.1, 145.6 15.3 C 146.4 14.5, 147.9 14.8, 148.7 15.7 C 149.5 16.6, 150.2 19.3, 150.3 20.7 C 150.4 22.1, 149.0 23.9, 149.3 24.2 C 149.7 24.5, 151.3 24.1, 152.5 22.7 C 153.7 21.4, 155.3 15.9, 156.5 16.1 C 157.8 16.3, 159.3 20.7, 160.0 23.9 C 160.7 27.1, 161.2 32.9, 160.8 35.3 C 160.5 37.6, 158.5 38.3, 157.8 37.9 C 157.1 37.4, 155.1 35.4, 156.4 32.8 C 157.7 30.2, 163.5 25.2, 165.5 22.5 C 167.6 19.7, 167.9 16.3, 168.7 16.4 C 169.5 16.5, 169.7 22.0, 170.5 23.3 C 171.3 24.5, 172.6 24.9, 173.4 23.8 C 174.2 22.7, 174.5 17.0, 175.2 16.9 C 175.9 16.8, 176.5 22.3, 177.8 23.1 C 179.1 23.8, 182.1 21.9, 182.9 21.6" transform="translate(0.35 0.3)" stroke-width="0.9" opacity="0.45"/><path d="M 92.4 25.4 C 92.7 24.1, 93.6 17.8, 94.2 17.5 C 94.8 17.3, 95.2 22.9, 96.0 24.0 C 96.8 25.2, 98.2 25.7, 98.9 24.5 C 99.7 23.3, 100.0 16.8, 100.7 16.6 C 101.5 16.5, 102.3 22.6, 103.3 23.4 C 104.4 24.3, 106.0 24.7, 107.1 21.8 C 108.1 19.0, 109.0 7.1, 109.8 6.1 C 110.7 5.0, 111.9 12.9, 112.1 15.5 C 112.2 18.1, 110.1 20.3, 110.7 21.7 C 111.3 23.1, 114.0 23.8, 115.7 23.8 C 117.4 23.7, 119.5 24.5, 120.8 21.6 C 122.2 18.7, 122.7 7.4, 123.5 6.4 C 124.3 5.4, 125.5 13.1, 125.7 15.7 C 125.8 18.2, 123.8 20.3, 124.3 21.6 C 124.9 23.0, 127.7 24.1, 129.2 23.9 C 130.6 23.6, 132.2 21.3, 133.2 20.0 C 134.1 18.7, 134.2 16.5, 134.9 15.9 C 135.7 15.3, 137.1 15.5, 137.9 16.3 C 138.6 17.1, 139.3 19.4, 139.4 20.8 C 139.5 22.2, 138.1 24.3, 138.5 24.7 C 138.8 25.0, 140.7 23.9, 141.5 23.2 C 142.4 22.5, 143.0 21.7, 143.7 20.4 C 144.4 19.1, 144.8 16.1, 145.6 15.3 C 146.4 14.5, 147.9 14.8, 148.7 15.7 C 149.5 16.6, 150.2 19.3, 150.3 20.7 C 150.4 22.1, 149.0 23.9, 149.3 24.2 C 149.7 24.5, 151.3 24.1, 152.5 22.7 C 153.7 21.4, 155.3 15.9, 156.5 16.1 C 157.8 16.3, 159.3 20.7, 160.0 23.9 C 160.7 27.1, 161.2 32.9, 160.8 35.3 C 160.5 37.6, 158.5 38.3, 157.8 37.9 C 157.1 37.4, 155.1 35.4, 156.4 32.8 C 157.7 30.2, 163.5 25.2, 165.5 22.5 C 167.6 19.7, 167.9 16.3, 168.7 16.4 C 169.5 16.5, 169.7 22.0, 170.5 23.3 C 171.3 24.5, 172.6 24.9, 173.4 23.8 C 174.2 22.7, 174.5 17.0, 175.2 16.9 C 175.9 16.8, 176.5 22.3, 177.8 23.1 C 179.1 23.8, 182.1 21.9, 182.9 21.6" transform="translate(-0.3 -0.25)" stroke-width="0.5" opacity="0.3"/><path d="M 187.4 24.7 C 187.8 23.4, 189.1 16.7, 190.0 16.5 C 190.9 16.3, 192.2 20.4, 192.7 23.3 C 193.3 26.3, 193.6 32.1, 193.3 34.4 C 193.1 36.6, 191.6 37.4, 191.0 37.0 C 190.4 36.5, 188.9 34.3, 189.9 31.9 C 190.9 29.5, 195.3 24.8, 197.0 22.7 C 198.7 20.7, 199.1 20.8, 200.0 19.5 C 200.9 18.2, 201.2 15.8, 202.2 15.1 C 203.2 14.4, 204.9 14.6, 205.8 15.4 C 206.8 16.2, 207.6 18.7, 207.8 20.0 C 207.9 21.4, 206.2 23.0, 206.6 23.5 C 207.0 24.0, 209.1 24.2, 210.4 23.0 C 211.6 21.7, 213.0 16.0, 214.1 16.1 C 215.2 16.1, 216.5 20.3, 217.2 23.4 C 217.8 26.4, 218.2 32.0, 217.9 34.3 C 217.6 36.6, 215.9 37.3, 215.2 37.0 C 214.5 36.7, 212.8 34.8, 214.0 32.3 C 215.1 29.7, 220.0 23.7, 222.1 21.9 C 224.2 20.1, 225.6 21.5, 226.3 21.4" transform="translate(0 0)" stroke-width="1.7" opacity="0.5"/><path d="M 187.4 24.7 C 187.8 23.4, 189.1 16.7, 190.0 16.5 C 190.9 16.3, 192.2 20.4, 192.7 23.3 C 193.3 26.3, 193.6 32.1, 193.3 34.4 C 193.1 36.6, 191.6 37.4, 191.0 37.0 C 190.4 36.5, 188.9 34.3, 189.9 31.9 C 190.9 29.5, 195.3 24.8, 197.0 22.7 C 198.7 20.7, 199.1 20.8, 200.0 19.5 C 200.9 18.2, 201.2 15.8, 202.2 15.1 C 203.2 14.4, 204.9 14.6, 205.8 15.4 C 206.8 16.2, 207.6 18.7, 207.8 20.0 C 207.9 21.4, 206.2 23.0, 206.6 23.5 C 207.0 24.0, 209.1 24.2, 210.4 23.0 C 211.6 21.7, 213.0 16.0, 214.1 16.1 C 215.2 16.1, 216.5 20.3, 217.2 23.4 C 217.8 26.4, 218.2 32.0, 217.9 34.3 C 217.6 36.6, 215.9 37.3, 215.2 37.0 C 214.5 36.7, 212.8 34.8, 214.0 32.3 C 215.1 29.7, 220.0 23.7, 222.1 21.9 C 224.2 20.1, 225.6 21.5, 226.3 21.4" transform="translate(0.35 0.3)" stroke-width="0.9" opacity="0.45"/><path d="M 187.4 24.7 C 187.8 23.4, 189.1 16.7, 190.0 16.5 C 190.9 16.3, 192.2 20.4, 192.7 23.3 C 193.3 26.3, 193.6 32.1, 193.3 34.4 C 193.1 36.6, 191.6 37.4, 191.0 37.0 C 190.4 36.5, 188.9 34.3, 189.9 31.9 C 190.9 29.5, 195.3 24.8, 197.0 22.7 C 198.7 20.7, 199.1 20.8, 200.0 19.5 C 200.9 18.2, 201.2 15.8, 202.2 15.1 C 203.2 14.4, 204.9 14.6, 205.8 15.4 C 206.8 16.2, 207.6 18.7, 207.8 20.0 C 207.9 21.4, 206.2 23.0, 206.6 23.5 C 207.0 24.0, 209.1 24.2, 210.4 23.0 C 211.6 21.7, 213.0 16.0, 214.1 16.1 C 215.2 16.1, 216.5 20.3, 217.2 23.4 C 217.8 26.4, 218.2 32.0, 217.9 34.3 C 217.6 36.6, 215.9 37.3, 215.2 37.0 C 214.5 36.7, 212.8 34.8, 214.0 32.3 C 215.1 29.7, 220.0 23.7, 222.1 21.9 C 224.2 20.1, 225.6 21.5, 226.3 21.4" transform="translate(-0.3 -0.25)" stroke-width="0.5" opacity="0.3"/>
    <g stroke="#42331f" fill="#42331f" opacity="0.45"><circle cx="27.3" cy="10.5" r="0.7"/><path d="M 215.7 11.8 L 223.8 10.9" stroke-width="0.9" fill="none"/></g>
  </g>
</svg>
